<?xml version='1.0' encoding='UTF-8' standalone='no'?>
<svg height="321.06" version="1.2" width="648.69000000000005" xmlns="http://www.w3.org/2000/svg" xmlns:atv="http://webmi.atvise.com/2007/svgext" xmlns:xlink="http://www.w3.org/1999/xlink">
 <defs/>
 <metadata>
  <atv:gridconfig enabled="true" gridstyle="lines" height="20" width="20"/>
  <atv:snapconfig enabled="true" height="1" width="1"/>
 </metadata>
 <g atv:insensitive="true" atv:refpx="0" atv:refpy="0" id="id_11" transform="matrix(0.5068,0,0,0.4181,0,0)">
  <rect atv:refpx="640" atv:refpy="384" fill="#ffffff" height="768.00" id="id_12" width="1280.00" x="0" y="0"/>
 </g>
 <script atv:desc="" atv:name="" type="text/ecmascript"/>
 <line atv:refpx="456.501" atv:refpy="89" id="id_27" stroke="#000000" stroke-linecap="round" stroke-linejoin="round" stroke-width="2" x1="456.001" x2="456.001" y1="120" y2="58"/>
 <line atv:refpx="-387.281" atv:refpy="278.552" fill="#000000" fill-opacity="0.964706" id="id_108" stroke="#000000" stroke-linecap="round" stroke-linejoin="round" stroke-width="2" x1="362.687" x2="412" y1="100.052" y2="100.052"/>
 <line atv:refpx="77.687" atv:refpy="264.25" fill="#000000" fill-opacity="0.964706" id="id_98" stroke="#000000" stroke-linecap="round" stroke-linejoin="round" stroke-width="2" x1="548" x2="527" y1="22.5" y2="22.5"/>
 <polygon atv:refpx="508" atv:refpy="114.5" fill="#000018" fill-opacity="0.964706" id="id_99" points="498,108 518,108 508,120.999 508,120.999" stroke="#000000" stroke-linecap="round" stroke-linejoin="round" stroke-opacity="0" stroke-width="2"/>
 <line atv:refpx="-329.439" atv:refpy="285.052" fill="#000000" fill-opacity="0.964706" id="id_101" stroke="#000000" stroke-linecap="round" stroke-linejoin="round" stroke-width="2" x1="548.187" x2="509" y1="100.052" y2="100.052"/>
 <polygon atv:refpx="480.194" atv:refpy="114.001" fill="#000018" fill-opacity="0.964706" id="id_102" points="470.193,107.5 490.193,107.5 480.193,120.499 480.193,120.499" stroke="#000000" stroke-linecap="round" stroke-linejoin="round" stroke-opacity="0" stroke-width="2"/>
 <line atv:refpx="1736" atv:refpy="168.302" fill="#000000" fill-opacity="0.964706" id="id_104" stroke="#000000" stroke-linecap="round" stroke-linejoin="round" stroke-width="2" x1="548.187" x2="495.687" y1="177.802" y2="177.802"/>
 <line atv:refpx="-1386.813" atv:refpy="297.549" fill="#000000" fill-opacity="0.964706" id="id_111" stroke="#000000" stroke-linecap="round" stroke-linejoin="round" stroke-width="2" x1="548.687" x2="469.687" y1="236.049" y2="236.049"/>
 <line atv:refpx="-2023.376" atv:refpy="300.558" fill="#000000" fill-opacity="0.964706" id="id_114" stroke="#000000" stroke-linecap="round" stroke-linejoin="round" stroke-width="2" x1="548.187" x2="442.687" y1="298.058" y2="298.058"/>
 <line atv:refpx="262.661" atv:refpy="198" fill="#000000" fill-opacity="0.964706" id="id_33" stroke="#000000" stroke-linecap="round" stroke-linejoin="round" stroke-width="2" x1="361.687" x2="382" y1="22.5" y2="22.5"/>
 <polygon atv:refpx="456" atv:refpy="51.499" fill="#000018" fill-opacity="0.964706" id="id_35" points="446,58 466,58 456,45 456,45" stroke="#000000" stroke-linecap="round" stroke-linejoin="round" stroke-opacity="0" stroke-width="2"/>
 <line atv:refpx="-467.563" atv:refpy="170.302" fill="#000000" fill-opacity="0.964706" id="id_91" stroke="#000000" stroke-linecap="round" stroke-linejoin="round" stroke-width="2" x1="362.687" x2="416.687" y1="177.802" y2="177.802"/>
 <polygon atv:refpx="415.687" atv:refpy="142.052" fill="#000018" fill-opacity="0.964706" id="id_92" points="405.686,171.552 425.686,171.552 415.686,158.552 415.686,158.552" stroke="#000000" stroke-linecap="round" stroke-linejoin="round" stroke-opacity="0" stroke-width="2"/>
 <g atv:refpx="311.938" atv:refpy="262.552" id="id_94" transform="matrix(0,-1,1,0,19.9387,388.052)">
  <line atv:refpx="123" atv:refpy="292.5" fill="#000000" fill-opacity="0.964706" id="id_95" stroke="#000000" stroke-linecap="round" stroke-linejoin="round" stroke-width="2" x1="111" x2="135" y1="292" y2="292"/>
  <polygon atv:refpx="134.5" atv:refpy="292" fill="#000018" fill-opacity="0.964706" id="id_96" points="128,282 128,302 141,292 141,292" stroke="#000000" stroke-linecap="round" stroke-linejoin="round" stroke-opacity="0" stroke-width="2"/>
 </g>
 <line atv:refpx="180.251" atv:refpy="749.642" fill="#000000" id="id_59" stroke="#000000" stroke-linecap="round" stroke-linejoin="round" stroke-width="2.015" x1="180.751" x2="180.751" y1="278.066" y2="212.049"/>
 <g atv:refpx="115.437" atv:refpy="100.052" id="id_51" transform="matrix(1,0,0,1,-10.0627,-191.9477)">
  <line atv:refpx="123" atv:refpy="292.5" fill="#000000" fill-opacity="0.964706" id="id_52" stroke="#000000" stroke-linecap="round" stroke-linejoin="round" stroke-width="2" x1="111" x2="135" y1="292" y2="292"/>
  <polygon atv:refpx="134.5" atv:refpy="292" fill="#000018" fill-opacity="0.964706" id="id_53" points="128,282 128,302 141,292 141,292" stroke="#000000" stroke-linecap="round" stroke-linejoin="round" stroke-opacity="0" stroke-width="2"/>
 </g>
 <g atv:refpx="114.437" atv:refpy="177.802" id="id_57" transform="matrix(1,0,0,1,-11.0627,-114.1978)">
  <line atv:refpx="123" atv:refpy="292.5" fill="#000000" fill-opacity="0.964706" id="id_75" stroke="#000000" stroke-linecap="round" stroke-linejoin="round" stroke-width="2" x1="111" x2="135" y1="292" y2="292"/>
  <polygon atv:refpx="134.5" atv:refpy="292" fill="#000018" fill-opacity="0.964706" id="id_78" points="128,282 128,302 141,292 141,292" stroke="#000000" stroke-linecap="round" stroke-linejoin="round" stroke-opacity="0" stroke-width="2"/>
 </g>
 <g atv:refpx="246.437" atv:refpy="22.5" id="id_48" transform="matrix(1,0,0,1,120.9373,-269.4996)">
  <line atv:refpx="123" atv:refpy="292.5" fill="#000000" fill-opacity="0.964706" id="id_46" stroke="#000000" stroke-linecap="round" stroke-linejoin="round" stroke-width="2" x1="111" x2="135" y1="292" y2="292"/>
  <polygon atv:refpx="134.5" atv:refpy="292" fill="#000018" fill-opacity="0.964706" id="id_47" points="128,282 128,302 141,292 141,292" stroke="#000000" stroke-linecap="round" stroke-linejoin="round" stroke-opacity="0" stroke-width="2"/>
 </g>
 <g atv:refpx="247.437" atv:refpy="100.052" id="id_81" transform="matrix(1,0,0,1,121.9373,-191.9477)">
  <line atv:refpx="123" atv:refpy="292.5" fill="#000000" fill-opacity="0.964706" id="id_82" stroke="#000000" stroke-linecap="round" stroke-linejoin="round" stroke-width="2" x1="111" x2="135" y1="292" y2="292"/>
  <polygon atv:refpx="134.5" atv:refpy="292" fill="#000018" fill-opacity="0.964706" id="id_83" points="128,282 128,302 141,292 141,292" stroke="#000000" stroke-linecap="round" stroke-linejoin="round" stroke-opacity="0" stroke-width="2"/>
 </g>
 <g atv:refpx="246.437" atv:refpy="177.802" id="id_84" transform="matrix(1,0,0,1,120.9373,-114.1978)">
  <line atv:refpx="123" atv:refpy="292.5" fill="#000000" fill-opacity="0.964706" id="id_85" stroke="#000000" stroke-linecap="round" stroke-linejoin="round" stroke-width="2" x1="111" x2="135" y1="292" y2="292"/>
  <polygon atv:refpx="134.5" atv:refpy="292" fill="#000018" fill-opacity="0.964706" id="id_86" points="128,282 128,302 141,292 141,292" stroke="#000000" stroke-linecap="round" stroke-linejoin="round" stroke-opacity="0" stroke-width="2"/>
 </g>
 <rect atv:refpx="470.89" atv:refpy="140.026" fill="#000088" fill-opacity="0" height="38.052" id="id_58" stroke="#000072" stroke-width="0.988" width="120.041" x="397.465" y="121"/>
 <text atv:refpx="457.506" atv:refpy="140.025" fill="#000018" font-family="Arial" font-size="18" font-weight="bold" id="id_106" transform="matrix(0.5868,0,0,0.6432,165.7563,46.5189)" x="405.653" y="151.878">Laguna de Oxidación</text>
 <svg atv:refpx="311.927" atv:refpy="100.047" height="63.11" id="id_1" transform="matrix(0.7519,0,0,0.7289,0,0)" width="133" x="348.367" xlink:href="ObjectTypes.PROJECT.ElementoLineaAR.Principal" y="105.71">
  <atv:argument name="base" value="AGENT.OBJECTS.SCADA.Benito_Juarez.Cuencas.Cuenca_CAR_LOX.Carcamo_6_SM18"/>
 </svg>
 <svg atv:refpx="593.187" atv:refpy="236.046" height="63.11" id="id_2" transform="matrix(0.7519,0,0,0.7289,0,0)" width="133" x="729.069" xlink:href="ObjectTypes.PROJECT.ElementoLineaAR.Principal" y="292.287">
  <atv:argument name="base" value="AGENT.OBJECTS.SCADA.Benito_Juarez.Cuencas.Cuenca_CAR_LOX.Carcamo_7_NH_Reg_100"/>
 </svg>
 <svg atv:refpx="311.933" atv:refpy="22.495" height="63.11" id="id_3" transform="matrix(0.7519,0,0,0.7289,0,0)" width="133" x="348.367" xlink:href="ObjectTypes.PROJECT.ElementoLineaAR.Principal" y="-0.686">
  <atv:argument name="base" value="AGENT.OBJECTS.SCADA.Benito_Juarez.Cuencas.Cuenca_CAR_LOX.Carcamo_Almendros"/>
 </svg>
 <svg atv:refpx="598.187" atv:refpy="298.056" height="63.11" id="id_5" transform="matrix(0.7519,0,0,0.7289,0,0)" width="133" x="729.069" xlink:href="ObjectTypes.PROJECT.ElementoLineaAR.Principal" y="377.359">
  <atv:argument name="base" value="AGENT.OBJECTS.SCADA.Benito_Juarez.Cuencas.Cuenca_CAR_LOX.Carcamo_Benito_Juarez"/>
 </svg>
 <svg atv:refpx="36.984" atv:refpy="177.799" height="63.11" id="id_7" transform="matrix(0.7519,0,0,0.7289,0,0)" width="133" x="0" xlink:href="ObjectTypes.PROJECT.ElementoLineaAR.Principal" y="212.377">
  <atv:argument name="base" value="AGENT.OBJECTS.SCADA.Benito_Juarez.Cuencas.Cuenca_CAR_LOX.Carcamo_Donceles"/>
 </svg>
 <svg atv:refpx="49.984" atv:refpy="22.493" height="63.11" id="id_8" transform="matrix(0.7519,0,0,0.7289,0,0)" width="133" x="0" xlink:href="ObjectTypes.PROJECT.ElementoLineaAR.Principal" y="-0.686">
  <atv:argument name="base" value="AGENT.OBJECTS.SCADA.Benito_Juarez.Cuencas.Cuenca_CAR_LOX.Carcamo_El_Table"/>
 </svg>
 <svg atv:refpx="180.74" atv:refpy="100.045" height="63.11" id="id_9" transform="matrix(0.7519,0,0,0.7289,0,0)" width="133" x="173.893" xlink:href="ObjectTypes.PROJECT.ElementoLineaAR.Principal" y="105.71">
  <atv:argument name="base" value="AGENT.OBJECTS.SCADA.Benito_Juarez.Cuencas.Cuenca_CAR_LOX.Carcamo_Farayon_SM_15"/>
 </svg>
 <svg atv:refpx="180.734" atv:refpy="297.053" height="63.11" id="id_10" transform="matrix(0.7519,0,0,0.7289,0,0)" width="133" x="173.893" xlink:href="ObjectTypes.PROJECT.ElementoLineaAR.Principal" y="377.359">
  <atv:argument name="base" value="AGENT.OBJECTS.SCADA.Benito_Juarez.Cuencas.Cuenca_CAR_LOX.Carcamo_FOVISSSTE_64"/>
 </svg>
 <svg atv:refpx="618.681" atv:refpy="22.493" height="63.11" id="id_13" transform="matrix(0.7519,0,0,0.7289,0,0)" width="133" x="729.735" xlink:href="ObjectTypes.PROJECT.ElementoLineaAR.Principal" y="-0.686">
  <atv:argument name="base" value="AGENT.OBJECTS.SCADA.Benito_Juarez.Cuencas.Cuenca_CAR_LOX.Carcamo_La_Costa"/>
 </svg>
 <svg atv:refpx="50.001" atv:refpy="298.057" height="63.11" id="id_14" transform="matrix(0.7519,0,0,0.7289,0,0)" width="133" x="0" xlink:href="ObjectTypes.PROJECT.ElementoLineaAR.Principal" y="377.359">
  <atv:argument name="base" value="AGENT.OBJECTS.SCADA.Benito_Juarez.Cuencas.Cuenca_CAR_LOX.Carcamo_Lombardo"/>
 </svg>
 <svg atv:refpx="634.18" atv:refpy="100.051" height="63.11" id="id_15" transform="matrix(0.7519,0,0,0.7289,0,0)" width="133" x="729.069" xlink:href="ObjectTypes.PROJECT.ElementoLineaAR.Principal" y="105.71">
  <atv:argument name="base" value="AGENT.OBJECTS.SCADA.Benito_Juarez.Cuencas.Cuenca_CAR_LOX.Carcamo_Morelos_I"/>
 </svg>
 <svg atv:refpx="598.183" atv:refpy="177.801" height="63.11" id="id_17" transform="matrix(0.7519,0,0,0.7289,0,0)" width="133" x="729.069" xlink:href="ObjectTypes.PROJECT.ElementoLineaAR.Principal" y="212.377">
  <atv:argument name="base" value="AGENT.OBJECTS.SCADA.Benito_Juarez.Cuencas.Cuenca_CAR_LOX.Carcamo_Morelos_II"/>
 </svg>
 <svg atv:refpx="310.927" atv:refpy="298.053" height="63.11" id="id_20" transform="matrix(0.7519,0,0,0.7289,0,0)" width="133" x="348.367" xlink:href="ObjectTypes.PROJECT.ElementoLineaAR.Principal" y="377.359">
  <atv:argument name="base" value="AGENT.OBJECTS.SCADA.Benito_Juarez.Cuencas.Cuenca_CAR_LOX.Carcamo_Plaza_de_Toros"/>
 </svg>
 <svg atv:refpx="49.987" atv:refpy="100.045" height="63.11" id="id_22" transform="matrix(0.7519,0,0,0.7289,0,0)" width="133" x="0" xlink:href="ObjectTypes.PROJECT.ElementoLineaAR.Principal" y="105.71">
  <atv:argument name="base" value="AGENT.OBJECTS.SCADA.Benito_Juarez.Cuencas.Cuenca_CAR_LOX.Carcamo_Plaza_Las_Americas"/>
 </svg>
 <svg atv:refpx="180.75" atv:refpy="22.495" height="63.11" id="id_25" transform="matrix(0.7519,0,0,0.7289,0,0)" width="133" x="173.893" xlink:href="ObjectTypes.PROJECT.ElementoLineaAR.Principal" y="-0.686">
  <atv:argument name="base" value="AGENT.OBJECTS.SCADA.Benito_Juarez.Cuencas.Cuenca_CAR_LOX.Carcamo_Tikal"/>
 </svg>
 <polygon atv:refpx="310.626" atv:refpy="504.56" fill="#000018" id="id_60" points="170.751,214.248 190.751,214.248 180.751,201.058 180.751,201.058" stroke="#000000" stroke-linecap="round" stroke-linejoin="round" stroke-opacity="0" stroke-width="2.015"/>
 <svg atv:refpx="310.927" atv:refpy="224.05" height="63.11" id="id_4" transform="matrix(0.7519,0,0,0.7289,0,0)" width="133" x="348.367" xlink:href="ObjectTypes.PROJECT.ElementoLineaAR.Principal" y="275.829">
  <atv:argument name="base" value="AGENT.OBJECTS.SCADA.Benito_Juarez.Cuencas.Cuenca_CAR_LOX.Carcamo_Plaza_Bonita_Infonavit"/>
 </svg>
 <svg atv:refpx="310.927" atv:refpy="177.8" height="63.11" id="id_19" transform="matrix(0.7519,0,0,0.7289,0,0)" width="133" x="348.367" xlink:href="ObjectTypes.PROJECT.ElementoLineaAR.Principal" y="212.377">
  <atv:argument name="base" value="AGENT.OBJECTS.SCADA.Benito_Juarez.Cuencas.Cuenca_CAR_LOX.Carcamo_Plaza_Bonita"/>
 </svg>
 <svg atv:refpx="180.737" atv:refpy="177.799" height="63.11" id="id_6" transform="matrix(0.7519,0,0,0.7289,0,0)" width="133" x="173.893" xlink:href="ObjectTypes.PROJECT.ElementoLineaAR.Principal" y="212.377">
  <atv:argument name="base" value="AGENT.OBJECTS.SCADA.Benito_Juarez.Cuencas.Cuenca_CAR_LOX.Carcamo_Bonampak"/>
 </svg>
 <g atv:refpx="50.001" atv:refpy="61.566" id="id_36" transform="matrix(0,1,-1,0,342.0014,-63.934)">
  <line atv:refpx="123" atv:refpy="292.5" fill="#000000" fill-opacity="0.964706" id="id_37" stroke="#000000" stroke-linecap="round" stroke-linejoin="round" stroke-width="2" x1="111" x2="135" y1="292" y2="292"/>
  <polygon atv:refpx="134.5" atv:refpy="292" fill="#000018" fill-opacity="0.964706" id="id_38" points="128,282 128,302 141,292 141,292" stroke="#000000" stroke-linecap="round" stroke-linejoin="round" stroke-opacity="0" stroke-width="2"/>
 </g>
 <polygon atv:refpx="434.387" atv:refpy="114" fill="#000018" fill-opacity="0.964706" id="id_109" points="444.386,107.5 424.386,107.5 434.386,120.5 434.386,120.5" stroke="#000000" stroke-linecap="round" stroke-linejoin="round" stroke-opacity="0" stroke-width="2"/>
 <polygon atv:refpx="442.354" atv:refpy="142.052" fill="#000018" fill-opacity="0.964706" id="id_117" points="432.352,171.552 452.352,171.552 442.352,158.552 442.352,158.552" stroke="#000000" stroke-linecap="round" stroke-linejoin="round" stroke-opacity="0" stroke-width="2"/>
 <polygon atv:refpx="469.02" atv:refpy="142.052" fill="#000018" fill-opacity="0.964706" id="id_118" points="459.019,171.552 479.019,171.552 469.019,158.552 469.019,158.552" stroke="#000000" stroke-linecap="round" stroke-linejoin="round" stroke-opacity="0" stroke-width="2"/>
 <polygon atv:refpx="495.687" atv:refpy="142.052" fill="#000018" fill-opacity="0.964706" id="id_119" points="485.685,171.552 505.685,171.552 495.685,158.552 495.685,158.552" stroke="#000000" stroke-linecap="round" stroke-linejoin="round" stroke-opacity="0" stroke-width="2"/>
 <line atv:refpx="442.854" atv:refpy="231.526" id="id_120" stroke="#000000" stroke-linecap="round" stroke-linejoin="round" stroke-width="2" x1="442.354" x2="442.354" y1="165" y2="298.052"/>
 <line atv:refpx="469.52" atv:refpy="199.526" id="id_121" stroke="#000000" stroke-linecap="round" stroke-linejoin="round" stroke-width="2" x1="469.02" x2="469.02" y1="162" y2="237.052"/>
 <line atv:refpx="496.187" atv:refpy="172.526" id="id_122" stroke="#000000" stroke-linecap="round" stroke-linejoin="round" stroke-width="2" x1="495.687" x2="495.687" y1="167" y2="178.052"/>
 <line atv:refpx="416.187" atv:refpy="170.526" id="id_123" stroke="#000000" stroke-linecap="round" stroke-linejoin="round" stroke-width="2" x1="415.687" x2="415.687" y1="163" y2="178.052"/>
 <line atv:refpx="49.501" atv:refpy="748.659" fill="#000000" id="id_0" stroke="#000000" stroke-linecap="round" stroke-linejoin="round" stroke-width="2.015" x1="50.001" x2="50.001" y1="277.083" y2="211.066"/>
 <polygon atv:refpx="179.876" atv:refpy="504.56" fill="#000018" id="id_16" points="40.001,214.248 60.001,214.248 50.001,201.059 50.001,201.059" stroke="#000000" stroke-linecap="round" stroke-linejoin="round" stroke-opacity="0" stroke-width="2.015"/>
 <polygon atv:refpx="411.483" atv:refpy="114" fill="#000018" fill-opacity="0.964706" id="id_18" points="421.483,107.5 401.483,107.5 411.483,120.5 411.483,120.5" stroke="#000000" stroke-linecap="round" stroke-linejoin="round" stroke-opacity="0" stroke-width="2"/>
 <line atv:refpx="432.5" atv:refpy="92" id="id_21" stroke="#000000" stroke-linecap="round" stroke-linejoin="round" stroke-width="2" x1="432" x2="432" y1="109" y2="75"/>
 <line atv:refpx="483.5" atv:refpy="92" id="id_23" stroke="#000000" stroke-linecap="round" stroke-linejoin="round" stroke-width="2" x1="483" x2="483" y1="109" y2="75"/>
 <line atv:refpx="412.08" atv:refpy="104" id="id_24" stroke="#000000" stroke-linecap="round" stroke-linejoin="round" stroke-width="2" x1="411.58" x2="411.58" y1="100" y2="108"/>
 <line atv:refpx="494.597" atv:refpy="105" id="id_26" stroke="#000000" stroke-linecap="round" stroke-linejoin="round" stroke-width="2" x1="508.097" x2="508.097" y1="100" y2="110"/>
 <svg atv:refpx="457.48" atv:refpy="22.495" height="63.11" id="id_28" transform="matrix(0.7519,0,0,0.7289,0,0)" width="133" x="541.939" xlink:href="ObjectTypes.PROJECT.ElementoLineaAR.Principal" y="-0.686">
  <atv:argument name="base" value="AGENT.OBJECTS.SCADA.Benito_Juarez.Cuencas.Cuenca_CAR_NTE.Carcamo_6_NH_Reg_91"/>
 </svg>
 <line atv:refpx="381.5" atv:refpy="49" id="id_29" stroke="#000000" stroke-linecap="round" stroke-linejoin="round" stroke-width="2" x1="381" x2="381" y1="23" y2="75"/>
 <line atv:refpx="527.5" atv:refpy="49" id="id_30" stroke="#000000" stroke-linecap="round" stroke-linejoin="round" stroke-width="2" x1="527" x2="527" y1="23" y2="75"/>
 <line atv:refpx="406.5" atv:refpy="75.5" id="id_31" stroke="#000000" stroke-linecap="round" stroke-linejoin="round" stroke-width="2" x1="381" x2="432" y1="75" y2="75"/>
 <line atv:refpx="505.5" atv:refpy="75.5" id="id_32" stroke="#000000" stroke-linecap="round" stroke-linejoin="round" stroke-width="2" x1="483" x2="528" y1="75" y2="75"/>
</svg>
