<?xml version='1.0' encoding='UTF-8' standalone='no'?>
<svg height="51.479999999999997" version="1.2" width="767.13" xmlns="http://www.w3.org/2000/svg" xmlns:atv="http://webmi.atvise.com/2007/svgext" xmlns:xlink="http://www.w3.org/1999/xlink">
 <defs/>
 <desc>Optional time range selector for the chart.</desc>
 <title>Time Range Selector</title>
 <metadata>
  <atv:parameter behavior="mandatory" defaultvalue="trend1" desc="chart name" name="chartname" valuetype="string"/>
  <atv:parameter behavior="optional" defaultvalue="0" desc="x-axis index" name="xAxisIndex" valuetype="string"/>
  <atv:parameter behavior="optional" defaultvalue="SYSTEM.GLOBALS.atvFontColor" desc="font color" name="fontColor" substitute="$FONTCOLOR$" valuetype="global"/>
  <atv:parameter behavior="optional" defaultvalue="SYSTEM.GLOBALS.atvBorderColor" desc="border color" name="borderColor" substitute="$BORDERCOLOR$" valuetype="global"/>
  <atv:parameter behavior="optional" defaultvalue="SYSTEM.LIBRARY.ATVISE.OBJECTDISPLAYS.Advanced.dialogs.message_dialog_small" desc="small message dialog display" name="message_dialog_small" valuetype="display"/>
  <atv:gridconfig enabled="false" gridstyle="lines" height="20" width="20"/>
  <atv:snapconfig enabled="false" height="10" width="10"/>
 </metadata>
 <g atv:refpx="175" atv:refpy="25" id="timeStartContainer" transform="matrix(1.6667,0,0,1.6667,0,0)">
  <rect atv:bindbr="1,1" atv:bindtl="0,0" atv:refpx="105" atv:refpy="16" fill="$BORDERCOLOR$" height="30" id="id_2" rx="3.938" ry="3" stroke-width="1" width="210" x="0" y="0"/>
  <text atv:refpx="82.313" atv:refpy="1164.457" fill="$FONTCOLOR$" font-family="Arial" font-size="12" id="id_17" x="5" y="20">T{From}</text>
  <svg atv:refpx="292.971" atv:refpy="1161.926" height="30" id="dp_start" width="160" x="50" xlink:href="SYSTEM.LIBRARY.ATVISE.OBJECTDISPLAYS.Advanced.picker_date" y="0">
   <atv:argument name="base"/>
   <atv:argument name="name" postfix="chartname" value="starttime"/>
   <atv:argument name="tooltip" value="T{From}"/>
   <atv:argument name="tabIndex" value="21"/>
  </svg>
 </g>
 <g atv:refpx="532.35" atv:refpy="25.735" id="timeEndContainer" transform="matrix(1.6667,0,0,1.6667,-0.9833,0.7354)">
  <rect atv:bindbr="1,1" atv:bindtl="0,0" atv:refpx="320" atv:refpy="16" fill="$BORDERCOLOR$" height="30" id="id_0" rx="3.938" ry="3" stroke-width="1" width="210" x="215" y="0"/>
  <text atv:refpx="440.94" atv:refpy="1163.457" fill="$FONTCOLOR$" font-family="Arial" font-size="12" id="labelUntil" x="220" y="20">T{Until}</text>
  <svg atv:refpx="736.971" atv:refpy="1161.926" height="30" id="dp_end" width="160" x="265" xlink:href="SYSTEM.LIBRARY.ATVISE.OBJECTDISPLAYS.Advanced.picker_date" y="0">
   <atv:argument name="base"/>
   <atv:argument name="name" postfix="chartname" value="endtime"/>
   <atv:argument name="tooltip" value="T{To}"/>
   <atv:argument name="tabIndex" value="26"/>
  </svg>
 </g>
 <svg atv:refpx="761.127" atv:refpy="25.735" height="30" id="cmd_apply_note" transform="matrix(0.625,0,0,1.6667,0,0)" width="80" x="1147.404" xlink:href="SYSTEM.LIBRARY.ATVISE.OBJECTDISPLAYS.Advanced.button" y="0.441">
  <atv:argument name="visibilityLabel" value="hidden"/>
  <atv:argument name="visibilitySymbol" value="inherit"/>
  <atv:argument name="fillColor" value="SYSTEM.GLOBALS.atvFillColor2"/>
  <atv:argument name="symbolColor" value="SYSTEM.GLOBALS.atvAccent1"/>
  <atv:argument name="tooltip" value="T{Apply}"/>
  <atv:overwrite height="48.001" id="id_6" transform="matrix(1.6,0,0,0.6,0,0)" width="48"/>
  <atv:overwrite id="button_label_2" transform="matrix(1.6,0,0,0.6,0,0)" x="25" y="36.501"/>
  <atv:overwrite id="button_label_1" transform="matrix(1.6,0,0,0.6,0,0)" x="25" y="21.501"/>
  <atv:overwrite id="button_label" transform="matrix(1.6,0,0,0.6,0,0)" x="25" y="29.501"/>
  <atv:overwrite id="button_symbol_bottom" transform="matrix(0.96,0,0,0.36,0,0)" x="31.5" y="42.96"/>
  <atv:overwrite id="button_symbol_top" transform="matrix(0.96,0,0,0.36,0,0)" x="31.5" y="21.627"/>
  <atv:overwrite id="button_symbol" transform="matrix(1.6,0,0,0.6,0,0)" x="15" y="15.001"/>
  <atv:overwrite height="46.001" id="button_stroke" transform="matrix(1.6,0,0,0.6,0,0)" width="46"/>
  <atv:overwrite height="48.001" id="button_bg" transform="matrix(1.6,0,0,0.6,0,0)" width="48"/>
  <atv:overwrite height="50.001" id="outer_frame" transform="matrix(1.6,0,0,0.6,0,0)" width="50"/>
 </svg>
 <svg atv:refpx="761.127" atv:refpy="25.735" height="30" id="cmd_apply" transform="matrix(0.625,0,0,1.6667,0,0)" width="80" x="1147.404" xlink:href="SYSTEM.LIBRARY.ATVISE.OBJECTDISPLAYS.Advanced.button" y="0.441">
  <atv:argument name="visibilityLabel" value="hidden"/>
  <atv:argument name="visibilitySymbol" value="inherit"/>
  <atv:argument name="tooltip" value="T{Apply}"/>
  <atv:argument name="tabIndex" value="30"/>
  <atv:overwrite height="48.001" id="id_6" transform="matrix(1.6,0,0,0.6,0,0)" width="48"/>
  <atv:overwrite id="button_label_2" transform="matrix(1.6,0,0,0.6,0,0)" x="25" y="36.501"/>
  <atv:overwrite id="button_label_1" transform="matrix(1.6,0,0,0.6,0,0)" x="25" y="21.501"/>
  <atv:overwrite id="button_label" transform="matrix(1.6,0,0,0.6,0,0)" x="25" y="29.501"/>
  <atv:overwrite id="button_symbol_bottom" transform="matrix(0.96,0,0,0.36,0,0)" x="31.5" y="42.96"/>
  <atv:overwrite id="button_symbol_top" transform="matrix(0.96,0,0,0.36,0,0)" x="31.5" y="21.627"/>
  <atv:overwrite id="button_symbol" transform="matrix(1.6,0,0,0.6,0,0)" x="15" y="15.001"/>
  <atv:overwrite height="46.001" id="button_stroke" transform="matrix(1.6,0,0,0.6,0,0)" width="46"/>
  <atv:overwrite height="48.001" id="button_bg" transform="matrix(1.6,0,0,0.6,0,0)" width="48"/>
  <atv:overwrite height="50.001" id="outer_frame" transform="matrix(1.6,0,0,0.6,0,0)" width="50"/>
 </svg>
 <script atv:desc="" atv:href="SYSTEM.LIBRARY.ATVISE.DISPLAYSCRIPTS.highcharts.buttons_start_end_time" atv:name="buttons_start_end_time" atv:type="text/ecmascript"/>
 <script atv:desc="" atv:name="" type="text/ecmascript"/>
 <g atv:refpx="174.983" atv:refpy="26.048" id="timeSpanContainer" transform="matrix(1,0,0,1,7.9066,188.6293)">
  <rect atv:bindbr="1,1" atv:bindtl="0,0" atv:refpx="50.193" atv:refpy="-66.853" fill="$BORDERCOLOR$" height="50.001" id="id_4" rx="6.566" ry="5" stroke-width="1.658" width="349.965" x="-4.518" y="-187.146"/>
  <text atv:refpx="0.739" atv:refpy="-163.571" fill="$FONTCOLOR$" font-family="Arial" font-size="12" id="id_8" text-anchor="start" transform="matrix(1.651,0,0,1.6667,7.3532,121.8317)" x="-7.295" y="-166.738">T{Period}</text>
  <svg atv:refpx="157.016" atv:refpy="-112.527" height="30" id="xAxis_timeSpanUnit" transform="matrix(1.0937,0,0,1.6667,0,0)" width="160" x="154.922" xlink:href="SYSTEM.LIBRARY.ATVISE.OBJECTDISPLAYS.Advanced.combobox" y="-112.808">
   <atv:argument name="fontFamily" value="MS Trebuchet,ITC Avant Garde Gothic,MS Arial,MS Verdana,Univers,Futura,ITC Stone Sans,Gill Sans,Akzidenz Grotesk,Helvetica,sans-serif"/>
   <atv:argument name="tabIndex" value="23"/>
   <atv:argument name="tooltip" value="T{Period}"/>
   <atv:overwrite id="id_3" transform="matrix(1.4954,0,0,1,0,0)" x="81.742"/>
   <atv:overwrite id="id_5" x="79.492"/>
   <atv:overwrite id="id_2"/>
   <atv:overwrite id="combobox_stroke" transform="matrix(1.4954,0,0,1,0,0)" width="106.492"/>
   <atv:argument name="fontSize" value="20"/>
   <atv:overwrite height="46.001" id="focus_frame" transform="matrix(0.9143,0,0,0.6,0,0)" width="170.992"/>
   <atv:overwrite id="button_stroke" transform="matrix(0.9143,0,0,0.6,0,0)" x="149.992" y="15.001"/>
   <atv:overwrite id="id_7" transform="matrix(0.9143,0,0,0.6,0,0)" x="149.992" y="16.001"/>
   <atv:overwrite id="button_bg" transform="matrix(0.9143,0,0,0.6,0,0)" x="149.992" y="15.001"/>
   <atv:overwrite id="combobox_label" transform="matrix(0.9143,0,0,0.6,0,0)" x="140.492" y="29.501"/>
   <atv:overwrite height="42.001" id="blinking_frame" transform="matrix(0.9143,0,0,0.6,0,0)" width="142.992"/>
   <atv:overwrite height="42.001" id="combobox_bg" transform="matrix(0.9143,0,0,0.6,0,0)" width="142.992"/>
   <atv:overwrite height="48.001" id="id_1" transform="matrix(0.9143,0,0,0.6,0,0)" width="172.992"/>
   <atv:overwrite height="50.001" id="id_0" transform="matrix(0.9143,0,0,0.6,0,0)" width="174.992"/>
  </svg>
  <svg atv:refpx="65.985" atv:refpy="-136.5" height="30" id="xAxis_timeSpan" transform="matrix(0.6249,0,0,1.6667,0,0)" width="160" x="124.445" xlink:href="SYSTEM.LIBRARY.ATVISE.OBJECTDISPLAYS.Advanced.picker_value" y="-112.808">
   <atv:argument name="tabIndex" value="22"/>
   <atv:argument name="min" value="1"/>
   <atv:argument name="tooltip" value="T{Time}"/>
   <atv:overwrite id="id_2" transform="matrix(2.7119,0,0,1,0,0)" width="59"/>
   <atv:argument name="fontSize" value="20"/>
   <atv:overwrite height="46.001" id="focus_frame" transform="matrix(1.6003,0,0,0.6,0,0)" width="95.984"/>
   <atv:overwrite id="clickarea_dec" transform="matrix(1.6003,0,0,0.6,-96.041,6.0002)"/>
   <atv:overwrite id="clickarea_inc" transform="matrix(1.6003,0,0,0.6,-96.041,6.0002)"/>
   <atv:overwrite id="input_label" transform="matrix(1.6003,0,0,0.6,0,0)" x="65.484" y="30.251"/>
   <atv:overwrite height="42.001" id="blinking_frame" transform="matrix(1.6003,0,0,0.6,0,0)" width="67.984"/>
   <atv:overwrite height="42.001" id="input_bg" transform="matrix(1.6003,0,0,0.6,0,0)" width="67.984"/>
   <atv:overwrite height="48.001" id="id_0" transform="matrix(1.6003,0,0,0.6,0,0)" width="97.984"/>
   <atv:overwrite height="50.001" id="bg" transform="matrix(1.6003,0,0,0.6,0,0)" width="99.984"/>
  </svg>
 </g>
</svg>
