<?xml version='1.0' encoding='UTF-8' standalone='no'?>
<svg height="127.75" version="1.2" width="605.5" xmlns="http://www.w3.org/2000/svg" xmlns:atv="http://webmi.atvise.com/2007/svgext" xmlns:xlink="http://www.w3.org/1999/xlink">
 <defs/>
 <metadata>
  <atv:gridconfig enabled="true" gridstyle="lines" height="20" width="20"/>
  <atv:snapconfig enabled="true" height="1" width="1"/>
 </metadata>
 <g atv:insensitive="true" atv:refpx="0" atv:refpy="0" id="id_11" transform="matrix(0.473,0,0,0.1664,0,0)">
  <rect atv:refpx="640" atv:refpy="384" fill="#ffffff" height="768.00" id="id_12" width="1280.00" x="0" y="0"/>
 </g>
 <script atv:desc="" atv:name="" type="text/ecmascript"/>
 <line atv:refpx="445.001" atv:refpy="73.75" id="id_15" stroke="#000000" stroke-linecap="round" stroke-linejoin="round" stroke-width="2" x1="444.501" x2="444.501" y1="65.5" y2="82"/>
 <polygon atv:refpx="447.501" atv:refpy="60" fill="#000018" id="id_0" points="434.501,66.5 454.501,66.5 444.501,53.5 444.501,53.5" stroke="#000000" stroke-linecap="round" stroke-linejoin="round" stroke-opacity="0" stroke-width="2"/>
 <g atv:refpx="379.5" atv:refpy="30.5" id="id_1" transform="matrix(1,0,0,1,254,-261.5)">
  <line atv:refpx="123" atv:refpy="292.5" fill="#000000" fill-opacity="0.964706" id="id_13" stroke="#000000" stroke-linecap="round" stroke-linejoin="round" stroke-width="2" x1="111" x2="135" y1="292" y2="292"/>
  <polygon atv:refpx="134.5" atv:refpy="292" fill="#000018" fill-opacity="0.964706" id="id_14" points="128,282 128,302 141,292 141,292" stroke="#000000" stroke-linecap="round" stroke-linejoin="round" stroke-opacity="0" stroke-width="2"/>
 </g>
 <g atv:refpx="509.5" atv:refpy="30.5" id="id_16" transform="matrix(1,0,0,1,380,-261.5)">
  <line atv:refpx="123" atv:refpy="292.5" fill="#000000" fill-opacity="0.964706" id="id_17" stroke="#000000" stroke-linecap="round" stroke-linejoin="round" stroke-width="2" x1="111" x2="135" y1="292" y2="292"/>
  <polygon atv:refpx="134.5" atv:refpy="292" fill="#000018" fill-opacity="0.964706" id="id_18" points="128,282 128,302 141,292 141,292" stroke="#000000" stroke-linecap="round" stroke-linejoin="round" stroke-opacity="0" stroke-width="2"/>
 </g>
 <rect atv:refpx="567.934" atv:refpy="33.5" fill="#000088" fill-opacity="0" height="60" id="id_58" rx="0" ry="0" stroke="#000072" stroke-width="1" width="80" x="521" y="3.5"/>
 <text atv:refpx="560.697" atv:refpy="33.498" fill="#000018" font-family="Arial" font-size="18" font-weight="bold" id="id_106" transform="matrix(0.612,0,0,0.6329,205.9139,8.8128)" x="534.706" y="45.507">PTAR SUR</text>
 <g atv:refpx="116.5" atv:refpy="30.5" id="id_48" transform="matrix(1,0,0,1,-4.0002,-261.5)">
  <line atv:refpx="123" atv:refpy="292.5" fill="#000000" fill-opacity="0.964706" id="id_46" stroke="#000000" stroke-linecap="round" stroke-linejoin="round" stroke-width="2" x1="111" x2="135" y1="292" y2="292"/>
  <polygon atv:refpx="134.5" atv:refpy="292" fill="#000018" fill-opacity="0.964706" id="id_47" points="128,282 128,302 141,292 141,292" stroke="#000000" stroke-linecap="round" stroke-linejoin="round" stroke-opacity="0" stroke-width="2"/>
 </g>
 <svg atv:refpx="50" atv:refpy="30.494" height="63.11" id="id_2" transform="matrix(0.7519,0,0,0.7289,0,0)" width="133" x="6.65" xlink:href="ObjectTypes.PROJECT.ElementoLineaAR.Principal" y="10.289">
  <atv:argument name="base" value="AGENT.OBJECTS.SCADA.Benito_Juarez.Cuencas.Cuenca_CAR_SUR.Carcamo_Andalucia"/>
 </svg>
 <svg atv:refpx="444.488" atv:refpy="30.496" height="63.11" id="id_3" transform="matrix(0.7519,0,0,0.7289,0,0)" width="133" x="524.671" xlink:href="ObjectTypes.PROJECT.ElementoLineaAR.Principal" y="10.289">
  <atv:argument name="base" value="AGENT.OBJECTS.SCADA.Benito_Juarez.Cuencas.Cuenca_CAR_SUR.Carcamo_Final_Sur_PTAR_SUR"/>
 </svg>
 <svg atv:refpx="316.987" atv:refpy="144.749" height="63.11" id="id_4" transform="matrix(0.7519,0,0,0.7289,0,0)" width="133" x="355.105" xlink:href="ObjectTypes.PROJECT.ElementoLineaAR.Principal" y="109.411">
  <atv:argument name="base" value="AGENT.OBJECTS.SCADA.Benito_Juarez.Cuencas.Cuenca_CAR_SUR.Carcamo_Islazul"/>
 </svg>
 <svg atv:refpx="190" atv:refpy="30.494" height="63.11" id="id_5" transform="matrix(0.7519,0,0,0.7289,0,0)" width="133" x="182.21" xlink:href="ObjectTypes.PROJECT.ElementoLineaAR.Principal" y="10.289">
  <atv:argument name="base" value="AGENT.OBJECTS.SCADA.Benito_Juarez.Cuencas.Cuenca_CAR_SUR.Carcamo_Santa_Fe_Plus"/>
 </svg>
 <svg atv:refpx="444.484" atv:refpy="142.746" height="63.11" id="id_6" transform="matrix(0.7519,0,0,0.7289,0,0)" width="133" x="524.671" xlink:href="ObjectTypes.PROJECT.ElementoLineaAR.Principal" y="109.411">
  <atv:argument name="base" value="AGENT.OBJECTS.SCADA.Benito_Juarez.Cuencas.Cuenca_CAR_SUR.Carcamo_Tajamar"/>
 </svg>
 <svg atv:refpx="332.996" atv:refpy="30.494" height="63.11" id="id_7" transform="matrix(0.7519,0,0,0.7289,0,0)" width="133" x="355.105" xlink:href="ObjectTypes.PROJECT.ElementoLineaAR.Principal" y="10.289">
  <atv:argument name="base" value="AGENT.OBJECTS.SCADA.Benito_Juarez.Cuencas.Cuenca_CAR_SUR.Carcamo_Poligono_7"/>
 </svg>
 <g atv:refpx="248.5" atv:refpy="30.5" id="id_8" transform="matrix(1,0,0,1,126.9998,-261.5)">
  <line atv:refpx="123" atv:refpy="292.5" fill="#000000" fill-opacity="0.964706" id="id_9" stroke="#000000" stroke-linecap="round" stroke-linejoin="round" stroke-width="2" x1="111" x2="135" y1="292" y2="292"/>
  <polygon atv:refpx="134.5" atv:refpy="292" fill="#000018" fill-opacity="0.964706" id="id_10" points="128,282 128,302 141,292 141,292" stroke="#000000" stroke-linecap="round" stroke-linejoin="round" stroke-opacity="0" stroke-width="2"/>
 </g>
</svg>
