<?xml version='1.0' encoding='UTF-8' standalone='no'?>
<svg height="20" version="1.2" width="186" xmlns="http://www.w3.org/2000/svg" xmlns:atv="http://webmi.atvise.com/2007/svgext" xmlns:xlink="http://www.w3.org/1999/xlink">
 <defs/>
 <metadata>
  <atv:gridconfig enabled="true" gridstyle="lines" height="20" width="20"/>
  <atv:snapconfig enabled="true" height="2" width="2"/>
 </metadata>
 <script atv:desc="" atv:name="" type="text/ecmascript"/>
 <svg atv:refpx="31" atv:refpy="10" height="30" id="id_3" transform="matrix(0.775,0,0,0.6667,0,0)" width="80" x="0" xlink:href="SYSTEM.LIBRARY.ATVISE.OBJECTDISPLAYS.Advanced.button_switch" y="0">
  <atv:argument name="base" prefix="base" value=".status"/>
  <atv:argument name="fontSize" value="10"/>
  <atv:argument name="outputNode" prefix="base" value=".run_stop"/>
  <atv:argument name="fillOn" value="SYSTEM.GLOBALS.Colors.Verde"/>
  <atv:argument name="borderColor" value="SYSTEM.GLOBALS.Colors.Negro"/>
  <atv:overwrite height="18" id="id_6" transform="matrix(1.2903,0,0,1.5,0,0)" width="60"/>
  <atv:overwrite id="button_label" transform="matrix(1.2903,0,0,1.5,0,0)" x="31" y="14.5"/>
  <atv:overwrite id="button_symbol_off" transform="matrix(1.2903,0,0,1.5,0,0)" x="21" y="0"/>
  <atv:overwrite id="button_symbol_on" transform="matrix(1.2903,0,0,1.5,0,0)" x="21" y="0"/>
  <atv:overwrite height="16" id="blinking_frame" transform="matrix(1.2903,0,0,1.5,0,0)" width="58"/>
  <atv:overwrite height="16" id="button_stroke" transform="matrix(1.2903,0,0,1.5,0,0)" width="58"/>
  <atv:overwrite height="18" id="button_bg" transform="matrix(1.2903,0,0,1.5,0,0)" width="60"/>
  <atv:overwrite height="20" id="outer_frame" transform="matrix(1.2903,0,0,1.5,0,0)" width="62"/>
 </svg>
 <svg atv:refpx="93" atv:refpy="10" height="30" id="id_4" transform="matrix(0.775,0,0,0.6667,0,0)" width="80" x="80" xlink:href="SYSTEM.LIBRARY.ATVISE.OBJECTDISPLAYS.Advanced.button_switch" y="0">
  <atv:argument name="base" prefix="base" value=".man_auto"/>
  <atv:argument name="fontSize" value="10"/>
  <atv:argument name="fillOn" value="SYSTEM.GLOBALS.Colors.Verde"/>
  <atv:argument name="borderColor" value="SYSTEM.GLOBALS.Colors.Negro"/>
  <atv:argument name="labelOn" value="T{Automático}"/>
  <atv:argument name="labelOff" value="T{Manual}"/>
  <atv:overwrite height="18.001" id="id_6" transform="matrix(1.2903,0,0,1.4999,0,0)" width="60"/>
  <atv:overwrite id="button_label" transform="matrix(1.2903,0,0,1.4999,0,0)" x="31" y="14.5"/>
  <atv:overwrite id="button_symbol_off" transform="matrix(1.2903,0,0,1.4999,0,0)" x="21" y="0"/>
  <atv:overwrite id="button_symbol_on" transform="matrix(1.2903,0,0,1.4999,0,0)" x="21" y="0"/>
  <atv:overwrite height="16.001" id="blinking_frame" transform="matrix(1.2903,0,0,1.4999,0,0)" width="58"/>
  <atv:overwrite height="16.001" id="button_stroke" transform="matrix(1.2903,0,0,1.4999,0,0)" width="58"/>
  <atv:overwrite height="18.001" id="button_bg" transform="matrix(1.2903,0,0,1.4999,0,0)" width="60"/>
  <atv:overwrite height="20.001" id="outer_frame" transform="matrix(1.2903,0,0,1.4999,0,0)" width="62"/>
 </svg>
 <svg atv:refpx="155" atv:refpy="10" height="30" id="id_5" transform="matrix(0.775,0,0,0.6667,0,0)" width="80" x="160" xlink:href="SYSTEM.LIBRARY.ATVISE.OBJECTDISPLAYS.Advanced.button_switch" y="0">
  <atv:argument name="base" prefix="base" value=".loc_rem"/>
  <atv:argument name="fontSize" value="10"/>
  <atv:argument name="fillOn" value="SYSTEM.GLOBALS.Colors.Verde"/>
  <atv:argument name="borderColor" value="SYSTEM.GLOBALS.Colors.Negro"/>
  <atv:argument name="labelOn" value="T{Remoto}"/>
  <atv:argument name="labelOff" value="T{Local}"/>
  <atv:overwrite height="18.001" id="id_6" transform="matrix(1.2903,0,0,1.4999,0,0)" width="60"/>
  <atv:overwrite id="button_label" transform="matrix(1.2903,0,0,1.4999,0,0)" x="31" y="14.5"/>
  <atv:overwrite id="button_symbol_off" transform="matrix(1.2903,0,0,1.4999,0,0)" x="21" y="0"/>
  <atv:overwrite id="button_symbol_on" transform="matrix(1.2903,0,0,1.4999,0,0)" x="21" y="0"/>
  <atv:overwrite height="16.001" id="blinking_frame" transform="matrix(1.2903,0,0,1.4999,0,0)" width="58"/>
  <atv:overwrite height="16.001" id="button_stroke" transform="matrix(1.2903,0,0,1.4999,0,0)" width="58"/>
  <atv:overwrite height="18.001" id="button_bg" transform="matrix(1.2903,0,0,1.4999,0,0)" width="60"/>
  <atv:overwrite height="20.001" id="outer_frame" transform="matrix(1.2903,0,0,1.4999,0,0)" width="62"/>
 </svg>
</svg>
