<?xml version='1.0' encoding='UTF-8' standalone='no'?>
<svg height="420.00999999999999" version="1.2" width="607.00999999999999" xmlns="http://www.w3.org/2000/svg" xmlns:atv="http://webmi.atvise.com/2007/svgext" xmlns:xlink="http://www.w3.org/1999/xlink">
 <defs/>
 <metadata>
  <atv:gridconfig enabled="false" gridstyle="lines" height="20" width="20"/>
  <atv:snapconfig enabled="true" height="1" width="1"/>
 </metadata>
 <g atv:insensitive="true" atv:refpx="0" atv:refpy="0" id="id_11" transform="matrix(0.4742,0,0,0.5469,0,0)">
  <rect atv:refpx="640" atv:refpy="384" fill="#ffffff" height="768.00" id="id_12" width="1280.00" x="0" y="0"/>
 </g>
 <line atv:refpx="495" atv:refpy="84.501" fill="#000000" id="id_45" stroke="#000000" stroke-linecap="round" stroke-linejoin="round" stroke-width="2" x1="490" x2="500" y1="84.001" y2="84.001"/>
 <line atv:refpx="362.5" atv:refpy="390.507" fill="#000000" id="id_88" stroke="#000000" stroke-linecap="round" stroke-linejoin="round" stroke-width="2" x1="338.5" x2="386.5" y1="397.007" y2="397.007"/>
 <line atv:refpx="556.509" atv:refpy="258.595" fill="#000000" id="id_17" stroke="#000000" stroke-linecap="round" stroke-linejoin="round" stroke-width="2" x1="557.009" x2="557.009" y1="227" y2="290.192"/>
 <polygon atv:refpx="590" atv:refpy="290.596" fill="#000018" id="id_18" points="567.009,290.002 547.009,290.002 557.009,303.192 557.009,303.192" stroke="#000000" stroke-linecap="round" stroke-linejoin="round" stroke-opacity="0" stroke-width="2.015"/>
 <polygon atv:refpx="170.003" atv:refpy="64.5955" fill="#000018" id="id_35" points="180.002,60.191 160.002,60.191 170.002,47 170.002,47" stroke="#000000" stroke-linecap="round" stroke-linejoin="round" stroke-opacity="0" stroke-width="2.015"/>
 <polygon atv:refpx="50.001" atv:refpy="101.596" fill="#000018" id="id_86" points="60.001,107 40.001,107 50.001,120.191 50.001,120.191" stroke="#000000" stroke-linecap="round" stroke-linejoin="round" stroke-opacity="0" stroke-width="2.015"/>
 <g atv:refpx="100" atv:refpy="390.007" id="id_14" transform="matrix(1,0,0,1,0.5,14.0073)">
  <line atv:refpx="432.5" atv:refpy="205.406" fill="#000000" id="id_75" stroke="#000000" stroke-linecap="round" stroke-linejoin="round" stroke-width="2" x1="79.5" x2="117.5" y1="383" y2="383"/>
  <polygon atv:refpx="525" atv:refpy="197.596" fill="#000018" id="id_76" points="107.309,373 107.309,393 120.5,383 120.5,383" stroke="#000000" stroke-linecap="round" stroke-linejoin="round" stroke-opacity="0" stroke-width="2"/>
 </g>
 <g atv:refpx="220" atv:refpy="390.007" id="id_1" transform="matrix(1,0,0,1,0.5,13.0073)">
  <line atv:refpx="432.5" atv:refpy="205.406" fill="#000000" id="id_120" stroke="#000000" stroke-linecap="round" stroke-linejoin="round" stroke-width="2" x1="199.5" x2="237.5" y1="384" y2="384"/>
  <polygon atv:refpx="525" atv:refpy="197.596" fill="#000018" id="id_121" points="227.309,374 227.309,394 240.5,384 240.5,384" stroke="#000000" stroke-linecap="round" stroke-linejoin="round" stroke-opacity="0" stroke-width="2"/>
 </g>
 <line atv:refpx="557.509" atv:refpy="113.596" fill="#000000" id="id_21" stroke="#000000" stroke-linecap="round" stroke-linejoin="round" stroke-width="2" x1="557.009" x2="557.009" y1="127.191" y2="100"/>
 <polygon atv:refpx="577.009" atv:refpy="96.596" fill="#000018" id="id_22" points="547.009,103.191 567.009,103.191 557.009,90 557.009,90" stroke="#000000" stroke-linecap="round" stroke-linejoin="round" stroke-opacity="0" stroke-width="2.015"/>
 <line atv:refpx="576.509" atv:refpy="365.596" fill="#000000" id="id_24" stroke="#000000" stroke-linecap="round" stroke-linejoin="round" stroke-width="2" x1="557.009" x2="557.009" y1="376.191" y2="355"/>
 <polygon atv:refpx="577.009" atv:refpy="355.596" fill="#000018" id="id_26" points="547.009,362.191 567.009,362.191 557.009,349 557.009,349" stroke="#000000" stroke-linecap="round" stroke-linejoin="round" stroke-opacity="0" stroke-width="2.015"/>
 <svg atv:refpx="439.989" atv:refpy="83.999" height="63.11" id="id_2" transform="matrix(0.7519,0,0,0.7289,0,0)" width="133" x="518.686" xlink:href="ObjectTypes.PROJECT.ElementoLinea.Principal" y="83.689">
  <atv:argument name="base" value="AGENT.OBJECTS.SCADA.Benito_Juarez.Circuitos.Circuito_CAP_011.Carcamo_0+000"/>
 </svg>
 <svg atv:refpx="169.998" atv:refpy="397" height="63.11" id="id_3" transform="matrix(0.7519,0,0,0.7289,0,0)" width="133" x="159.598" xlink:href="ObjectTypes.PROJECT.ElementoLinea.Principal" y="513.111">
  <atv:argument name="base" value="AGENT.OBJECTS.SCADA.Benito_Juarez.Circuitos.Circuito_CAP_011.Carcamo_010"/>
 </svg>
 <svg atv:refpx="50" atv:refpy="397" height="63.11" id="id_4" transform="matrix(0.7519,0,0,0.7289,0,0)" width="133" x="0" xlink:href="ObjectTypes.PROJECT.ElementoLinea.Principal" y="513.111">
  <atv:argument name="base" value="AGENT.OBJECTS.SCADA.Benito_Juarez.Circuitos.Circuito_CAP_011.Carcamo_011"/>
 </svg>
 <svg atv:refpx="292" atv:refpy="83.999" height="63.11" id="id_6" transform="matrix(0.7519,0,0,0.7289,0,0)" width="133" x="321.86" xlink:href="ObjectTypes.PROJECT.ElementoLinea.Principal" y="83.689">
  <atv:argument name="base" value="AGENT.OBJECTS.SCADA.Benito_Juarez.Circuitos.Circuito_CAP_011.Carcamo_2000_Oriente"/>
 </svg>
 <svg atv:refpx="292" atv:refpy="397" height="63.11" id="id_7" transform="matrix(0.7519,0,0,0.7289,0,0)" width="133" x="321.86" xlink:href="ObjectTypes.PROJECT.ElementoLinea.Principal" y="513.111">
  <atv:argument name="base" value="AGENT.OBJECTS.SCADA.Benito_Juarez.Circuitos.Circuito_CAP_011.Carcamo_Aeropuerto_ZU"/>
 </svg>
 <svg atv:refpx="169.999" atv:refpy="24" height="63.11" id="id_8" transform="matrix(0.7519,0,0,0.7289,0,0)" width="133" x="159.598" xlink:href="ObjectTypes.PROJECT.ElementoLinea.Principal" y="1.372">
  <atv:argument name="base" value="AGENT.OBJECTS.SCADA.Benito_Juarez.Circuitos.Circuito_CAP_011.Carcamo_Almendros"/>
 </svg>
 <svg atv:refpx="556.994" atv:refpy="204" height="63.11" id="id_10" transform="matrix(0.7519,0,0,0.7289,0,0)" width="133" x="674.302" xlink:href="ObjectTypes.PROJECT.ElementoLinea.Principal" y="248.321">
  <atv:argument name="base" value="AGENT.OBJECTS.SCADA.Benito_Juarez.Circuitos.Circuito_CAP_011.Carcamo_Bonampak"/>
 </svg>
 <svg atv:refpx="292" atv:refpy="267.497" height="63.11" id="id_13" transform="matrix(0.7519,0,0,0.7289,0,0)" width="133" x="321.86" xlink:href="ObjectTypes.PROJECT.ElementoLinea.Principal" y="335.438">
  <atv:argument name="base" value="AGENT.OBJECTS.SCADA.Benito_Juarez.Circuitos.Circuito_CAP_011.Carcamo_Cumbres"/>
 </svg>
 <svg atv:refpx="436.989" atv:refpy="141.747" height="63.11" id="id_15" transform="matrix(0.7519,0,0,0.7289,0,0)" width="133" x="518.686" xlink:href="ObjectTypes.PROJECT.ElementoLinea.Principal" y="164.289">
  <atv:argument name="base" value="AGENT.OBJECTS.SCADA.Benito_Juarez.Circuitos.Circuito_CAP_011.Carcamo_El_table"/>
 </svg>
 <svg atv:refpx="169.998" atv:refpy="267.497" height="63.11" id="id_25" transform="matrix(0.7519,0,0,0.7289,0,0)" width="133" x="159.598" xlink:href="ObjectTypes.PROJECT.ElementoLinea.Principal" y="335.438">
  <atv:argument name="base" value="AGENT.OBJECTS.SCADA.Benito_Juarez.Circuitos.Circuito_CAP_011.Carcamo_Fonatur_SM10"/>
 </svg>
 <svg atv:refpx="439.989" atv:refpy="397" height="63.11" id="id_27" transform="matrix(0.7519,0,0,0.7289,0,0)" width="133" x="518.686" xlink:href="ObjectTypes.PROJECT.ElementoLinea.Principal" y="513.111">
  <atv:argument name="base" value="AGENT.OBJECTS.SCADA.Benito_Juarez.Circuitos.Circuito_CAP_011.Carcamo_Las_Americas"/>
 </svg>
 <svg atv:refpx="439.989" atv:refpy="312.995" height="63.11" id="id_28" transform="matrix(0.7519,0,0,0.7289,0,0)" width="133" x="518.686" xlink:href="ObjectTypes.PROJECT.ElementoLinea.Principal" y="415.695">
  <atv:argument name="base" value="AGENT.OBJECTS.SCADA.Benito_Juarez.Circuitos.Circuito_CAP_011.Carcamo_Luciernagas_1"/>
 </svg>
 <svg atv:refpx="439.989" atv:refpy="267.497" height="63.11" id="id_29" transform="matrix(0.7519,0,0,0.7289,0,0)" width="133" x="518.686" xlink:href="ObjectTypes.PROJECT.ElementoLinea.Principal" y="335.438">
  <atv:argument name="base" value="AGENT.OBJECTS.SCADA.Benito_Juarez.Circuitos.Circuito_CAP_011.Carcamo_Luciernagas_2"/>
 </svg>
 <svg atv:refpx="439.989" atv:refpy="23" height="63.11" id="id_30" transform="matrix(0.7519,0,0,0.7289,0,0)" width="133" x="518.686" xlink:href="ObjectTypes.PROJECT.ElementoLinea.Principal" y="0">
  <atv:argument name="base" value="AGENT.OBJECTS.SCADA.Benito_Juarez.Circuitos.Circuito_CAP_011.Carcamo_Puerto_Cancun"/>
 </svg>
 <svg atv:refpx="575.994" atv:refpy="326" height="63.11" id="id_31" transform="matrix(0.7519,0,0,0.7289,0,0)" width="133" x="674.302" xlink:href="ObjectTypes.PROJECT.ElementoLinea.Principal" y="415.695">
  <atv:argument name="base" value="AGENT.OBJECTS.SCADA.Benito_Juarez.Circuitos.Circuito_CAP_011.Carcamo_Punta_Sam"/>
 </svg>
 <svg atv:refpx="292" atv:refpy="193.999" height="63.11" id="id_32" transform="matrix(0.7519,0,0,0.7289,0,0)" width="133" x="321.86" xlink:href="ObjectTypes.PROJECT.ElementoLinea.Principal" y="248.321">
  <atv:argument name="base" value="AGENT.OBJECTS.SCADA.Benito_Juarez.Circuitos.Circuito_CAP_011.Carcamo_Quetzales"/>
 </svg>
 <polygon atv:refpx="383.095" atv:refpy="323" fill="#000018" id="id_89" points="376.5,312 376.5,332 389.691,322 389.691,322" stroke="#000000" stroke-linecap="round" stroke-linejoin="round" stroke-opacity="0" stroke-width="2.015"/>
 <line atv:refpx="366" atv:refpy="208.5" fill="#000000" id="id_33" stroke="#000000" stroke-linecap="round" stroke-linejoin="round" stroke-width="2" x1="365.5" x2="365.5" y1="396" y2="21"/>
 <line atv:refpx="278.492" atv:refpy="322.5" fill="#000000" id="id_34" stroke="#000000" stroke-linecap="round" stroke-linejoin="round" stroke-width="2" x1="170.5" x2="386.484" y1="322" y2="322"/>
 <line atv:refpx="292.508" atv:refpy="310.492" fill="#000000" id="id_36" stroke="#000000" stroke-linecap="round" stroke-linejoin="round" stroke-width="2" x1="292.008" x2="292.008" y1="322.984" y2="298"/>
 <line atv:refpx="170.503" atv:refpy="308.492" fill="#000000" id="id_37" stroke="#000000" stroke-linecap="round" stroke-linejoin="round" stroke-width="2" x1="170.003" x2="170.003" y1="322.984" y2="294"/>
 <line atv:refpx="376" atv:refpy="267.5" fill="#000000" id="id_38" stroke="#000000" stroke-linecap="round" stroke-linejoin="round" stroke-width="2" x1="366" x2="386" y1="267" y2="267"/>
 <line atv:refpx="424.25" atv:refpy="197.002" fill="#000000" id="id_39" stroke="#000000" stroke-linecap="round" stroke-linejoin="round" stroke-width="2" x1="343.5" x2="505" y1="204.002" y2="204.002"/>
 <line atv:refpx="375.5" atv:refpy="143.25" fill="#000000" id="id_40" stroke="#000000" stroke-linecap="round" stroke-linejoin="round" stroke-width="2" x1="366" x2="385" y1="142.75" y2="142.75"/>
 <line atv:refpx="376" atv:refpy="84.501" fill="#000000" id="id_41" stroke="#000000" stroke-linecap="round" stroke-linejoin="round" stroke-width="2" x1="365.5" x2="386.5" y1="84.001" y2="84.001"/>
 <line atv:refpx="355" atv:refpy="84.501" fill="#000000" id="id_42" stroke="#000000" stroke-linecap="round" stroke-linejoin="round" stroke-width="2" x1="344.5" x2="365.5" y1="84.001" y2="84.001"/>
 <line atv:refpx="376" atv:refpy="21.5" fill="#000000" id="id_43" stroke="#000000" stroke-linecap="round" stroke-linejoin="round" stroke-width="2" x1="365.5" x2="386.5" y1="21" y2="21"/>
 <polygon atv:refpx="384.095" atv:refpy="391.007" fill="#000018" id="id_49" points="377.5,387.007 377.5,407.007 390.691,397.007 390.691,397.007" stroke="#000000" stroke-linecap="round" stroke-linejoin="round" stroke-opacity="0" stroke-width="2.015"/>
 <polygon atv:refpx="382.596" atv:refpy="268" fill="#000018" id="id_50" points="376,258 376,278 389.191,268 389.191,268" stroke="#000000" stroke-linecap="round" stroke-linejoin="round" stroke-opacity="0" stroke-width="2.015"/>
 <polygon atv:refpx="512.595" atv:refpy="51.014" fill="#000018" id="id_53" points="506,40.014 506,60.014 519.191,50.014 519.191,50.014" stroke="#000000" stroke-linecap="round" stroke-linejoin="round" stroke-opacity="0" stroke-width="2.015"/>
 <polygon atv:refpx="384.595" atv:refpy="138.75" fill="#000018" id="id_54" points="376,132.75 376,152.75 389.191,142.75 389.191,142.75" stroke="#000000" stroke-linecap="round" stroke-linejoin="round" stroke-opacity="0" stroke-width="2.015"/>
 <polygon atv:refpx="384.595" atv:refpy="85.001" fill="#000018" id="id_55" points="378,74.001 378,94.001 391.191,84.001 391.191,84.001" stroke="#000000" stroke-linecap="round" stroke-linejoin="round" stroke-opacity="0" stroke-width="2.015"/>
 <polygon atv:refpx="384.095" atv:refpy="22" fill="#000018" id="id_56" points="377.5,11 377.5,31 390.691,21 390.691,21" stroke="#000000" stroke-linecap="round" stroke-linejoin="round" stroke-opacity="0" stroke-width="2.015"/>
 <polygon atv:refpx="348.096" atv:refpy="84.001" fill="#000018" id="id_57" points="354.691,94.001 354.691,74.001 341.5,84.001 341.5,84.001" stroke="#000000" stroke-linecap="round" stroke-linejoin="round" stroke-opacity="0" stroke-width="2.015"/>
 <polygon atv:refpx="347.096" atv:refpy="196.002" fill="#000018" id="id_58" points="353.69,214.001 353.69,194.001 340.5,204.001 340.5,204.001" stroke="#000000" stroke-linecap="round" stroke-linejoin="round" stroke-opacity="0" stroke-width="2.015"/>
 <polygon atv:refpx="292.008" atv:refpy="297.596" fill="#000018" id="id_59" points="282.007,304.19 302.007,304.19 292.007,291 292.007,291" stroke="#000000" stroke-linecap="round" stroke-linejoin="round" stroke-opacity="0" stroke-width="2.015"/>
 <polygon atv:refpx="170.003" atv:refpy="297.596" fill="#000018" id="id_60" points="160.002,304.189 180.002,304.189 170.002,291 170.002,291" stroke="#000000" stroke-linecap="round" stroke-linejoin="round" stroke-opacity="0" stroke-width="2.015"/>
 <svg atv:refpx="50" atv:refpy="142.748" height="63.11" id="id_9" transform="matrix(0.7519,0,0,0.7289,0,0)" width="133" x="0" xlink:href="ObjectTypes.PROJECT.ElementoLinea.Principal" y="164.289">
  <atv:argument name="base" value="AGENT.OBJECTS.SCADA.Benito_Juarez.Circuitos.Circuito_CAP_011.Carcamo_Andalucia"/>
 </svg>
 <svg atv:refpx="575.994" atv:refpy="124.747" height="63.11" id="id_20" transform="matrix(0.7519,0,0,0.7289,0,0)" width="133" x="674.302" xlink:href="ObjectTypes.PROJECT.ElementoLinea.Principal" y="164.289">
  <atv:argument name="base" value="AGENT.OBJECTS.SCADA.Benito_Juarez.Circuitos.Circuito_CAP_004.Carcamo_Aeropuerto_ZT"/>
 </svg>
 <svg atv:refpx="575.994" atv:refpy="397" height="63.11" id="id_23" transform="matrix(0.7519,0,0,0.7289,0,0)" width="133" x="674.302" xlink:href="ObjectTypes.PROJECT.ElementoLinea.Principal" y="513.111">
  <atv:argument name="base" value="AGENT.OBJECTS.SCADA.Benito_Juarez.Circuitos.Circuito_CAP_001A.Carcamo_001A"/>
 </svg>
 <svg atv:refpx="49.994" atv:refpy="267.494" height="63.11" id="id_16" transform="matrix(0.7519,0,0,0.7289,0,0)" width="133" x="0" xlink:href="ObjectTypes.PROJECT.ElementoLinea.Principal" y="335.438">
  <atv:argument name="base" value="AGENT.OBJECTS.SCADA.Benito_Juarez.Circuitos.Circuito_CAP_001.Carcamo_Uxmal"/>
 </svg>
 <polygon atv:refpx="49.001" atv:refpy="297.596" fill="#000018" id="id_51" points="60.001,304.191 40.001,304.191 50.001,291 50.001,291" stroke="#000000" stroke-linecap="round" stroke-linejoin="round" stroke-opacity="0" stroke-width="2.015"/>
 <script atv:desc="" atv:name="" type="text/ecmascript"><![CDATA[var google = webMI.rootWindow.google; //Clase Principal
var map; //Variable donde va a vivir el mapa
webMI.addOnload(function(e) {
var position1 = new google.maps.LatLng(21.105658619661092, -86.75755193180046);
//Opciones del mapa
	var myOptions = {
						zoom: 10.7,
						center: position1,
						mapTypeId: google.maps.MapTypeId.roadmap,
						disableDefaultUI: true
					};
	
	map = new google.maps.Map(document.getElementById("mapa"), myOptions);
});]]></script>
 <g atv:refpx="557.009" atv:refpy="50.014" id="id_63" transform="matrix(1,0,0,1,-17.0048,-11)">
  <circle atv:refpx="574.014" atv:refpy="61.014" cx="574.014" cy="61.014" fill="#000088" fill-opacity="0" id="id_0" r="37.014" stroke="#000000" stroke-width="2"/>
  <text atv:refpx="575" atv:refpy="67" fill="#000000" font-family="Arial" font-size="28" id="id_46" text-anchor="middle" x="574.5" y="71.5">ZH</text>
 </g>
 <line atv:refpx="50.501" atv:refpy="326" id="id_67" stroke="#000000" stroke-linecap="round" stroke-linejoin="round" stroke-opacity="0.956863" stroke-width="2" x1="50.001" x2="50.001" y1="303" y2="349"/>
 <line atv:refpx="171" atv:refpy="339.5" id="id_68" stroke="#000000" stroke-linecap="round" stroke-linejoin="round" stroke-opacity="0.956863" stroke-width="2" x1="50.5" x2="291.5" y1="350" y2="350"/>
 <line atv:refpx="292.508" atv:refpy="361.5" id="id_69" stroke="#000000" stroke-linecap="round" stroke-linejoin="round" stroke-opacity="0.956863" stroke-width="2" x1="292.008" x2="292.008" y1="350" y2="373"/>
 <line atv:refpx="147.5" atv:refpy="82.5" id="id_70" stroke="#000000" stroke-linecap="round" stroke-linejoin="round" stroke-opacity="0.956863" stroke-width="2" x1="244" x2="51" y1="82" y2="82"/>
 <line atv:refpx="50.501" atv:refpy="96" id="id_71" stroke="#000000" stroke-linecap="round" stroke-linejoin="round" stroke-opacity="0.956863" stroke-width="2" x1="50.001" x2="50.001" y1="82" y2="110"/>
 <line atv:refpx="170.503" atv:refpy="70.5" id="id_72" stroke="#000000" stroke-linecap="round" stroke-linejoin="round" stroke-opacity="0.956863" stroke-width="2" x1="170.003" x2="170.003" y1="83" y2="58"/>
 <polygon atv:refpx="501.595" atv:refpy="205.002" fill="#000018" id="id_73" points="495,194.001 495,214.001 508.19,204.001 508.19,204.001" stroke="#000000" stroke-linecap="round" stroke-linejoin="round" stroke-opacity="0" stroke-width="2.015"/>
 <line atv:refpx="499.5" atv:refpy="67.501" fill="#000000" id="id_74" stroke="#000000" stroke-linecap="round" stroke-linejoin="round" stroke-width="2" x1="499" x2="499" y1="84" y2="51"/>
 <line atv:refpx="504" atv:refpy="50.514" fill="#000000" id="id_77" stroke="#000000" stroke-linecap="round" stroke-linejoin="round" stroke-width="2" x1="499" x2="509" y1="50.014" y2="50.014"/>
</svg>
