<?xml version='1.0' encoding='UTF-8' standalone='no'?>
<svg height="676" version="1.2" width="691.99000000000001" xmlns="http://www.w3.org/2000/svg" xmlns:atv="http://webmi.atvise.com/2007/svgext" xmlns:xlink="http://www.w3.org/1999/xlink">
 <defs/>
 <metadata>
  <atv:gridconfig enabled="false" gridstyle="lines" height="20" width="20"/>
  <atv:snapconfig enabled="true" height="1" width="1"/>
 </metadata>
 <g atv:insensitive="true" atv:refpx="0" atv:refpy="0" id="id_11" transform="matrix(0.5406,0,0,0.8802,0,0)">
  <rect atv:refpx="640" atv:refpy="384" fill="#ffffff" height="768.00" id="id_12" width="1280.00" x="0" y="0"/>
 </g>
 <line atv:refpx="170.502" atv:refpy="194.5" id="id_43" stroke="#000000" stroke-linecap="round" stroke-linejoin="round" stroke-width="2.015" x1="170.002" x2="170.002" y1="210" y2="179"/>
 <line atv:refpx="170.502" atv:refpy="355" id="id_44" stroke="#000000" stroke-linecap="round" stroke-linejoin="round" stroke-width="2.015" x1="170.002" x2="170.002" y1="340" y2="370"/>
 <polygon atv:refpx="170.002" atv:refpy="335.094" fill="#000018" id="id_118" points="160.001,341.688 180.001,341.688 170.001,328.499 170.001,328.499" stroke="#000000" stroke-linecap="round" stroke-linejoin="round" stroke-opacity="0" stroke-width="2.015"/>
 <line atv:refpx="363.251" atv:refpy="21.5" id="id_124" stroke="#000000" stroke-linecap="round" stroke-linejoin="round" stroke-width="2.015" x1="386.251" x2="340.251" y1="24" y2="24"/>
 <line atv:refpx="561.251" atv:refpy="532.998" id="id_111" stroke="#000000" stroke-linecap="round" stroke-linejoin="round" stroke-width="2" x1="584.251" x2="538.251" y1="532.498" y2="532.498"/>
 <polygon atv:refpx="322.844" atv:refpy="448.999" fill="#000018" id="id_112" points="576.06,522.497 576.06,542.497 589.25,532.497 589.25,532.497" stroke="#000000" stroke-linecap="round" stroke-linejoin="round" stroke-opacity="0" stroke-width="2.015"/>
 <g atv:refpx="564.751" atv:refpy="277" id="id_88" transform="matrix(-1,0,0,-1,928.7507,762.5005)">
  <line atv:refpx="366" atv:refpy="483.001" id="id_89" stroke="#000000" stroke-linecap="round" stroke-linejoin="round" stroke-width="2" x1="344" x2="388" y1="482.501" y2="482.501"/>
  <polygon atv:refpx="346.593" atv:refpy="482.501" fill="#000018" id="id_90" points="352.189,492.5 352.189,472.5 339,482.5 339,482.5" stroke="#000000" stroke-linecap="round" stroke-linejoin="round" stroke-opacity="0" stroke-width="2.015"/>
 </g>
 <line atv:refpx="289.253" atv:refpy="88.492" fill="#000000" id="id_5" stroke="#000000" stroke-linecap="round" stroke-linejoin="round" stroke-width="2" x1="288.751" x2="288.751" y1="72" y2="96.984"/>
 <g atv:refpx="98.251" atv:refpy="15" id="id_14" transform="matrix(1,0,0,1,-1.2493,-358.0002)">
  <line atv:refpx="432.5" atv:refpy="205.406" fill="#000000" id="id_75" stroke="#000000" stroke-linecap="round" stroke-linejoin="round" stroke-width="2" x1="79.5" x2="117.5" y1="383" y2="383"/>
  <polygon atv:refpx="525" atv:refpy="197.596" fill="#000018" id="id_76" points="107.309,373 107.309,393 120.5,383 120.5,383" stroke="#000000" stroke-linecap="round" stroke-linejoin="round" stroke-opacity="0" stroke-width="2"/>
 </g>
 <g atv:refpx="219.251" atv:refpy="15" id="id_1" transform="matrix(1,0,0,1,-0.2493,-358.9998)">
  <line atv:refpx="432.5" atv:refpy="205.406" fill="#000000" id="id_120" stroke="#000000" stroke-linecap="round" stroke-linejoin="round" stroke-width="2" x1="199.5" x2="237.5" y1="384" y2="384"/>
  <polygon atv:refpx="525" atv:refpy="197.596" fill="#000018" id="id_121" points="227.309,374 227.309,394 240.5,384 240.5,384" stroke="#000000" stroke-linecap="round" stroke-linejoin="round" stroke-opacity="0" stroke-width="2"/>
 </g>
 <svg atv:refpx="174.988" atv:refpy="387.998" height="63.11" id="id_2" transform="matrix(0.7519,0,0,0.7289,0,0)" width="133" x="159.594" xlink:href="ObjectTypes.PROJECT.ElementoLinea.Principal" y="504.871">
  <atv:argument name="base" value="AGENT.OBJECTS.SCADA.Benito_Juarez.Circuitos.Circuito_CAP_011.Carcamo_0+000"/>
 </svg>
 <svg atv:refpx="169.996" atv:refpy="21.993" height="63.11" id="id_3" transform="matrix(0.7519,0,0,0.7289,0,0)" width="133" x="159.596" xlink:href="ObjectTypes.PROJECT.ElementoLinea.Principal" y="2.744">
  <atv:argument name="base" value="AGENT.OBJECTS.SCADA.Benito_Juarez.Circuitos.Circuito_CAP_011.Carcamo_010"/>
 </svg>
 <svg atv:refpx="50" atv:refpy="19.993" height="63.11" id="id_4" transform="matrix(0.7519,0,0,0.7289,0,0)" width="133" x="0" xlink:href="ObjectTypes.PROJECT.ElementoLinea.Principal" y="0">
  <atv:argument name="base" value="AGENT.OBJECTS.SCADA.Benito_Juarez.Circuitos.Circuito_CAP_011.Carcamo_011"/>
 </svg>
 <svg atv:refpx="488.248" atv:refpy="506.998" height="63.11" id="id_6" transform="matrix(0.7519,0,0,0.7289,0,0)" width="133" x="582.863" xlink:href="ObjectTypes.PROJECT.ElementoLinea.Principal" y="664.014">
  <atv:argument name="base" value="AGENT.OBJECTS.SCADA.Benito_Juarez.Circuitos.Circuito_CAP_011.Carcamo_2000_Oriente"/>
 </svg>
 <svg atv:refpx="288.743" atv:refpy="21.993" height="63.11" id="id_7" transform="matrix(0.7519,0,0,0.7289,0,0)" width="133" x="317.528" xlink:href="ObjectTypes.PROJECT.ElementoLinea.Principal" y="2.744">
  <atv:argument name="base" value="AGENT.OBJECTS.SCADA.Benito_Juarez.Circuitos.Circuito_CAP_011.Carcamo_Aeropuerto_ZU"/>
 </svg>
 <svg atv:refpx="640.418" atv:refpy="501.498" height="63.11" id="id_8" transform="matrix(0.7519,0,0,0.7289,0,0)" width="133" x="785.239" xlink:href="ObjectTypes.PROJECT.ElementoLinea.Principal" y="656.465">
  <atv:argument name="base" value="AGENT.OBJECTS.SCADA.Benito_Juarez.Circuitos.Circuito_CAP_011.Carcamo_Almendros"/>
 </svg>
 <svg atv:refpx="488.261" atv:refpy="277" height="63.11" id="id_10" transform="matrix(0.7519,0,0,0.7289,0,0)" width="133" x="582.87" xlink:href="ObjectTypes.PROJECT.ElementoLinea.Principal" y="352.586">
  <atv:argument name="base" value="AGENT.OBJECTS.SCADA.Benito_Juarez.Circuitos.Circuito_CAP_011.Carcamo_Bonampak"/>
 </svg>
 <svg atv:refpx="488.253" atv:refpy="388.996" height="63.11" id="id_13" transform="matrix(0.7519,0,0,0.7289,0,0)" width="133" x="582.87" xlink:href="ObjectTypes.PROJECT.ElementoLinea.Principal" y="506.243">
  <atv:argument name="base" value="AGENT.OBJECTS.SCADA.Benito_Juarez.Circuitos.Circuito_CAP_011.Carcamo_Cumbres"/>
 </svg>
 <svg atv:refpx="485.249" atv:refpy="608.996" height="63.11" id="id_15" transform="matrix(0.7519,0,0,0.7289,0,0)" width="133" x="582.87" xlink:href="ObjectTypes.PROJECT.ElementoLinea.Principal" y="809.439">
  <atv:argument name="base" value="AGENT.OBJECTS.SCADA.Benito_Juarez.Circuitos.Circuito_CAP_011.Carcamo_El_table"/>
 </svg>
 <svg atv:refpx="640.417" atv:refpy="388.996" height="63.11" id="id_25" transform="matrix(0.7519,0,0,0.7289,0,0)" width="133" x="785.239" xlink:href="ObjectTypes.PROJECT.ElementoLinea.Principal" y="506.243">
  <atv:argument name="base" value="AGENT.OBJECTS.SCADA.Benito_Juarez.Circuitos.Circuito_CAP_011.Carcamo_Fonatur_SM10"/>
 </svg>
 <svg atv:refpx="488.249" atv:refpy="20.993" height="63.11" id="id_27" transform="matrix(0.7519,0,0,0.7289,0,0)" width="133" x="582.87" xlink:href="ObjectTypes.PROJECT.ElementoLinea.Principal" y="1.372">
  <atv:argument name="base" value="AGENT.OBJECTS.SCADA.Benito_Juarez.Circuitos.Circuito_CAP_011.Carcamo_Las_Americas"/>
 </svg>
 <svg atv:refpx="488.249" atv:refpy="160.995" height="63.11" id="id_28" transform="matrix(0.7519,0,0,0.7289,0,0)" width="133" x="582.87" xlink:href="ObjectTypes.PROJECT.ElementoLinea.Principal" y="211.277">
  <atv:argument name="base" value="AGENT.OBJECTS.SCADA.Benito_Juarez.Circuitos.Circuito_CAP_011.Carcamo_Luciernagas_1"/>
 </svg>
 <svg atv:refpx="288.24" atv:refpy="523.996" height="63.11" id="id_29" transform="matrix(0.7519,0,0,0.7289,0,0)" width="133" x="316.865" xlink:href="ObjectTypes.PROJECT.ElementoLinea.Principal" y="691.453">
  <atv:argument name="base" value="AGENT.OBJECTS.SCADA.Benito_Juarez.Circuitos.Circuito_CAP_011.Carcamo_Luciernagas_2"/>
 </svg>
 <svg atv:refpx="288.24" atv:refpy="636" height="63.11" id="id_30" transform="matrix(0.7519,0,0,0.7289,0,0)" width="133" x="316.865" xlink:href="ObjectTypes.PROJECT.ElementoLinea.Principal" y="840.993">
  <atv:argument name="base" value="AGENT.OBJECTS.SCADA.Benito_Juarez.Circuitos.Circuito_CAP_011.Carcamo_Puerto_Cancun"/>
 </svg>
 <svg atv:refpx="659.36" atv:refpy="277" height="63.11" id="id_31" transform="matrix(0.7519,0,0,0.7289,0,0)" width="133" x="785.176" xlink:href="ObjectTypes.PROJECT.ElementoLinea.Principal" y="352.586">
  <atv:argument name="base" value="AGENT.OBJECTS.SCADA.Benito_Juarez.Circuitos.Circuito_CAP_011.Carcamo_Punta_Sam"/>
 </svg>
 <svg atv:refpx="288.244" atv:refpy="569.998" height="63.11" id="id_32" transform="matrix(0.7519,0,0,0.7289,0,0)" width="133" x="316.865" xlink:href="ObjectTypes.PROJECT.ElementoLinea.Principal" y="768.282">
  <atv:argument name="base" value="AGENT.OBJECTS.SCADA.Benito_Juarez.Circuitos.Circuito_CAP_011.Carcamo_Quetzales"/>
 </svg>
 <svg atv:refpx="640.421" atv:refpy="580.993" height="63.11" id="id_9" transform="matrix(0.7754,0,0,0.7289,0,0)" width="133" x="759.445" xlink:href="ObjectTypes.PROJECT.ElementoLinea.Principal" y="769.645">
  <atv:argument name="base" value="AGENT.OBJECTS.SCADA.Benito_Juarez.Circuitos.Circuito_CAP_011.Carcamo_Andalucia"/>
 </svg>
 <svg atv:refpx="188.986" atv:refpy="111.997" height="63.11" id="id_20" transform="matrix(0.7519,0,0,0.7289,0,0)" width="133" x="159.596" xlink:href="ObjectTypes.PROJECT.ElementoLinea.Principal" y="150.912">
  <atv:argument name="base" value="AGENT.OBJECTS.SCADA.Benito_Juarez.Circuitos.Circuito_CAP_004.Carcamo_Aeropuerto_ZT"/>
 </svg>
 <svg atv:refpx="659.36" atv:refpy="173.994" height="63.11" id="id_23" transform="matrix(0.7519,0,0,0.7289,0,0)" width="133" x="785.176" xlink:href="ObjectTypes.PROJECT.ElementoLinea.Principal" y="211.277">
  <atv:argument name="base" value="AGENT.OBJECTS.SCADA.Benito_Juarez.Circuitos.Circuito_CAP_001A.Carcamo_001A"/>
 </svg>
 <svg atv:refpx="288.744" atv:refpy="129.493" height="63.11" id="id_16" transform="matrix(0.7519,0,0,0.7289,0,0)" width="133" x="317.528" xlink:href="ObjectTypes.PROJECT.ElementoLinea.Principal" y="150.226">
  <atv:argument name="base" value="AGENT.OBJECTS.SCADA.Benito_Juarez.Circuitos.Circuito_CAP_001.Carcamo_Uxmal"/>
 </svg>
 <script atv:desc="" atv:name="" type="text/ecmascript"><![CDATA[var google = webMI.rootWindow.google; //Clase Principal
var map; //Variable donde va a vivir el mapa
webMI.addOnload(function(e) {
var position1 = new google.maps.LatLng(21.105658619661092, -86.75755193180046);
//Opciones del mapa
	var myOptions = {
						zoom: 10.7,
						center: position1,
						mapTypeId: google.maps.MapTypeId.roadmap,
						disableDefaultUI: true
					};
	
	map = new google.maps.Map(document.getElementById("mapa"), myOptions);
});]]></script>
 <g atv:refpx="169.977" atv:refpy="272.498" id="id_63" transform="matrix(1.3285,0,0,1.381,-592.576,191.237)">
  <circle atv:refpx="574.014" atv:refpy="61.014" cx="574.014" cy="61.014" fill="#000088" fill-opacity="0" id="id_0" r="37.014" stroke="#000000" stroke-width="2"/>
  <text atv:refpx="575" atv:refpy="67" fill="#000000" font-family="Arial" font-size="28" id="id_46" text-anchor="middle" x="574.5" y="71.5">ZH</text>
 </g>
 <polygon atv:refpx="288.752" atv:refpy="100.389" fill="#000018" id="id_19" points="298.75,96.794 278.75,96.794 288.75,109.983 288.75,109.983" stroke="#000000" stroke-linecap="round" stroke-linejoin="round" stroke-opacity="0" stroke-width="2.015"/>
 <svg atv:refpx="488.261" atv:refpy="128.5" height="63.11" id="id_48" transform="matrix(0.7519,0,0,0.7289,0,0)" width="133" x="582.87" xlink:href="ObjectTypes.PROJECT.ElementoLinea.Principal" y="148.854">
  <atv:argument name="base" value="AGENT.OBJECTS.SCADA.Benito_Juarez.Circuitos.Circuito_CAP_011.Carcamo_Luciernagas_1_TE"/>
 </svg>
 <line atv:refpx="386.751" atv:refpy="330.503" id="id_50" stroke="#000000" stroke-linecap="round" stroke-linejoin="round" stroke-width="2" x1="386.251" x2="386.251" y1="24.005" y2="637"/>
 <line atv:refpx="366" atv:refpy="483.001" id="id_59" stroke="#000000" stroke-linecap="round" stroke-linejoin="round" stroke-width="2" x1="340.728" x2="384.728" y1="131.501" y2="131.501"/>
 <polygon atv:refpx="343.321" atv:refpy="131.501" fill="#000018" id="id_60" points="348.917,141.499 348.917,121.499 335.728,131.499 335.728,131.499" stroke="#000000" stroke-linecap="round" stroke-linejoin="round" stroke-opacity="0" stroke-width="2.015"/>
 <line atv:refpx="364.228" atv:refpy="505.996" id="id_64" stroke="#000000" stroke-linecap="round" stroke-linejoin="round" stroke-width="2" x1="431.728" x2="387.728" y1="131.5" y2="131.5"/>
 <polygon atv:refpx="345.533" atv:refpy="504.496" fill="#000018" id="id_65" points="424.25,121.499 424.25,141.499 437.439,131.499 437.439,131.499" stroke="#000000" stroke-linecap="round" stroke-linejoin="round" stroke-opacity="0" stroke-width="2.015"/>
 <line atv:refpx="344.251" atv:refpy="133.002" id="id_67" stroke="#000000" stroke-linecap="round" stroke-linejoin="round" stroke-width="2" x1="433.251" x2="389.251" y1="279" y2="279"/>
 <polygon atv:refpx="348.344" atv:refpy="442.496" fill="#000018" id="id_68" points="425.061,269.999 425.061,289.999 438.25,279.999 438.25,279.999" stroke="#000000" stroke-linecap="round" stroke-linejoin="round" stroke-opacity="0" stroke-width="2.015"/>
 <line atv:refpx="514.251" atv:refpy="337.5" id="id_78" stroke="#000000" stroke-linecap="round" stroke-linejoin="round" stroke-width="2.015" x1="387.251" x2="641.251" y1="337" y2="337"/>
 <line atv:refpx="488.761" atv:refpy="348.5" id="id_79" stroke="#000000" stroke-linecap="round" stroke-linejoin="round" stroke-width="2.015" x1="488.261" x2="488.261" y1="337" y2="366"/>
 <line atv:refpx="640.875" atv:refpy="346" id="id_81" stroke="#000000" stroke-linecap="round" stroke-linejoin="round" stroke-width="2.015" x1="640.375" x2="640.375" y1="337" y2="361"/>
 <polygon atv:refpx="488.262" atv:refpy="361.594" fill="#000018" id="id_82" points="498.261,357.999 478.261,357.999 488.261,371.187 488.261,371.187" stroke="#000000" stroke-linecap="round" stroke-linejoin="round" stroke-opacity="0" stroke-width="2.015"/>
 <polygon atv:refpx="640.376" atv:refpy="360.594" fill="#000018" id="id_83" points="650.375,356.999 630.375,356.999 640.375,370.187 640.375,370.187" stroke="#000000" stroke-linecap="round" stroke-linejoin="round" stroke-opacity="0" stroke-width="2.015"/>
 <line atv:refpx="337.751" atv:refpy="93.006" id="id_85" stroke="#000000" stroke-linecap="round" stroke-linejoin="round" stroke-width="2" x1="431.751" x2="387.751" y1="24.004" y2="24.004"/>
 <polygon atv:refpx="320.055" atv:refpy="92.506" fill="#000018" id="id_87" points="425.273,14.004 425.273,34.004 438.462,24.004 438.462,24.004" stroke="#000000" stroke-linecap="round" stroke-linejoin="round" stroke-opacity="0" stroke-width="2.015"/>
 <g atv:refpx="640.375" atv:refpy="235.492" id="id_93" transform="matrix(1,0,0,1,3.874,-336)">
  <line atv:refpx="640.003" atv:refpy="575.492" fill="#000000" id="id_91" stroke="#000000" stroke-linecap="round" stroke-linejoin="round" stroke-width="2" x1="636.501" x2="636.501" y1="556" y2="580.984"/>
  <polygon atv:refpx="639.502" atv:refpy="587.389" fill="#000018" id="id_92" points="646.501,580.795 626.501,580.795 636.501,593.983 636.501,593.983" stroke="#000000" stroke-linecap="round" stroke-linejoin="round" stroke-opacity="0" stroke-width="2.015"/>
 </g>
 <g atv:refpx="361.813" atv:refpy="526.001" id="id_94" transform="matrix(1,0,0,1,1.0631,0.9994)">
  <line atv:refpx="366" atv:refpy="483.001" id="id_95" stroke="#000000" stroke-linecap="round" stroke-linejoin="round" stroke-width="2" x1="340.75" x2="384.75" y1="528.001" y2="528.001"/>
  <polygon atv:refpx="343.343" atv:refpy="528.001" fill="#000018" id="id_96" points="348.939,538 348.939,518 335.75,528 335.75,528" stroke="#000000" stroke-linecap="round" stroke-linejoin="round" stroke-opacity="0" stroke-width="2.015"/>
 </g>
 <g atv:refpx="361.813" atv:refpy="580.002" id="id_97" transform="matrix(1,0,0,1,-2.1867,100.5009)">
  <line atv:refpx="366" atv:refpy="483.001" id="id_98" stroke="#000000" stroke-linecap="round" stroke-linejoin="round" stroke-width="2" x1="344" x2="388" y1="482.501" y2="482.501"/>
  <polygon atv:refpx="346.593" atv:refpy="482.501" fill="#000018" id="id_99" points="352.189,492.5 352.189,472.5 339,482.5 339,482.5" stroke="#000000" stroke-linecap="round" stroke-linejoin="round" stroke-opacity="0" stroke-width="2.015"/>
 </g>
 <g atv:refpx="361.813" atv:refpy="633" id="id_100" transform="matrix(1,0,0,1,-2.1867,153.5003)">
  <line atv:refpx="366" atv:refpy="483.001" id="id_101" stroke="#000000" stroke-linecap="round" stroke-linejoin="round" stroke-width="2" x1="344" x2="388" y1="482.501" y2="482.501"/>
  <polygon atv:refpx="346.593" atv:refpy="482.501" fill="#000018" id="id_102" points="352.189,492.5 352.189,472.5 339,482.5 339,482.5" stroke="#000000" stroke-linecap="round" stroke-linejoin="round" stroke-opacity="0" stroke-width="2.015"/>
 </g>
 <g atv:refpx="412.251" atv:refpy="537.497" id="id_107" transform="matrix(-1,0,0,-1,776.2507,1019.9978)">
  <line atv:refpx="366" atv:refpy="483.001" id="id_108" stroke="#000000" stroke-linecap="round" stroke-linejoin="round" stroke-width="2" x1="344" x2="388" y1="482.501" y2="482.501"/>
  <polygon atv:refpx="346.593" atv:refpy="482.501" fill="#000018" id="id_109" points="352.189,492.5 352.189,472.5 339,482.5 339,482.5" stroke="#000000" stroke-linecap="round" stroke-linejoin="round" stroke-opacity="0" stroke-width="2.015"/>
 </g>
 <line atv:refpx="564.751" atv:refpy="570.72" id="id_113" stroke="#000000" stroke-linecap="round" stroke-linejoin="round" stroke-width="2" x1="564.251" x2="564.251" y1="533" y2="615"/>
 <line atv:refpx="575.751" atv:refpy="612.495" id="id_114" stroke="#000000" stroke-linecap="round" stroke-linejoin="round" stroke-width="2" x1="564.251" x2="587.251" y1="614.995" y2="614.995"/>
 <polygon atv:refpx="324.033" atv:refpy="528.496" fill="#000018" id="id_115" points="577.25,604.994 577.25,624.994 590.439,614.994 590.439,614.994" stroke="#000000" stroke-linecap="round" stroke-linejoin="round" stroke-opacity="0" stroke-width="2.015"/>
 <svg atv:refpx="640.418" atv:refpy="454.996" height="63.11" id="id_17" transform="matrix(0.7519,0,0,0.7289,0,0)" width="133" x="785.239" xlink:href="ObjectTypes.PROJECT.ElementoLinea.Principal" y="592.667">
  <atv:argument name="base" value="AGENT.OBJECTS.SCADA.Benito_Juarez.Circuitos.Circuito_CAP_011.Carcamo_Almendros_TE"/>
 </svg>
 <svg atv:refpx="50.001" atv:refpy="59.5" height="23" id="id_18" width="100" x="0.001" xlink:href="ObjectTypes.PROJECT.Caudalimetro.line_mini" y="46">
  <atv:argument name="base" value="AGENT.OBJECTS.SCADA.Benito_Juarez.Captacion.Carcamos.AP_BJ_CAR_11.Caudalimetro.L1"/>
 </svg>
 <svg atv:refpx="50.001" atv:refpy="82.5" height="23" id="id_21" width="100" x="0.001" xlink:href="ObjectTypes.PROJECT.Caudalimetro.line_mini" y="69">
  <atv:argument name="base" value="AGENT.OBJECTS.SCADA.Benito_Juarez.Captacion.Carcamos.AP_BJ_CAR_11.Caudalimetro.L2"/>
 </svg>
 <svg atv:refpx="170.002" atv:refpy="61.5" height="23" id="id_24" width="100" x="120.002" xlink:href="ObjectTypes.PROJECT.Caudalimetro.line_mini" y="48">
  <atv:argument name="base" value="AGENT.OBJECTS.SCADA.Benito_Juarez.Captacion.Carcamos.AP_BJ_CAR_10.Caudalimetro.L1"/>
 </svg>
 <svg atv:refpx="288.751" atv:refpy="61.5" height="23" id="id_26" width="100" x="238.751" xlink:href="ObjectTypes.PROJECT.Caudalimetro.line_mini" y="48">
  <atv:argument name="base" value="AGENT.OBJECTS.SCADA.Benito_Juarez.Zona_Urbana.Carcamos_AP.AP_BJ_CAR_AEROPUERTO_ZONA_URBANA.Caudalimetro.L1"/>
 </svg>
 <svg atv:refpx="288.751" atv:refpy="214.5" height="23" id="id_33" width="100" x="238.751" xlink:href="ObjectTypes.PROJECT.Caudalimetro.line_mini" y="201">
  <atv:argument name="base" value="AGENT.OBJECTS.SCADA.Benito_Juarez.Zona_Urbana.Carcamos_AP.AP_BJ_CAR_UXMAL.Caudalimetro.L_63"/>
 </svg>
 <svg atv:refpx="288.751" atv:refpy="168.5" height="23" id="id_34" width="100" x="238.751" xlink:href="ObjectTypes.PROJECT.Caudalimetro.line_mini" y="155">
  <atv:argument name="base" value="AGENT.OBJECTS.SCADA.Benito_Juarez.Zona_Urbana.Carcamos_AP.AP_BJ_CAR_UXMAL.Caudalimetro.L_29"/>
 </svg>
 <svg atv:refpx="288.751" atv:refpy="191.5" height="23" id="id_35" width="100" x="238.751" xlink:href="ObjectTypes.PROJECT.Caudalimetro.line_mini" y="178">
  <atv:argument name="base" value="AGENT.OBJECTS.SCADA.Benito_Juarez.Zona_Urbana.Carcamos_AP.AP_BJ_CAR_UXMAL.Caudalimetro.L_08"/>
 </svg>
 <svg atv:refpx="488.261" atv:refpy="213.5" height="23" id="id_36" width="100" x="438.261" xlink:href="ObjectTypes.PROJECT.Caudalimetro.line_mini" y="200">
  <atv:argument name="base" value="AGENT.OBJECTS.SCADA.Benito_Juarez.Zona_Urbana.Carcamos_AP.AP_BJ_CAR_LUCIERNAGAS.Caudalimetro.L1"/>
 </svg>
 <svg atv:refpx="488.261" atv:refpy="60.5" height="23" id="id_37" width="100" x="438.261" xlink:href="ObjectTypes.PROJECT.Caudalimetro.line_mini" y="47">
  <atv:argument name="base" value="AGENT.OBJECTS.SCADA.Benito_Juarez.Zona_Urbana.Carcamos_AP.AP_BJ_CAR_LAS_AMERICAS.L1"/>
 </svg>
 <g atv:refpx="412.251" atv:refpy="611.999" id="id_38" transform="matrix(-1,0,0,-1,776.2507,1094.4998)">
  <line atv:refpx="366" atv:refpy="483.001" id="id_39" stroke="#000000" stroke-linecap="round" stroke-linejoin="round" stroke-width="2" x1="344" x2="388" y1="482.501" y2="482.501"/>
  <polygon atv:refpx="346.593" atv:refpy="482.501" fill="#000018" id="id_40" points="352.189,492.5 352.189,472.5 339,482.5 339,482.5" stroke="#000000" stroke-linecap="round" stroke-linejoin="round" stroke-opacity="0" stroke-width="2.015"/>
 </g>
 <svg atv:refpx="170.002" atv:refpy="169.5" height="23" id="id_41" width="100" x="120.002" xlink:href="ObjectTypes.PROJECT.Caudalimetro.line_mini" y="156">
  <atv:argument name="base" value="AGENT.OBJECTS.SCADA.Benito_Juarez.Zona_Urbana.Carcamos_AP.AP_BJ_CAR_LUCIERNAGAS.Caudalimetro.L1"/>
 </svg>
 <line atv:refpx="305.625" atv:refpy="375.5" id="id_47" stroke="#000000" stroke-linecap="round" stroke-linejoin="round" stroke-width="2.015" x1="385.251" x2="226" y1="400" y2="400"/>
 <svg atv:refpx="488.261" atv:refpy="316.5" height="23" id="id_51" width="100" x="438.261" xlink:href="ObjectTypes.PROJECT.Caudalimetro.line_mini" y="303">
  <atv:argument name="base" value="AGENT.OBJECTS.SCADA.Benito_Juarez.Zona_Urbana.Carcamos_AP.AP_BJ_CAR_BONAMPAK.Caudalimetro.L1"/>
 </svg>
 <svg atv:refpx="640.375" atv:refpy="316.5" height="23" id="id_52" width="100" x="590.375" xlink:href="ObjectTypes.PROJECT.Caudalimetro.line_mini" y="303">
  <atv:argument name="base" value="AGENT.OBJECTS.SCADA.Benito_Juarez.Zona_Urbana.Carcamos_AP.AP_BJ_CAR_PUNTA_SAM.Caudalimetro.L1"/>
 </svg>
 <svg atv:refpx="640.375" atv:refpy="213.5" height="23" id="id_53" width="100" x="590.375" xlink:href="ObjectTypes.PROJECT.Caudalimetro.line_mini" y="200">
  <atv:argument name="base" value="AGENT.OBJECTS.SCADA.Benito_Juarez.Captacion.Carcamos.AP_BJ_CAR_1A.Caudalimetro.L1"/>
 </svg>
 <svg atv:refpx="488.261" atv:refpy="428.5" height="23" id="id_54" width="100" x="438.261" xlink:href="ObjectTypes.PROJECT.Caudalimetro.line_mini" y="415">
  <atv:argument name="base" value="AGENT.OBJECTS.SCADA.Benito_Juarez.Zona_Urbana.Carcamos_AP.AP_BJ_CAR_CUMBRES.L1"/>
 </svg>
 <svg atv:refpx="488.256" atv:refpy="566.5" height="23" id="id_56" width="100" x="438.256" xlink:href="ObjectTypes.PROJECT.Caudalimetro.line_mini" y="553">
  <atv:argument name="base" value="AGENT.OBJECTS.SCADA.Benito_Juarez.Zona_Urbana.Carcamos_AP.AP_BJ_CAR_2000_ORIENTE.L500.Caudalimetro.L_500"/>
 </svg>
 <svg atv:refpx="488.261" atv:refpy="648.5" height="23" id="id_57" width="100" x="438.261" xlink:href="ObjectTypes.PROJECT.Caudalimetro.line_mini" y="635">
  <atv:argument name="base" value="AGENT.OBJECTS.SCADA.Benito_Juarez.Zona_Urbana.Carcamos_AP.AP_BJ_CAR_TABLE.Caudalimetro.L1"/>
 </svg>
 <svg atv:refpx="640.422" atv:refpy="537.5" height="23" id="id_58" width="100" x="590.422" xlink:href="ObjectTypes.PROJECT.Caudalimetro.line_mini" y="524">
  <atv:argument name="base" value="AGENT.OBJECTS.SCADA.Benito_Juarez.Zona_Urbana.Carcamos_AP.AP_BJ_CAR_ALMENDROS.L1"/>
 </svg>
 <svg atv:refpx="640.422" atv:refpy="620.5" height="23" id="id_62" transform="matrix(1.0306,0,0,1,0,0)" width="100" x="571.394" xlink:href="ObjectTypes.PROJECT.Caudalimetro.line_mini" y="607">
  <atv:argument name="base" value="AGENT.OBJECTS.SCADA.Benito_Juarez.Zona_Urbana.Carcamos_AP.AP_BJ_CAR_ANDALUCIA.LSANTAFE.Caudalimetro.L_SANTA_FE"/>
 </svg>
 <svg atv:refpx="488.256" atv:refpy="543.5" height="23" id="id_66" width="100" x="438.256" xlink:href="ObjectTypes.PROJECT.Caudalimetro.line_mini" y="530">
  <atv:argument name="base" value="AGENT.OBJECTS.SCADA.Benito_Juarez.Zona_Urbana.Carcamos_AP.AP_BJ_CAR_2000_ORIENTE.L40.Caudalimetro.L_40"/>
 </svg>
 <svg atv:refpx="640.424" atv:refpy="643.5" height="23" id="id_69" transform="matrix(1.0306,0,0,1,0,0)" width="100" x="571.407" xlink:href="ObjectTypes.PROJECT.Caudalimetro.line_mini" y="630">
  <atv:argument name="base" value="AGENT.OBJECTS.SCADA.Benito_Juarez.Zona_Urbana.Carcamos_AP.AP_BJ_CAR_ANDALUCIA.LITZALES.Caudalimetro.L_ITZALES"/>
 </svg>
 <svg atv:refpx="640.424" atv:refpy="666.5" height="23" id="id_70" transform="matrix(1.0306,0,0,1,0,0)" width="100" x="571.407" xlink:href="ObjectTypes.PROJECT.Caudalimetro.line_mini" y="653">
  <atv:argument name="base" value="AGENT.OBJECTS.SCADA.Benito_Juarez.Zona_Urbana.Carcamos_AP.AP_BJ_CAR_ANDALUCIA.L500.Caudalimetro.L_500"/>
 </svg>
 <polygon atv:refpx="225.593" atv:refpy="375.001" fill="#000018" id="id_71" points="233.189,410 233.189,390 220,400 220,400" stroke="#000000" stroke-linecap="round" stroke-linejoin="round" stroke-opacity="0" stroke-width="2.015"/>
 <polygon atv:refpx="170.004" atv:refpy="212.595" fill="#000018" id="id_22" points="180.001,209 160.001,209 170.001,222.189 170.001,222.189" stroke="#000000" stroke-linecap="round" stroke-linejoin="round" stroke-opacity="0" stroke-width="2.015"/>
 <svg atv:refpx="175" atv:refpy="428.5" height="23" id="id_42" width="100" x="120" xlink:href="ObjectTypes.PROJECT.Caudalimetro.line_mini" y="414">
  <atv:argument name="base" value="AGENT.OBJECTS.SCADA.Benito_Juarez.Zona_Urbana.Carcamos_AP.AP_BJ_CAR_0+000.L24.Caudalimetro.L_24"/>
 </svg>
 <svg atv:refpx="175" atv:refpy="451.5" height="23" id="id_45" width="100" x="120" xlink:href="ObjectTypes.PROJECT.Caudalimetro.line_mini" y="437">
  <atv:argument name="base" value="AGENT.OBJECTS.SCADA.Benito_Juarez.Zona_Urbana.Carcamos_AP.AP_BJ_CAR_0+000.L16.Caudalimetro.L_16"/>
 </svg>
 <svg atv:refpx="175" atv:refpy="475.5" height="23" id="id_49" width="100" x="120" xlink:href="ObjectTypes.PROJECT.Caudalimetro.line_mini" y="461">
  <atv:argument name="base" value="AGENT.OBJECTS.SCADA.Benito_Juarez.Zona_Urbana.Carcamos_AP.AP_BJ_CAR_0+000.L6.Caudalimetro.L_6"/>
 </svg>
</svg>
