<?xml version='1.0' encoding='UTF-8' standalone='no'?>
<svg xmlns:xlink="http://www.w3.org/1999/xlink" height="600" xmlns:atv="http://webmi.atvise.com/2007/svgext" xmlns="http://www.w3.org/2000/svg" width="400" version="1.2">
 <defs/>
 <metadata>
  <atv:gridconfig enabled="true" gridstyle="lines" height="20" width="20"/>
  <atv:snapconfig enabled="true" height="20" width="20"/>
 </metadata>
 <text font-family="Arial" y="39.5" font-weight="bold" font-size="16" atv:refpx="31" id="id_0" fill="#000000" atv:refpy="35" x="24">XX</text>
 <text font-family="Arial" y="99.5" font-size="16" atv:refpx="36.867" id="id_2" fill="#000000" atv:refpy="95" x="25">Light:</text>
 <svg y="80" height="30" atv:refpx="230" id="id_3" xlink:href="SYSTEM.LIBRARY.ATVISE.OBJECTDISPLAYS.Advanced.button_switch" width="80" transform="matrix(1.75,0,0,1,0,0)" atv:refpy="95" x="91.429">
  <atv:argument name="base" prefix="base" value=".LightOn"/>
  <atv:overwrite id="id_6" transform="matrix(0.5714,0,0,1,0,0)" width="138"/>
  <atv:overwrite id="button_label" transform="matrix(0.5714,0,0,1,0,0)" x="70"/>
  <atv:overwrite id="button_symbol_off" transform="matrix(0.5714,0,0,1,0,0)" x="60"/>
  <atv:overwrite id="button_symbol_on" transform="matrix(0.5714,0,0,1,0,0)" x="60"/>
  <atv:overwrite id="blinking_frame" transform="matrix(0.5714,0,0,1,0,0)" width="136"/>
  <atv:overwrite id="button_stroke" transform="matrix(0.5714,0,0,1,0,0)" width="136"/>
  <atv:overwrite id="button_bg" transform="matrix(0.5714,0,0,1,0,0)" width="138"/>
  <atv:overwrite id="id_1" transform="matrix(0.5714,0,0,1,0,0)" width="140"/>
 </svg>
 <text font-family="Arial" y="159.5" font-size="16" atv:refpx="59.601" id="id_4" fill="#000000" atv:refpy="155" x="25">TempSetpoint:</text>
 <svg y="140" height="30" atv:refpx="230" id="id_5" xlink:href="SYSTEM.LIBRARY.ATVISE.OBJECTDISPLAYS.Advanced.rocker_switch_horizontal" width="160" transform="matrix(0.875,0,0,1,0,0)" atv:refpy="155" x="182.857">
  <atv:argument name="base" prefix="base" value=".TempSetpoint"/>
  <atv:overwrite id="icon_plus" transform="matrix(1.1429,0,0,1,-22.8571,0)"/>
  <atv:overwrite id="inc_stroke" transform="matrix(1.1429,0,0,1,0,0)" x="101"/>
  <atv:overwrite id="inc_bg" transform="matrix(1.1429,0,0,1,0,0)" x="101"/>
  <atv:overwrite id="id_5" transform="matrix(1.1429,0,0,1,0,0)" x="100"/>
  <atv:overwrite id="icon_minus" transform="matrix(1.1429,0,0,1,0,0)"/>
  <atv:overwrite id="dec_stroke" transform="matrix(1.1429,0,0,1,0,0)"/>
  <atv:overwrite id="dec_bg" transform="matrix(1.1429,0,0,1,0,0)"/>
  <atv:overwrite id="id_20" transform="matrix(1.1429,0,0,1,0,0)"/>
  <atv:overwrite id="input_label" transform="matrix(1.1429,0,0,1,0,0)" x="70"/>
  <atv:overwrite id="blinking_frame" transform="matrix(1.1429,0,0,1,0,0)" x="24"/>
  <atv:overwrite id="input_field_widget" transform="matrix(1.1429,0,0,1,0,0)" width="52"/>
  <atv:overwrite id="focus_frame" transform="matrix(1.1429,0,0,1,0,0)" width="57"/>
  <atv:overwrite id="input_bg" transform="matrix(1.1429,0,0,1,0,0)" width="58"/>
  <atv:overwrite id="id_19" transform="matrix(1.1429,0,0,1,0,0)" width="60"/>
 </svg>
 <text font-family="Arial" y="219.5" font-size="16" atv:refpx="64.001" id="id_6" fill="#000000" atv:refpy="215" x="25">TempMeasured:</text>
 <svg y="282.353" height="400" atv:refpx="200" id="id_7" xlink:href="SYSTEM.LIBRARY.ATVISE.OBJECTDISPLAYS.Advanced.highcharts.highcharts" width="400" transform="matrix(1,0,0,0.85,0,0)" atv:refpy="410" x="0">
  <atv:argument name="series1series_address" prefix="base" value=".TempSetpoint"/>
  <atv:argument name="series2series_address" prefix="base" value=".TempMeasured"/>
  <atv:argument name="series2series_color" value="#0408ec"/>
  <atv:argument name="series1series_dashStyle" value="DashDot"/>
  <atv:argument name="series2series_marker_enabled" value="false"/>
  <atv:argument name="series1series_color" value="#00a200"/>
  <atv:overwrite y="181" id="label" transform="matrix(1,0,0,1.1765,0,0)"/>
  <atv:overwrite height="338" id="border" transform="matrix(1,0,0,1.1765,0,0)"/>
  <atv:overwrite height="340" id="id_3" transform="matrix(1,0,0,1.1765,0,0)"/>
 </svg>
 <text font-family="Arial" y="219.5" font-size="16" atv:refpx="171" id="id_8" fill="#000000" atv:refpy="215" x="165">XX</text>
 <script type="text/ecmascript"><![CDATA[webMI.addOnload(function(e) {
var id = "id_0";
var value = true;
return function(value) {
webMI.gfx.setText(id,webMI.query.base.replace("AGENT.OBJECTS.",""))
} (value);
});
webMI.data.subscribe(webMI.query["base"] + ".TempMeasured", function(e) {
var id = "id_8";
var value = e.value;
webMI.gfx.setText(id, webMI.sprintf("T{%2f}", value));

});
]]></script>
</svg>
