<?xml version='1.0' encoding='UTF-8' standalone='no'?>
<svg height="600" version="1.2" width="447.82999999999998" xmlns="http://www.w3.org/2000/svg" xmlns:atv="http://webmi.atvise.com/2007/svgext" xmlns:xlink="http://www.w3.org/1999/xlink">
 <defs/>
 <metadata>
  <atv:parameter behavior="optional" defaultvalue="Nombre del equipo" desc="Nombre de la estaci贸n de rebombeo" name="pumping_station" substitute="$pumping_station$" valuetype="address"/>
  <atv:gridconfig enabled="true" gridstyle="lines" height="20" width="20"/>
  <atv:snapconfig enabled="true" height="1" width="1"/>
 </metadata>
 <script atv:desc="" atv:name="" type="text/ecmascript"><![CDATA[



webMI.data.subscribe(webMI.query["base"] + ".name", function(e) {
var id = "id_0";
var value = e.value;
webMI.gfx.setText(id, value);

});
]]><![CDATA[
webMI.data.subscribe(webMI.query["base"] + ".name", function(e) {
var id = "id_7";
var value = e.value;
webMI.gfx.setText(id, value);

});]]><![CDATA[
webMI.data.subscribe(webMI.query["base"] + ".name", function(e) {
var id = "id_11";
var value = e.value;
webMI.gfx.setText(id, value);

});]]><![CDATA[
webMI.data.subscribe(webMI.query["base"] + ".name", function(e) {
var id = "id_15";
var value = e.value;
webMI.gfx.setText(id, value);

});]]></script>
 <text atv:refpx="69.727" atv:refpy="30" fill="#000088" font-family="Arial" font-size="22" font-weight="bold" id="id_0" transform="matrix(1.2022,0,0,1.4286,0,0)" x="4.5" y="25.5">$pumping_station$</text>
 <text atv:refpx="40.39" atv:refpy="499.857" fill="#000088" font-family="Arial" font-size="14" font-weight="bold" id="id_5" text-anchor="end" transform="matrix(1.2022,0,0,1.4286,0.2022,-206.5852)" x="73.5" y="499">Corriente:</text>
 <svg atv:refpx="224.5" atv:refpy="410" height="400" id="id_6" transform="matrix(1.1125,0,0,0.345,0,0)" width="400" x="1.798" xlink:href="SYSTEM.LIBRARY.ATVISE.OBJECTDISPLAYS.Advanced.highcharts.highcharts" y="988.406">
  <atv:argument name="trendName" value=".electrical"/>
  <atv:argument name="series1series_address" prefix="base" value=".current"/>
  <atv:argument name="series1series_name" value="T{Corriente}"/>
  <atv:argument name="series1series_color" value="#248713"/>
  <atv:argument name="series2series_address" prefix="base" value=".voltage"/>
  <atv:argument name="series1series_tooltip_valueSuffix" value="A"/>
  <atv:argument name="series2series_tooltip_valueSuffix" value="V"/>
  <atv:argument name="series2series_marker_enabled" value="false"/>
  <atv:argument name="series1series_marker_enabled" value="false"/>
  <atv:argument name="series2series_name" value="T{Voltaje}"/>
  <atv:argument name="series3series_address" prefix="base" value=".power"/>
  <atv:argument name="series3series_name" value="T{Potencia}"/>
  <atv:argument name="series2series_color" value="#a66437"/>
  <atv:argument name="series3series_color" value="#39393d"/>
  <atv:argument name="series3series_tooltip_valueSuffix" value="KW"/>
  <atv:argument name="series3series_tooltip_valueDecimals" value="2"/>
  <atv:argument name="series2series_tooltip_valueDecimals" value="2"/>
  <atv:argument name="series1series_tooltip_valueDecimals" value="2"/>
  <atv:argument name="series4series_address" prefix="base" value=".FP"/>
  <atv:argument name="series4series_name" value="T{FP}"/>
  <atv:argument name="series4series_color" value="#9224bd"/>
  <atv:argument name="series4series_tooltip_valueDecimals" value="2"/>
  <atv:overwrite id="highchart_label" transform="matrix(0.8989,0,0,2.8986,0,0)" x="52" y="80"/>
  <atv:overwrite height="136" id="border" transform="matrix(0.8989,0,0,2.8986,0,0)" width="443"/>
  <atv:overwrite height="138" id="id_3" transform="matrix(0.8989,0,0,2.8986,0,0)" width="445"/>
 </svg>
 <text atv:refpx="30.848" atv:refpy="538.857" fill="#000088" font-family="Arial" font-size="14" font-weight="bold" id="id_7" text-anchor="end" transform="matrix(1.2022,0,0,1.4286,0.2022,-223.3006)" x="53.5" y="538">Voltaje:</text>
 <text atv:refpx="37.165" atv:refpy="577.857" fill="#000088" font-family="Arial" font-size="14" font-weight="bold" id="id_8" text-anchor="end" transform="matrix(1.2022,0,0,1.4286,0.2022,-240.016)" x="67.5" y="577">Potencia:</text>
 <text atv:refpx="284.131" atv:refpy="65.857" fill="#000088" font-family="Arial" font-size="14" font-weight="bold" id="id_9" transform="matrix(1.2022,0,0,1.4286,-50.3478,-20.5728)" x="253.5" y="65">Presi贸n:</text>
 <text atv:refpx="227.182" atv:refpy="306.857" fill="#000088" font-family="Arial" font-size="14" font-weight="bold" id="id_11" text-anchor="middle" transform="matrix(1.2022,0,0,1.4286,-45.0906,-123.8654)" x="231.5" y="306"/>
 <text atv:refpx="45.572" atv:refpy="66.857" fill="#000088" font-family="Arial" font-size="14" font-weight="bold" id="id_15" transform="matrix(1.2022,0,0,1.4286,-4.2462,-21.0014)" x="25.5" y="66">Flujo:</text>
 <text atv:refpx="221.715" atv:refpy="266.857" fill="#000088" font-family="Arial" font-size="14" font-weight="bold" id="id_17" transform="matrix(1.2022,0,0,1.4286,-29.1168,-106.7214)" x="148.5" y="266">Horas de operaci贸n</text>
 <text atv:refpx="203.776" atv:refpy="499.857" fill="#000088" font-family="Arial" font-size="14" font-weight="bold" id="id_18" transform="matrix(1.2022,0,0,1.4286,-37.6092,-206.5852)" x="190.5" y="499">F.P.:</text>
 <svg atv:refpx="222.499" atv:refpy="158" height="400" id="id_20" transform="matrix(1.1125,0,0,0.345,0,0)" width="400" x="0" xlink:href="SYSTEM.LIBRARY.ATVISE.OBJECTDISPLAYS.Advanced.highcharts.highcharts" y="257.971">
  <atv:argument name="trendName" value=".hydrologic"/>
  <atv:argument name="series1series_address" prefix="base" value=".pressure"/>
  <atv:argument name="series1series_name" value="T{Presi贸n}"/>
  <atv:argument name="series1series_color" value="#248713"/>
  <atv:argument name="series2series_address" prefix="base" value=".flow"/>
  <atv:argument name="series1series_tooltip_valueSuffix" value="kg/cm2"/>
  <atv:argument name="series2series_tooltip_valueSuffix" value="l/s"/>
  <atv:argument name="series2series_marker_enabled" value="false"/>
  <atv:argument name="series1series_marker_enabled" value="false"/>
  <atv:argument name="series2series_name" value="T{Flujo}"/>
  <atv:argument name="series3series_name" value=""/>
  <atv:argument name="series2series_color" value="#a66437"/>
  <atv:argument name="series3series_color" value="#39393d"/>
  <atv:argument name="series2series_tooltip_valueDecimals" value="2"/>
  <atv:argument name="series1series_tooltip_valueDecimals" value="2"/>
  <atv:argument name="series4series_name" value=""/>
  <atv:argument name="series4series_color" value="#9224bd"/>
  <atv:overwrite id="highchart_label" transform="matrix(0.8989,0,0,2.8986,0,0)" x="52" y="80"/>
  <atv:overwrite height="136" id="border" transform="matrix(0.8989,0,0,2.8986,0,0)" width="443"/>
  <atv:overwrite height="138" id="id_3" transform="matrix(0.8989,0,0,2.8986,0,0)" width="445"/>
 </svg>
 <svg atv:refpx="353.5" atv:refpy="66.5" height="31" id="id_24" transform="matrix(0.8875,0,0,1.1935,0,0)" width="80" x="375.211" xlink:href="SYSTEM.LIBRARY.PROJECT.OBJECTDISPLAYS.FlatComponents.EditableLabel" y="40.216">
  <atv:argument name="base" prefix="base" value=".pressure"/>
  <atv:argument name="unit" value="T{kg/cm2}"/>
  <atv:argument name="postDecimal" value="2"/>
  <atv:argument name="fillNotEditable" value="#000000"/>
  <atv:argument name="editable" value="No"/>
  <atv:argument name="fontSize" value="14"/>
  <atv:overwrite id="input_label" transform="matrix(1.1268,0,0,0.8378,0,0)" x="35.5" y="24.5"/>
  <atv:overwrite height="36" id="input_bg" transform="matrix(1.1268,0,0,0.8378,0,0)" width="70"/>
  <atv:overwrite height="52.5" id="blinking_frame" transform="matrix(1.1268,0,0,0.8378,0,0)" width="143.326"/>
 </svg>
 <svg atv:refpx="119.5" atv:refpy="66.5" height="31" id="id_25" transform="matrix(0.8875,0,0,1.1935,0,0)" width="80" x="94.648" xlink:href="SYSTEM.LIBRARY.PROJECT.OBJECTDISPLAYS.FlatComponents.EditableLabel" y="40.216">
  <atv:argument name="base" prefix="base" value=".flow"/>
  <atv:argument name="unit" value="T{l/s}"/>
  <atv:argument name="postDecimal" value="2"/>
  <atv:argument name="fillNotEditable" value="#000000"/>
  <atv:argument name="editable" value="No"/>
  <atv:argument name="fontSize" value="14"/>
  <atv:overwrite id="input_label" transform="matrix(1.1268,0,0,0.8378,0,0)" x="35.5" y="24.5"/>
  <atv:overwrite height="36" id="input_bg" transform="matrix(1.1268,0,0,0.8378,0,0)" width="70"/>
  <atv:overwrite height="52.5" id="blinking_frame" transform="matrix(1.1268,0,0,0.8378,0,0)" width="143.326"/>
 </svg>
 <svg atv:refpx="136.5" atv:refpy="500.5" height="31" id="id_26" transform="matrix(0.8875,0,0,1.1935,0,0)" width="80" x="113.803" xlink:href="SYSTEM.LIBRARY.PROJECT.OBJECTDISPLAYS.FlatComponents.EditableLabel" y="403.854">
  <atv:argument name="base" prefix="base" value=".current"/>
  <atv:argument name="unit" value="T{A}"/>
  <atv:argument name="postDecimal" value="2"/>
  <atv:argument name="fillNotEditable" value="#000000"/>
  <atv:argument name="editable" value="No"/>
  <atv:argument name="fontSize" value="14"/>
  <atv:overwrite id="input_label" transform="matrix(1.1268,0,0,0.8379,0,0)" x="35.5" y="24.499"/>
  <atv:overwrite height="35.998" id="input_bg" transform="matrix(1.1268,0,0,0.8379,0,0)" width="70"/>
  <atv:overwrite height="52.498" id="blinking_frame" transform="matrix(1.1268,0,0,0.8379,0,0)" width="143.326"/>
 </svg>
 <svg atv:refpx="136.5" atv:refpy="545.5" height="31" id="id_27" transform="matrix(0.8875,0,0,1.1935,0,0)" width="80" x="113.803" xlink:href="SYSTEM.LIBRARY.PROJECT.OBJECTDISPLAYS.FlatComponents.EditableLabel" y="436.531">
  <atv:argument name="base" prefix="base" value=".voltage"/>
  <atv:argument name="unit" value="T{V}"/>
  <atv:argument name="postDecimal" value="2"/>
  <atv:argument name="fillNotEditable" value="#000000"/>
  <atv:argument name="editable" value="No"/>
  <atv:argument name="fontSize" value="14"/>
  <atv:overwrite id="input_label" transform="matrix(1.1268,0,0,0.8379,0,0)" x="35.5" y="24.499"/>
  <atv:overwrite height="35.998" id="input_bg" transform="matrix(1.1268,0,0,0.8379,0,0)" width="70"/>
  <atv:overwrite height="52.498" id="blinking_frame" transform="matrix(1.1268,0,0,0.8379,0,0)" width="143.326"/>
 </svg>
 <svg atv:refpx="136.5" atv:refpy="584.5" height="31" id="id_28" transform="matrix(0.8875,0,0,1.1935,0,0)" width="80" x="113.803" xlink:href="SYSTEM.LIBRARY.PROJECT.OBJECTDISPLAYS.FlatComponents.EditableLabel" y="469.208">
  <atv:argument name="base" prefix="base" value=".power"/>
  <atv:argument name="unit" value="T{KW}"/>
  <atv:argument name="postDecimal" value="2"/>
  <atv:argument name="fillNotEditable" value="#000000"/>
  <atv:argument name="editable" value="No"/>
  <atv:argument name="fontSize" value="14"/>
  <atv:overwrite id="input_label" transform="matrix(1.1268,0,0,0.8379,0,0)" x="35.5" y="24.499"/>
  <atv:overwrite height="35.998" id="input_bg" transform="matrix(1.1268,0,0,0.8379,0,0)" width="70"/>
  <atv:overwrite height="52.498" id="blinking_frame" transform="matrix(1.1268,0,0,0.8379,0,0)" width="143.326"/>
 </svg>
 <svg atv:refpx="267.5" atv:refpy="500.499" height="31" id="id_29" transform="matrix(0.8875,0,0,1.1935,0,0)" width="80" x="261.408" xlink:href="SYSTEM.LIBRARY.PROJECT.OBJECTDISPLAYS.FlatComponents.EditableLabel" y="403.854">
  <atv:argument name="base" prefix="base" value=".FP"/>
  <atv:argument name="postDecimal" value="2"/>
  <atv:argument name="fillNotEditable" value="#000000"/>
  <atv:argument name="editable" value="No"/>
  <atv:argument name="fontSize" value="14"/>
  <atv:overwrite id="input_label" transform="matrix(1.1268,0,0,0.8379,0,0)" x="35.5" y="24.499"/>
  <atv:overwrite height="35.998" id="input_bg" transform="matrix(1.1268,0,0,0.8379,0,0)" width="70"/>
  <atv:overwrite height="52.498" id="blinking_frame" transform="matrix(1.1268,0,0,0.8379,0,0)" width="143.326"/>
 </svg>
</svg>
