<?xml version='1.0' encoding='UTF-8' standalone='no'?>
<svg height="445" version="1.2" width="640" xmlns="http://www.w3.org/2000/svg" xmlns:atv="http://webmi.atvise.com/2007/svgext" xmlns:xlink="http://www.w3.org/1999/xlink">
 <defs/>
 <metadata>
  <atv:gridconfig enabled="true" gridstyle="lines" height="20" width="20"/>
  <atv:snapconfig enabled="true" height="1" width="1"/>
 </metadata>
 <g atv:insensitive="true" atv:refpx="0" atv:refpy="0" id="id_11" transform="matrix(0.5,0,0,0.5795,0,0)">
  <rect atv:refpx="640" atv:refpy="384" fill="#ffffff" height="768.00" id="id_12" width="1280.00" x="0" y="0"/>
 </g>
 <script atv:desc="" atv:name="" type="text/ecmascript"/>
 <rect atv:refpx="402.791" atv:refpy="47" fill="#000088" fill-opacity="0" height="70" id="id_58" rx="0" ry="0" stroke="#000072" stroke-width="1" width="361" x="191" y="12"/>
 <text atv:refpx="283.835" atv:refpy="39.149" fill="#000018" font-family="Arial" font-size="40" font-weight="bold" id="id_106" transform="matrix(0.612,0,0,0.6329,84.972,6.2407)" x="224" y="58.5">PTAR Puerto Aventuras</text>
 <polyline atv:refpx="-336.895" atv:refpy="139.5" fill="#000018" fill-opacity="0" id="id_76" points="481,153 376,153 376,93 376,93" stroke="#000000" stroke-linecap="round" stroke-linejoin="round" stroke-opacity="0.956863" stroke-width="2"/>
 <polygon atv:refpx="480" atv:refpy="247.5" fill="#000018" id="id_77" points="386,96 366,96 376,83 376,83" stroke="#000000" stroke-linecap="round" stroke-linejoin="round" stroke-opacity="0" stroke-width="2"/>
 <polyline atv:refpx="1020.895" atv:refpy="98.408" fill="#000018" fill-opacity="0" id="id_5" points="133,152 238,152 238,93 238,93" stroke="#000000" stroke-linecap="round" stroke-linejoin="round" stroke-opacity="0.956863" stroke-width="2"/>
 <polygon atv:refpx="480" atv:refpy="247.5" fill="#000018" id="id_6" points="228,96 248,96 238,83 238,83" stroke="#000000" stroke-linecap="round" stroke-linejoin="round" stroke-opacity="0" stroke-width="2"/>
 <svg atv:refpx="525.971" atv:refpy="177.987" height="63.11" id="id_2" transform="matrix(1.5038,0,0,1.4578,0,0)" width="133" x="281.96" xlink:href="ObjectTypes.PROJECT.ElementoLineaAR.Principal" y="90.549">
  <atv:argument name="base" value="AGENT.OBJECTS.SCADA.Solidaridad.Cuencas.Cuenca_PTAR_PTOA.Carcamo_Puerto_Aventuras"/>
 </svg>
 <svg atv:refpx="105.995" atv:refpy="178.999" height="63.11" id="id_3" transform="matrix(1.5038,0,0,1.4578,0,0)" width="133" x="3.99" xlink:href="ObjectTypes.PROJECT.ElementoLineaAR.Principal" y="91.235">
  <atv:argument name="base" value="AGENT.OBJECTS.SCADA.Solidaridad.Cuencas.Cuenca_PTAR_PTOA.Cárcamo_Puerto_Maya_3"/>
 </svg>
</svg>
