<?xml version='1.0' encoding='UTF-8' standalone='no'?>
<svg height="350" version="1.2" width="460" xmlns="http://www.w3.org/2000/svg" xmlns:atv="http://webmi.atvise.com/2007/svgext" xmlns:xlink="http://www.w3.org/1999/xlink">
 <defs/>
 <metadata>
  <atv:parameter behavior="optional" defaultvalue="SYSTEM.GLOBALS.atvAlarmIndication" name="alarmIndication" valuetype="global"/>
  <atv:parameter behavior="optional" defaultvalue="SYSTEM.GLOBALS.atvStatusIndication" desc="status indication" name="statusIndication" valuetype="global"/>
  <atv:parameter behavior="optional" defaultvalue="#00ff00" name="autocolor" valuetype="color"/>
  <atv:gridconfig enabled="true" gridstyle="lines" height="20" width="20"/>
  <atv:snapconfig enabled="true" height="10" width="10"/>
 </metadata>
 <script atv:desc="" atv:href="SYSTEM.LIBRARY.PROJECT.DISPLAYSCRIPTS.indication" atv:name="indication" atv:type="text/ecmascript"/>
 <rect atv:refpx="230" atv:refpy="175" fill="#68676c" fill-opacity="0" height="350" id="id_1" stroke="#68676c" stroke-width="2" width="460" x="0" y="0"/>
 <rect atv:refpx="230" atv:refpy="175" fill="#68676c" fill-opacity="0" height="330" id="blinking_frame" stroke="#68676c" stroke-width="2" visibility="hidden" width="440" x="10" y="10"/>
 <g atv:refpx="140" atv:refpy="90.001" id="id_683" transform="matrix(2.6459,0,0,2.9225,6.4744,-56.7699)">
  <g atv:refpx="0" atv:refpy="0" id="id_504"/>
  <g atv:refpx="0" atv:refpy="0" id="id_505">
   <g atv:refpx="0" atv:refpy="0" id="id_506">
    <g atv:refpx="0" atv:refpy="0" id="id_507"/>
   </g>
  </g>
  <g atv:refpx="0" atv:refpy="0" id="id_508"/>
  <g atv:refpx="0" atv:refpy="0" id="id_509"/>
  <g atv:refpx="0" atv:refpy="0" id="id_510"/>
  <g atv:refpx="0" atv:refpy="0" id="id_511"/>
  <g atv:refpx="0" atv:refpy="0" id="id_512"/>
  <g atv:refpx="50.466" atv:refpy="50.222" id="id_515">
   <rect atv:refpx="8.514" atv:refpy="67.088" fill="#68676C" height="5.953" id="id_516" width="2.835" x="7.096" y="64.111"/>
   <rect atv:refpx="14.75" atv:refpy="67.088" fill="#68676C" height="5.953" id="id_517" width="2.835" x="13.332" y="64.111"/>
   <rect atv:refpx="31.332" atv:refpy="67.088" fill="#68676C" height="5.953" id="id_518" width="2.835" x="29.915" y="64.111"/>
   <rect atv:refpx="50.183" atv:refpy="67.725" fill="#68676C" height="4.394" id="id_519" width="17.575" x="41.395" y="65.528"/>
   <g atv:refpx="20.49" atv:refpy="53.411" id="id_520">
    <clipPath id="id_513">
     <use overflow="visible" xlink:href="#SVGID_229_"/>
    </clipPath>
    <path atv:refpx="20.49" atv:refpy="53.411" clip-path="url(#SVGID_2_)" d="M8.23,41.718C6.664,41.718 5.395,42.987 5.395,44.553L5.395,62.269C5.395,63.835 6.664,65.104 8.23,65.104L32.75,65.104C34.315,65.104 35.584,63.835 35.584,62.269L35.584,44.553C35.584,42.986 34.315,41.718 32.75,41.718Z" fill="#F2D600" id="id_521"/>
   </g>
   <rect atv:refpx="22.12" atv:refpy="53.198" fill="#999999" height="23.811" id="id_522" width="21.26" x="11.49" y="41.292"/>
   <rect atv:refpx="71.868" atv:refpy="30.591" fill="#68676C" height="4.677" id="id_523" width="9.213" x="67.262" y="28.253"/>
   <rect atv:refpx="71.868" atv:refpy="27.686" fill="#68676C" height="2.834" id="id_524" width="12.756" x="65.49" y="26.269"/>
   <rect atv:refpx="82.994" atv:refpy="50.505" fill="#68676C" height="14.173" id="id_525" width="4.394" x="80.797" y="43.418"/>
   <rect atv:refpx="86.962" atv:refpy="50.505" fill="#68676C" height="9.638" id="id_526" width="4.11" x="84.907" y="45.686"/>
   <rect atv:refpx="89.017" atv:refpy="50.505" fill="#68676C" height="12.898" id="id_527" width="2.835" x="87.6" y="44.056"/>
   <rect atv:refpx="50.466" atv:refpy="71.552" fill="#68676C" height="5.244" id="id_528" width="90.708" x="5.112" y="68.93"/>
   <rect atv:refpx="22.758" atv:refpy="42.709" fill="#68676C" height="2.835" id="id_529" width="22.535" x="11.49" y="41.292"/>
   <rect atv:refpx="22.758" atv:refpy="46.706" fill="#68676C" height="1.701" id="id_530" width="22.535" x="11.49" y="45.856"/>
   <rect atv:refpx="22.758" atv:refpy="50.107" fill="#68676C" height="1.701" id="id_531" width="22.535" x="11.49" y="49.257"/>
   <rect atv:refpx="22.758" atv:refpy="53.509" fill="#68676C" height="1.701" id="id_532" width="22.535" x="11.49" y="52.659"/>
   <rect atv:refpx="22.758" atv:refpy="56.91" fill="#68676C" height="1.701" id="id_533" width="22.535" x="11.49" y="56.06"/>
   <rect atv:refpx="22.758" atv:refpy="60.313" fill="#68676C" height="1.701" id="id_534" width="22.535" x="11.49" y="59.462"/>
   <rect atv:refpx="20.489" atv:refpy="57.379" fill="#68676C" height="15.449" id="id_535" width="10.913" x="15.033" y="49.654"/>
   <rect atv:refpx="38.631" atv:refpy="53.268" fill="#68676C" height="17.008" id="id_536" width="6.094" x="35.584" y="44.764"/>
   <rect atv:refpx="71.868" atv:refpy="40.371" fill="#D6D6D6" height="11.48" id="id_537" width="14.457" x="64.64" y="34.631"/>
   <rect atv:refpx="71.868" atv:refpy="51.391" fill="#999999" height="10.842" id="id_538" width="14.457" x="64.64" y="45.97"/>
   <rect atv:refpx="71.868" atv:refpy="62.694" fill="#68676C" height="12.472" id="id_539" width="14.457" x="64.64" y="56.458"/>
   <rect atv:refpx="74.703" atv:refpy="68.859" fill="#68676C" height="6.095" id="id_540" width="14.457" x="67.474" y="65.811"/>
   <rect atv:refpx="51.884" atv:refpy="53.481" fill="#999999" height="25.228" id="id_541" width="25.512" x="39.128" y="40.867"/>
  </g>
 </g>
 <polygon atv:refpx="400" atv:refpy="40" fill="#68676c" id="indicator_1" points="380,60 400,20 420,60 420,60" stroke="#0000ff" stroke-width="0"/>
 <polygon atv:refpx="400" atv:refpy="90" fill="#68676c" id="indicator_2" points="380,110 400,70 420,110 420,110" stroke="#0000ff" stroke-width="0"/>
 <polygon atv:refpx="400" atv:refpy="140" fill="#68676c" id="indicator_3" points="380,160 400,120 420,160 420,160" stroke="#0000ff" stroke-width="0"/>
 <svg atv:refpx="400" atv:refpy="195" height="30" id="button_auto" width="80" x="360" xlink:href="SYSTEM.LIBRARY.ATVISE.OBJECTDISPLAYS.Advanced.button" y="180">
  <atv:argument name="label" value="T{Auto}"/>
 </svg>
 <svg atv:refpx="400" atv:refpy="235" height="30" id="button_manual" width="80" x="360" xlink:href="SYSTEM.LIBRARY.ATVISE.OBJECTDISPLAYS.Advanced.button" y="220">
  <atv:argument name="label" value="T{Manual}"/>
 </svg>
 <svg atv:refpx="400" atv:refpy="275" height="30" id="button_off" width="80" x="360" xlink:href="SYSTEM.LIBRARY.ATVISE.OBJECTDISPLAYS.Advanced.button" y="260">
  <atv:argument name="label" value="T{Off}"/>
 </svg>
 <svg atv:refpx="185" atv:refpy="255" height="400" id="id_0" transform="matrix(0.825,0,0,0.375,0,0)" width="400" x="24.242" xlink:href="SYSTEM.LIBRARY.ATVISE.OBJECTDISPLAYS.Advanced.highcharts.highcharts" y="480">
  <atv:argument name="series1series_address" prefix="base" value=".flow_rate"/>
  <atv:argument name="yAxis1yAxis_labels_format" value="{value} l/s"/>
  <atv:argument name="yAxis1yAxis_title_text" value="Flow rate"/>
  <atv:argument name="yAxis1yAxis_id" value="1"/>
  <atv:argument name="series1series_yAxis" value="1"/>
  <atv:argument name="series1series_marker_enabled" value="false"/>
  <atv:argument name="gshowExportMenu" value="false"/>
  <atv:argument name="xAxisxAxis_tickInterval" value="30000"/>
  <atv:argument name="yAxis1yAxis_opposite" value="right"/>
  <atv:argument name="yAxis1yAxis_labels_align" value="center"/>
  <atv:argument name="trendName" prefix="base" value=".trend1"/>
  <atv:overwrite id="label" transform="matrix(1.2121,0,0,2.6667,0,0)" x="-5.5" y="86"/>
  <atv:overwrite height="148" id="border" transform="matrix(1.2121,0,0,2.6667,0,0)" width="328"/>
  <atv:overwrite height="150" id="id_3" transform="matrix(1.2121,0,0,2.6667,0,0)" width="330"/>
 </svg>
 <svg atv:refpx="400" atv:refpy="315" height="30" id="id_2" width="80" x="360" xlink:href="SYSTEM.LIBRARY.ATVISE.OBJECTDISPLAYS.Advanced.button_switch" y="300">
  <atv:argument name="labelOn" value="T{Alarm on}"/>
  <atv:argument name="labelOff" value="T{Alarm off}"/>
  <atv:argument name="base" prefix="base" value=".alarm"/>
 </svg>
 <script atv:desc="" atv:name="" type="text/ecmascript"/>
</svg>
