<?xml version='1.0' encoding='UTF-8' standalone='no'?>
<svg height="407" version="1.2" width="720" xmlns="http://www.w3.org/2000/svg" xmlns:atv="http://webmi.atvise.com/2007/svgext" xmlns:xlink="http://www.w3.org/1999/xlink">
 <defs/>
 <metadata>
  <atv:gridconfig enabled="false" gridstyle="lines" height="20" width="20"/>
  <atv:snapconfig enabled="true" height="1" width="1"/>
 </metadata>
 <g atv:insensitive="true" atv:refpx="0" atv:refpy="0" id="id_11" transform="matrix(0.5625,0,0,0.53,0,0)">
  <rect atv:refpx="640" atv:refpy="384" fill="#ffffff" height="768.00" id="id_12" width="1280.00" x="0" y="0"/>
 </g>
 <script atv:desc="" atv:name="" type="text/ecmascript"/>
 <polyline atv:refpx="560" atv:refpy="-122.998" fill="#000018" fill-opacity="0" id="id_157" points="554,180 516,180 516,107 516,107" stroke="#000000" stroke-linecap="round" stroke-linejoin="round" stroke-opacity="0.956863" stroke-width="2"/>
 <polyline atv:refpx="46.263" atv:refpy="10.221" fill="#000018" fill-opacity="0" id="id_160" points="554,25 516,25 516,69 516,69" stroke="#000000" stroke-linecap="round" stroke-linejoin="round" stroke-opacity="0.956863" stroke-width="2"/>
 <polyline atv:refpx="76.263" atv:refpy="100.328" fill="#000018" fill-opacity="0" id="id_163" points="554,107 516,107 516,69 516,69" stroke="#000000" stroke-linecap="round" stroke-linejoin="round" stroke-opacity="0.956863" stroke-width="2"/>
 <polyline atv:refpx="324" atv:refpy="234" fill="#000018" fill-opacity="0" id="id_132" points="384,253 384,215 264,215 264,215" stroke="#000000" stroke-linecap="round" stroke-linejoin="round" stroke-opacity="0.956863" stroke-width="2"/>
 <polyline atv:refpx="-564.253" atv:refpy="568" fill="#000018" fill-opacity="0" id="id_145" points="107,355 107,317 240,317 240,317" stroke="#000000" stroke-linecap="round" stroke-linejoin="round" stroke-opacity="0.956863" stroke-width="2"/>
 <line atv:refpx="423.5" atv:refpy="682.776" fill="#000000" id="id_166" stroke="#000000" stroke-linecap="round" stroke-linejoin="round" stroke-width="1" x1="381" x2="381" y1="64.5" y2="120.484"/>
 <polygon atv:refpx="233" atv:refpy="-165.309" fill="#000018" id="id_167" points="392,100 372,100 382,113.191 382,113.191" stroke="#000000" stroke-linecap="round" stroke-linejoin="round" stroke-opacity="0" stroke-width="2.015"/>
 <line atv:refpx="423.5" atv:refpy="682.776" fill="#000000" id="id_154" stroke="#000000" stroke-linecap="round" stroke-linejoin="round" stroke-width="1" x1="380" x2="380" y1="356.984" y2="301"/>
 <polygon atv:refpx="529" atv:refpy="567.5" fill="#000018" id="id_155" points="370,309.191 390,309.191 380,296 380,296" stroke="#000000" stroke-linecap="round" stroke-linejoin="round" stroke-opacity="0" stroke-width="2.015"/>
 <polyline atv:refpx="-687.5" atv:refpy="582" fill="#000018" fill-opacity="0" id="id_148" points="240,355 240,317 380,317 380,317" stroke="#000000" stroke-linecap="round" stroke-linejoin="round" stroke-opacity="0.956863" stroke-width="2"/>
 <polyline atv:refpx="-172.989" atv:refpy="233" fill="#000018" fill-opacity="0" id="id_151" points="553,355 553,317 380,317 380,317" stroke="#000000" stroke-linecap="round" stroke-linejoin="round" stroke-opacity="0.956863" stroke-width="2"/>
 <polyline atv:refpx="107.263" atv:refpy="239" fill="#000018" fill-opacity="0" id="id_135" points="515,253 515,215 384,215 384,215" stroke="#000000" stroke-linecap="round" stroke-linejoin="round" stroke-opacity="0.956863" stroke-width="2"/>
 <polyline atv:refpx="-504.5" atv:refpy="588" fill="#000018" fill-opacity="0" id="id_73" points="148,253 148,215 264,215 264,215" stroke="#000000" stroke-linecap="round" stroke-linejoin="round" stroke-opacity="0.956863" stroke-width="2"/>
 <rect atv:refpx="252.5" atv:refpy="96" fill="#000088" fill-opacity="0" height="186" id="id_58" stroke="#000072" stroke-width="1" width="377" x="64" y="3"/>
 <svg atv:refpx="326.493" atv:refpy="251.495" height="63.11" id="id_0" transform="matrix(0.7519,0,0,0.7289,0,0)" width="133" x="440.883" xlink:href="ObjectTypes.PROJECT.ElementoLineaAR.Principal" y="313.486">
  <atv:argument name="base" value="AGENT.OBJECTS.SCADA.Benito_Juarez.Cuencas.Cuenca_CAR_NPE.Carcamo_ARA"/>
 </svg>
 <svg atv:refpx="543.485" atv:refpy="100.997" height="63.11" id="id_1" transform="matrix(0.7519,0,0,0.7289,0,0)" width="133" x="729.483" xlink:href="ObjectTypes.PROJECT.ElementoLineaAR.Principal" y="4.116">
  <atv:argument name="base" value="AGENT.OBJECTS.SCADA.Benito_Juarez.Cuencas.Cuenca_CAR_NPE.Carcamo_Casas_del_Mar"/>
 </svg>
 <svg atv:refpx="93.987" atv:refpy="266" height="63.11" id="id_3" transform="matrix(0.7519,0,0,0.7289,0,0)" width="133" x="131.666" xlink:href="ObjectTypes.PROJECT.ElementoLineaAR.Principal" y="333.386">
  <atv:argument name="base" value="AGENT.OBJECTS.SCADA.Benito_Juarez.Cuencas.Cuenca_CAR_NPE.Carcamo_Guadalupana"/>
 </svg>
 <svg atv:refpx="382" atv:refpy="369" height="63.11" id="id_4" transform="matrix(0.7519,0,0,0.7289,0,0)" width="133" x="441.558" xlink:href="ObjectTypes.PROJECT.ElementoLineaAR.Principal" y="474.697">
  <atv:argument name="base" value="AGENT.OBJECTS.SCADA.Benito_Juarez.Cuencas.Cuenca_CAR_NPE.Carcamo_Linda_Vista"/>
 </svg>
 <svg atv:refpx="597.996" atv:refpy="219.995" height="63.11" id="id_6" transform="matrix(0.7519,0,0,0.7289,0,0)" width="133" x="728.82" xlink:href="ObjectTypes.PROJECT.ElementoLineaAR.Principal" y="209.905">
  <atv:argument name="base" value="AGENT.OBJECTS.SCADA.Benito_Juarez.Cuencas.Cuenca_CAR_NPE.Carcamo_Paseos_del_Mar"/>
 </svg>
 <svg atv:refpx="598" atv:refpy="164.995" height="63.11" id="id_7" transform="matrix(0.7519,0,0,0.7289,0,0)" width="133" x="728.82" xlink:href="ObjectTypes.PROJECT.ElementoLineaAR.Principal" y="105.639">
  <atv:argument name="base" value="AGENT.OBJECTS.SCADA.Benito_Juarez.Cuencas.Cuenca_CAR_NPE.Carcamo_Poligono_Paraiso"/>
 </svg>
 <svg atv:refpx="499" atv:refpy="369" height="63.11" id="id_9" transform="matrix(0.7519,0,0,0.7289,0,0)" width="133" x="670.318" xlink:href="ObjectTypes.PROJECT.ElementoLineaAR.Principal" y="474.697">
  <atv:argument name="base" value="AGENT.OBJECTS.SCADA.Benito_Juarez.Cuencas.Cuenca_CAR_NPE.Carcamo_R102"/>
 </svg>
 <svg atv:refpx="185" atv:refpy="369" height="63.11" id="id_10" transform="matrix(0.7519,0,0,0.7289,0,0)" width="133" x="252.698" xlink:href="ObjectTypes.PROJECT.ElementoLineaAR.Principal" y="474.697">
  <atv:argument name="base" value="AGENT.OBJECTS.SCADA.Benito_Juarez.Cuencas.Cuenca_CAR_NPE.Carcamo_Tierra_Maya"/>
 </svg>
 <svg atv:refpx="466.486" atv:refpy="251.499" height="63.11" id="id_13" transform="matrix(0.7519,0,0,0.7289,0,0)" width="133" x="627.076" xlink:href="ObjectTypes.PROJECT.ElementoLineaAR.Principal" y="313.486">
  <atv:argument name="base" value="AGENT.OBJECTS.SCADA.Benito_Juarez.Cuencas.Cuenca_CAR_NPE.Carcamo_Villas_del_Mar"/>
 </svg>
 <svg atv:refpx="181" atv:refpy="86.5" height="481" id="id_28" transform="matrix(0.3281,0,0,0.3514,0,0)" width="768" x="259.068" xlink:href="SYSTEM.LIBRARY.PROJECT.RESOURCES%2FSVG%2Finkscape%2Fplanta.svg" y="14.229"/>
 <svg atv:refpx="325.992" atv:refpy="135.998" height="63.11" id="id_2" transform="matrix(0.7519,0,0,0.7289,0,0)" width="133" x="440.218" xlink:href="ObjectTypes.PROJECT.ElementoLineaAR.Principal" y="155.028">
  <atv:argument name="base" value="AGENT.OBJECTS.SCADA.Benito_Juarez.Cuencas.Cuenca_CAR_NPE.Carcamo_Final_Norponiente"/>
 </svg>
 <svg atv:refpx="52" atv:refpy="369" height="63.11" id="id_5" transform="matrix(0.7519,0,0,0.7289,0,0)" width="133" x="75.808" xlink:href="ObjectTypes.PROJECT.ElementoLineaAR.Principal" y="474.697">
  <atv:argument name="base" value="AGENT.OBJECTS.SCADA.Benito_Juarez.Cuencas.Cuenca_CAR_NPE.Carcamo_Paraiso_Maya"/>
 </svg>
 <text atv:refpx="131" atv:refpy="20" fill="#000018" font-family="Arial" font-size="18" font-weight="bold" id="id_106" x="66.5" y="26.5">Pretratamiento</text>
 <text atv:refpx="387" atv:refpy="14.5" fill="#000018" font-family="Arial" font-size="14" font-weight="bold" id="id_107" x="318" y="21">Caja rompedora</text>
 <svg atv:refpx="384.068" atv:refpy="49.503" height="512" id="id_29" transform="matrix(0.1406,0,0,0.123,0,0)" width="512" x="2475.107" xlink:href="SYSTEM.LIBRARY.PROJECT.RESOURCES%2FSVG%2Finkscape%2Frompedora.svg" y="243.902"/>
 <text atv:refpx="120" atv:refpy="46" fill="#000018" font-family="Arial" font-size="18" font-weight="bold" id="id_25" x="66.5" y="52.5">Norponiente</text>
 <g atv:refpx="263" atv:refpy="181.242" id="id_143">
  <line atv:refpx="423.5" atv:refpy="682.776" fill="#000000" id="id_141" stroke="#000000" stroke-linecap="round" stroke-linejoin="round" stroke-width="1" x1="263" x2="263" y1="214.984" y2="159"/>
  <polygon atv:refpx="412" atv:refpy="425.5" fill="#000018" id="id_142" points="253,160.191 273,160.191 263,147 263,147" stroke="#000000" stroke-linecap="round" stroke-linejoin="round" stroke-opacity="0" stroke-width="2.015"/>
 </g>
 <g atv:refpx="468" atv:refpy="62" id="id_172">
  <line atv:refpx="362.42" atv:refpy="636.264" fill="#000000" id="id_169" stroke="#000000" stroke-linecap="round" stroke-linejoin="round" stroke-width="2" x1="516" x2="425" y1="61.488" y2="61.488"/>
  <polygon atv:refpx="784.5" atv:refpy="142" fill="#000018" id="id_170" points="432.191,71.999 432.191,52 419,61.999 419,61.999" stroke="#000000" stroke-linecap="round" stroke-linejoin="round" stroke-opacity="0" stroke-width="2.015"/>
 </g>
 <svg atv:refpx="149.001" atv:refpy="301.5" height="23" id="id_8" width="100" x="99.001" xlink:href="ObjectTypes.PROJECT.Caudalimetro.line_mini" y="289">
  <atv:argument name="base" value="AGENT.OBJECTS.SCADA.Benito_Juarez.Zona_Urbana.Carcamos_AR.AR_BJ_CAR_GUADALUPANA.Caudalimetro.L1"/>
 </svg>
 <svg atv:refpx="381.501" atv:refpy="285.5" height="23" id="id_14" width="100" x="331.501" xlink:href="ObjectTypes.PROJECT.Caudalimetro.line_mini" y="274">
  <atv:argument name="base" value="AGENT.OBJECTS.SCADA.Benito_Juarez.Zona_Urbana.Carcamos_AR.AR_BJ_CAR_ARA.Caudalimetro.L1"/>
 </svg>
 <svg atv:refpx="521.5" atv:refpy="285.5" height="23" id="id_15" width="100" x="471.5" xlink:href="ObjectTypes.PROJECT.Caudalimetro.line_mini" y="274">
  <atv:argument name="base" value="AGENT.OBJECTS.SCADA.Benito_Juarez.Zona_Urbana.Carcamos_AR.AR_BJ_CAR_VILLAS_DEL_MAR.Caudalimetro.L1"/>
 </svg>
 <svg atv:refpx="598.5" atv:refpy="60.5" height="23" id="id_16" width="100" x="548.5" xlink:href="ObjectTypes.PROJECT.Caudalimetro.line_mini" y="49">
  <atv:argument name="base" value="AGENT.OBJECTS.SCADA.Benito_Juarez.Zona_Urbana.Carcamos_AR.AR_BJ_CAR_CASAS_DEL_MAR.Caudalimetro.L1"/>
 </svg>
 <svg atv:refpx="598.001" atv:refpy="144.5" height="23" id="id_17" width="100" x="548.001" xlink:href="ObjectTypes.PROJECT.Caudalimetro.line_mini" y="123">
  <atv:argument name="base" value="AGENT.OBJECTS.SCADA.Benito_Juarez.Zona_Urbana.Carcamos_AR.AR_BJ_CAR_POLIGONO_PARAISO.Caudalimetro.L1"/>
 </svg>
 <svg atv:refpx="598.001" atv:refpy="209.5" height="23" id="id_18" width="100" x="548.001" xlink:href="ObjectTypes.PROJECT.Caudalimetro.line_mini" y="199">
  <atv:argument name="base" value="AGENT.OBJECTS.SCADA.Benito_Juarez.Zona_Urbana.Carcamos_AR.AR_BJ_CAR_PASEOS_DEL_MAR.Caudalimetro.L1"/>
 </svg>
 <svg atv:refpx="381.001" atv:refpy="171.5" height="23" id="id_19" width="100" x="331.001" xlink:href="ObjectTypes.PROJECT.Caudalimetro.line_mini" y="159">
  <atv:argument name="base" value="AGENT.OBJECTS.SCADA.Benito_Juarez.Zona_Urbana.Carcamos_AR.AR_BJ_CAR_FINAL_NORPONIENTE.Caudalimetro.L1"/>
 </svg>
</svg>
