<?xml version='1.0' encoding='UTF-8' standalone='no'?>
<svg height="540" version="1.2" width="620" xmlns="http://www.w3.org/2000/svg" xmlns:atv="http://webmi.atvise.com/2007/svgext" xmlns:xlink="http://www.w3.org/1999/xlink">
 <defs>
  <linearGradient gradientUnits="objectBoundingBox" id="linear_0" x1="0" x2="1" y1="0" y2="1">
   <stop offset="0" stop-color="#000000" stop-opacity="0"/>
   <stop offset="1" stop-color="#000000" stop-opacity="0"/>
  </linearGradient>
  <linearGradient gradientUnits="objectBoundingBox" id="linear_1" x1="0" x2="1" y1="0" y2="1">
   <stop offset="0" stop-color="#000000" stop-opacity="0"/>
   <stop offset="1" stop-color="#000000" stop-opacity="0"/>
  </linearGradient>
 </defs>
 <metadata>
  <atv:gridconfig enabled="true" gridstyle="lines" height="20" width="20"/>
  <atv:snapconfig enabled="true" height="1" width="1"/>
 </metadata>
 <g atv:insensitive="true" atv:refpx="0" atv:refpy="0" id="id_11" transform="matrix(0.4845,0,0,0.7031,0,0)">
  <rect atv:refpx="640" atv:refpy="384" fill="#ffffff" height="768.00" id="id_12" width="1280.00" x="0" y="0"/>
 </g>
 <script atv:desc="" atv:name="" type="text/ecmascript"/>
 <line atv:refpx="563.639" atv:refpy="130" id="id_9" stroke="#000000" stroke-linecap="round" stroke-linejoin="round" stroke-width="2" x1="566.639" x2="566.639" y1="157.5" y2="107.5"/>
 <line atv:refpx="481.501" atv:refpy="464.5" id="id_107" stroke="#000000" stroke-linecap="round" stroke-linejoin="round" stroke-opacity="0.956863" stroke-width="2" x1="483.001" x2="483.001" y1="443" y2="492"/>
 <line atv:refpx="339" atv:refpy="482.054" id="id_121" stroke="#000000" stroke-linecap="round" stroke-linejoin="round" stroke-opacity="0.956863" stroke-width="2" x1="339.5" x2="339.5" y1="478.108" y2="492"/>
 <line atv:refpx="149.129" atv:refpy="218.5" id="id_103" stroke="#000000" stroke-linecap="round" stroke-linejoin="round" stroke-width="1.743" x1="123" x2="101" y1="514" y2="514"/>
 <line atv:refpx="415" atv:refpy="169" id="id_131" stroke="#000000" stroke-linecap="round" stroke-linejoin="round" stroke-width="2" x1="390" x2="442" y1="172.5" y2="172.5"/>
 <line atv:refpx="259" atv:refpy="169.25" id="id_83" stroke="#000000" stroke-linecap="round" stroke-linejoin="round" stroke-width="2" x1="243" x2="277" y1="171.75" y2="171.75"/>
 <line atv:refpx="259.5" atv:refpy="69.25" id="id_76" stroke="#000000" stroke-linecap="round" stroke-linejoin="round" stroke-width="2" x1="243" x2="278" y1="71.75" y2="71.75"/>
 <g atv:refpx="121.25" atv:refpy="360.5" id="id_86" transform="matrix(1,0,0,1,-35.75,224.5004)">
  <line atv:refpx="152" atv:refpy="139.5" id="id_87" stroke="#000000" stroke-linecap="round" stroke-linejoin="round" stroke-width="2" x1="137" x2="167" y1="139" y2="139"/>
  <polygon atv:refpx="153.499" atv:refpy="138.999" fill="#000018" id="id_88" points="167,129 167,149 180,139 180,139" stroke="#000000" stroke-linecap="round" stroke-linejoin="round" stroke-opacity="0" stroke-width="2"/>
 </g>
 <line atv:refpx="152" atv:refpy="139.5" id="id_80" stroke="#000000" stroke-linecap="round" stroke-linejoin="round" stroke-width="2" x1="101.25" x2="131.25" y1="300" y2="300"/>
 <line atv:refpx="149" atv:refpy="204.5" id="id_74" stroke="#000000" stroke-linecap="round" stroke-linejoin="round" stroke-width="1.743" x1="123" x2="101" y1="248" y2="248"/>
 <line atv:refpx="434" atv:refpy="404.5" id="id_133" stroke="#000000" stroke-linecap="round" stroke-linejoin="round" stroke-width="2" x1="388" x2="482" y1="413" y2="413"/>
 <line atv:refpx="390" atv:refpy="69.25" id="id_125" stroke="#000000" stroke-linecap="round" stroke-linejoin="round" stroke-width="2" x1="366" x2="416" y1="71.75" y2="71.75"/>
 <line atv:refpx="168.63" atv:refpy="261.24" fill="#000000" fill-opacity="0.964706" id="id_110" stroke="#000000" stroke-linecap="round" stroke-linejoin="round" stroke-width="1.743" x1="193.501" x2="193.501" y1="490" y2="456"/>
 <line atv:refpx="291" atv:refpy="360.5" id="id_85" stroke="#000000" stroke-linecap="round" stroke-linejoin="round" stroke-width="1.743" x1="244" x2="340" y1="364" y2="364"/>
 <line atv:refpx="291" atv:refpy="292.5" id="id_78" stroke="#000000" stroke-linecap="round" stroke-linejoin="round" stroke-width="1.743" x1="244" x2="340" y1="296" y2="296"/>
 <rect atv:refpx="479.062" atv:refpy="67.498" fill="#000088" fill-opacity="0" height="55.25" id="id_58" rx="0" ry="0" stroke="#000072" stroke-width="1" width="99" x="422.25" y="43"/>
 <text atv:refpx="460.836" atv:refpy="63.05" fill="#000018" font-family="Arial" font-size="40" font-weight="bold" id="id_106" transform="matrix(0.3673,0,0,0.3444,285.4623,33.4356)" x="455.681" y="92.5">PTAR</text>
 <line atv:refpx="337.5" atv:refpy="256.5" fill="#000000" fill-opacity="0.964706" id="id_46" stroke="#000000" stroke-linecap="round" stroke-linejoin="round" stroke-width="1.743" x1="339.5" x2="339.5" y1="296" y2="223"/>
 <polygon atv:refpx="338.501" atv:refpy="207.316" fill="#000018" id="id_60" points="328.061,230.13 350.939,230.13 339.5,218.499 339.5,218.499" stroke="#000000" stroke-linecap="round" stroke-linejoin="round" stroke-opacity="0" stroke-width="1.743"/>
 <svg atv:refpx="192.48" atv:refpy="509.985" height="63.11" id="id_14" transform="matrix(0.7519,0,0,0.7289,0,0)" width="133" x="190.85" xlink:href="ObjectTypes.PROJECT.ElementoLineaAR.Principal" y="673.618">
  <atv:argument name="base" value="AGENT.OBJECTS.SCADA.Solidaridad.Cuencas.Cuenca_PTAR_SAAS.Carcamo_88"/>
 </svg>
 <svg atv:refpx="49.973" atv:refpy="220.987" height="63.11" id="id_18" transform="matrix(0.7519,0,0,0.7289,0,0)" width="133" x="1.33" xlink:href="ObjectTypes.PROJECT.ElementoLineaAR.Principal" y="307.312">
  <atv:argument name="base" value="AGENT.OBJECTS.SCADA.Solidaridad.Cuencas.Cuenca_PTAR_SAAS.Carcamo_Balamtun"/>
 </svg>
 <svg atv:refpx="50.997" atv:refpy="74.744" height="63.11" id="id_19" transform="matrix(0.7519,0,0,0.7289,0,0)" width="133" x="1.33" xlink:href="ObjectTypes.PROJECT.ElementoLineaAR.Principal" y="66.881">
  <atv:argument name="base" value="AGENT.OBJECTS.SCADA.Solidaridad.Cuencas.Cuenca_PTAR_SAAS.Carcamo_CADU_II"/>
 </svg>
 <svg atv:refpx="192.476" atv:refpy="161.744" height="63.11" id="id_20" transform="matrix(0.7519,0,0,0.7289,0,0)" width="133" x="190.85" xlink:href="ObjectTypes.PROJECT.ElementoLineaAR.Principal" y="204.075">
  <atv:argument name="base" value="AGENT.OBJECTS.SCADA.Solidaridad.Cuencas.Cuenca_PTAR_SAAS.Carcamo_CAME"/>
 </svg>
 <svg atv:refpx="194.484" atv:refpy="414.986" height="63.11" id="id_21" transform="matrix(0.7519,0,0,0.7289,0,0)" width="133" x="190.85" xlink:href="ObjectTypes.PROJECT.ElementoLineaAR.Principal" y="546.028">
  <atv:argument name="base" value="AGENT.OBJECTS.SCADA.Solidaridad.Cuencas.Cuenca_PTAR_SAAS.Carcamo_Colosio"/>
 </svg>
 <svg atv:refpx="49.984" atv:refpy="491.985" height="63.11" id="id_22" transform="matrix(0.7519,0,0,0.7289,0,0)" width="133" x="2.66" xlink:href="ObjectTypes.PROJECT.ElementoLineaAR.Principal" y="673.618">
  <atv:argument name="base" value="AGENT.OBJECTS.SCADA.Solidaridad.Cuencas.Cuenca_PTAR_SAAS.Carcamo_CTM"/>
 </svg>
 <svg atv:refpx="192.498" atv:refpy="360.489" height="63.11" id="id_23" transform="matrix(0.7519,0,0,0.7289,0,0)" width="133" x="190.85" xlink:href="ObjectTypes.PROJECT.ElementoLineaAR.Principal" y="467.142">
  <atv:argument name="base" value="AGENT.OBJECTS.SCADA.Solidaridad.Cuencas.Cuenca_PTAR_SAAS.Carcamo_Diamante"/>
 </svg>
 <svg atv:refpx="472" atv:refpy="512" height="63.11" id="id_24" transform="matrix(0.7519,0,0,0.7289,0,0)" width="133" x="561.245" xlink:href="ObjectTypes.PROJECT.ElementoLineaAR.Principal" y="673.618">
  <atv:argument name="base" value="AGENT.OBJECTS.SCADA.Solidaridad.Cuencas.Cuenca_PTAR_SAAS.Carcamo_Ejido_Norte"/>
 </svg>
 <svg atv:refpx="49.998" atv:refpy="360.486" height="63.11" id="id_25" transform="matrix(0.7519,0,0,0.7289,0,0)" width="133" x="1.33" xlink:href="ObjectTypes.PROJECT.ElementoLineaAR.Principal" y="467.142">
  <atv:argument name="base" value="AGENT.OBJECTS.SCADA.Solidaridad.Cuencas.Cuenca_PTAR_SAAS.Carcamo_Ejido_Sur"/>
 </svg>
 <svg atv:refpx="340.485" atv:refpy="469.99" height="63.11" id="id_26" transform="matrix(0.7519,0,0,0.7289,0,0)" width="133" x="385.023" xlink:href="ObjectTypes.PROJECT.ElementoLineaAR.Principal" y="546.028">
  <atv:argument name="base" value="AGENT.OBJECTS.SCADA.Solidaridad.Cuencas.Cuenca_PTAR_SAAS.Carcamo_Final_AR"/>
 </svg>
 <svg atv:refpx="50.001" atv:refpy="296" height="63.11" id="id_27" transform="matrix(0.7519,0,0,0.7289,0,0)" width="133" x="1.33" xlink:href="ObjectTypes.PROJECT.ElementoLineaAR.Principal" y="378.653">
  <atv:argument name="base" value="AGENT.OBJECTS.SCADA.Solidaridad.Cuencas.Cuenca_PTAR_SAAS.Carcamo_Gaviotas"/>
 </svg>
 <svg atv:refpx="49.968" atv:refpy="168.743" height="63.11" id="id_28" transform="matrix(0.7519,0,0,0.7289,0,0)" width="133" x="1.33" xlink:href="ObjectTypes.PROJECT.ElementoLineaAR.Principal" y="204.075">
  <atv:argument name="base" value="AGENT.OBJECTS.SCADA.Solidaridad.Cuencas.Cuenca_PTAR_SAAS.Carcamo_Mayakoba"/>
 </svg>
 <svg atv:refpx="192.479" atv:refpy="308.992" height="63.11" id="id_30" transform="matrix(0.7519,0,0,0.7289,0,0)" width="133" x="190.85" xlink:href="ObjectTypes.PROJECT.ElementoLineaAR.Principal" y="374.537">
  <atv:argument name="base" value="AGENT.OBJECTS.SCADA.Solidaridad.Cuencas.Cuenca_PTAR_SAAS.Carcamo_Palmas_II"/>
 </svg>
 <svg atv:refpx="49.991" atv:refpy="417.985" height="63.11" id="id_31" transform="matrix(0.7519,0,0,0.7289,0,0)" width="133" x="1.33" xlink:href="ObjectTypes.PROJECT.ElementoLineaAR.Principal" y="546.028">
  <atv:argument name="base" value="AGENT.OBJECTS.SCADA.Solidaridad.Cuencas.Cuenca_PTAR_SAAS.Carcamo_Playero"/>
 </svg>
 <svg atv:refpx="193.497" atv:refpy="70.742" height="63.11" id="id_32" transform="matrix(0.7519,0,0,0.7289,0,0)" width="133" x="190.85" xlink:href="ObjectTypes.PROJECT.ElementoLineaAR.Principal" y="66.881">
  <atv:argument name="base" value="AGENT.OBJECTS.SCADA.Solidaridad.Cuencas.Cuenca_PTAR_SAAS.Carcamo_Villas_del_Carmen"/>
 </svg>
 <svg atv:refpx="341.492" atv:refpy="70.742" height="63.11" id="id_33" transform="matrix(0.7519,0,0,0.7289,0,0)" width="133" x="385.023" xlink:href="ObjectTypes.PROJECT.ElementoLineaAR.Principal" y="66.881">
  <atv:argument name="base" value="AGENT.OBJECTS.SCADA.Solidaridad.Cuencas.Cuenca_PTAR_SAAS.Carcamo_Villas_del_Sol"/>
 </svg>
 <svg atv:refpx="338.478" atv:refpy="509.989" height="63.11" id="id_35" transform="matrix(0.7519,0,0,0.7289,0,0)" width="133" x="385.023" xlink:href="ObjectTypes.PROJECT.ElementoLineaAR.Principal" y="673.618">
  <atv:argument name="base" value="AGENT.OBJECTS.SCADA.Solidaridad.Cuencas.Cuenca_PTAR_SAAS.Carcamo_Toscana"/>
 </svg>
 <svg atv:refpx="340.491" atv:refpy="168.742" height="63.11" id="id_29" transform="matrix(0.7519,0,0,0.7289,0,0)" width="133" x="385.023" xlink:href="ObjectTypes.PROJECT.ElementoLineaAR.Principal" y="204.075">
  <atv:argument name="base" value="AGENT.OBJECTS.SCADA.Solidaridad.Cuencas.Cuenca_PTAR_SAAS.Carcamo_Mision_Las_Flores"/>
 </svg>
 <svg atv:refpx="50.997" atv:refpy="28.995" height="63.11" id="id_17" transform="matrix(0.7519,0,0,0.7289,0,0)" width="133" x="1.33" xlink:href="ObjectTypes.PROJECT.ElementoLineaAR.Principal" y="4.116">
  <atv:argument name="base" value="AGENT.OBJECTS.SCADA.Solidaridad.Cuencas.Cuenca_PTAR_SAAS.Carcamo_CADU_II_CRIBA"/>
 </svg>
 <g atv:refpx="121.25" atv:refpy="168.75" id="id_70" transform="matrix(1,0,0,1,-35.75,32.7504)">
  <line atv:refpx="152" atv:refpy="139.5" id="id_1" stroke="#000000" stroke-linecap="round" stroke-linejoin="round" stroke-width="2" x1="137" x2="167" y1="139" y2="139"/>
  <polygon atv:refpx="153.499" atv:refpy="138.999" fill="#000018" id="id_10" points="167,129 167,149 180,139 180,139" stroke="#000000" stroke-linecap="round" stroke-linejoin="round" stroke-opacity="0" stroke-width="2"/>
 </g>
 <polygon atv:refpx="391.501" atv:refpy="440" fill="#000018" fill-opacity="0.964706" id="id_61" points="401,454 401,434 388,444 388,444" stroke="#000000" stroke-linecap="round" stroke-linejoin="round" stroke-opacity="0" stroke-width="2"/>
 <polygon atv:refpx="123.25" atv:refpy="181.501" fill="#000018" fill-opacity="0.964706" id="id_50" points="112.25,188 132.25,188 122.25,175 122.25,175" stroke="#000000" stroke-linecap="round" stroke-linejoin="round" stroke-opacity="0" stroke-width="2"/>
 <line atv:refpx="121.25" atv:refpy="214.501" fill="#000000" fill-opacity="0.964706" id="id_69" stroke="#000000" stroke-linecap="round" stroke-linejoin="round" stroke-width="1.743" x1="123.25" x2="123.25" y1="248" y2="187"/>
 <polygon atv:refpx="153.499" atv:refpy="138.749" fill="#000018" id="id_77" points="277,61.75 277,81.75 290,71.75 290,71.75" stroke="#000000" stroke-linecap="round" stroke-linejoin="round" stroke-opacity="0" stroke-width="2"/>
 <polygon atv:refpx="137.75" atv:refpy="300" fill="#000018" id="id_81" points="131.25,290 131.25,310 144.25,300 144.25,300" stroke="#000000" stroke-linecap="round" stroke-linejoin="round" stroke-opacity="0" stroke-width="2"/>
 <polygon atv:refpx="153.499" atv:refpy="138.999" fill="#000018" id="id_84" points="277,161.75 277,181.75 290,171.75 290,171.75" stroke="#000000" stroke-linecap="round" stroke-linejoin="round" stroke-opacity="0" stroke-width="2"/>
 <g atv:refpx="122" atv:refpy="418" id="id_89" transform="matrix(1,0,0,1,-35,282.0004)">
  <line atv:refpx="152" atv:refpy="139.5" id="id_90" stroke="#000000" stroke-linecap="round" stroke-linejoin="round" stroke-width="2" x1="137" x2="167" y1="139" y2="139"/>
  <polygon atv:refpx="153.499" atv:refpy="138.999" fill="#000018" id="id_91" points="167,129 167,149 180,139 180,139" stroke="#000000" stroke-linecap="round" stroke-linejoin="round" stroke-opacity="0" stroke-width="2"/>
 </g>
 <line atv:refpx="337.5" atv:refpy="291.5" fill="#000000" fill-opacity="0.964706" id="id_92" stroke="#000000" stroke-linecap="round" stroke-linejoin="round" stroke-width="1.743" x1="339.5" x2="339.5" y1="365" y2="224"/>
 <polygon atv:refpx="338.502" atv:refpy="207.317" fill="#000018" id="id_93" points="328.061,230.13 350.938,230.13 339.499,218.5 339.499,218.5" stroke="#000000" stroke-linecap="round" stroke-linejoin="round" stroke-opacity="0" stroke-width="1.743"/>
 <g atv:refpx="265" atv:refpy="418" id="id_94" transform="matrix(1,0,0,1,108,282.0004)">
  <line atv:refpx="152" atv:refpy="139.5" id="id_95" stroke="#000000" stroke-linecap="round" stroke-linejoin="round" stroke-width="2" x1="137" x2="167" y1="139" y2="139"/>
  <polygon atv:refpx="153.499" atv:refpy="138.999" fill="#000018" id="id_96" points="167,129 167,149 180,139 180,139" stroke="#000000" stroke-linecap="round" stroke-linejoin="round" stroke-opacity="0" stroke-width="2"/>
 </g>
 <polygon atv:refpx="99.25" atv:refpy="121.501" fill="#000018" fill-opacity="0.964706" id="id_104" points="112.121,435 132.121,435 122.121,422 122.121,422" stroke="#000000" stroke-linecap="round" stroke-linejoin="round" stroke-opacity="0" stroke-width="2"/>
 <line atv:refpx="97.25" atv:refpy="-14.559" fill="#000000" fill-opacity="0.964706" id="id_105" stroke="#000000" stroke-linecap="round" stroke-linejoin="round" stroke-width="1.743" x1="123.121" x2="123.121" y1="513" y2="434"/>
 <polygon atv:refpx="170.63" atv:refpy="143.501" fill="#000018" fill-opacity="0.964706" id="id_109" points="183.501,457 203.501,457 193.501,444 193.501,444" stroke="#000000" stroke-linecap="round" stroke-linejoin="round" stroke-opacity="0" stroke-width="2"/>
 <polygon atv:refpx="338.501" atv:refpy="466.501" fill="#000018" fill-opacity="0.964706" id="id_115" points="329.5,480 349.5,480 339.5,467 339.5,467" stroke="#000000" stroke-linecap="round" stroke-linejoin="round" stroke-opacity="0" stroke-width="2"/>
 <line atv:refpx="441.5" atv:refpy="440.5" id="id_123" stroke="#000000" stroke-linecap="round" stroke-linejoin="round" stroke-opacity="0.956863" stroke-width="2" x1="483" x2="402" y1="443" y2="443"/>
 <polygon atv:refpx="129.499" atv:refpy="138.749" fill="#000018" id="id_126" points="409,61.75 409,81.75 422,71.75 422,71.75" stroke="#000000" stroke-linecap="round" stroke-linejoin="round" stroke-opacity="0" stroke-width="2"/>
 <polygon atv:refpx="441" atv:refpy="109.5" fill="#000018" fill-opacity="0.964706" id="id_127" points="431,134 451,134 441,121 441,121" stroke="#000000" stroke-linecap="round" stroke-linejoin="round" stroke-opacity="0" stroke-width="2"/>
 <line atv:refpx="285.472" atv:refpy="22.5" id="id_128" stroke="#000000" stroke-linecap="round" stroke-linejoin="round" stroke-width="2" x1="101" x2="472" y1="26" y2="25"/>
 <polygon atv:refpx="470.75" atv:refpy="37.499" fill="#000018" fill-opacity="0.964706" id="id_129" points="481.75,30 461.75,30 471.75,43 471.75,43" stroke="#000000" stroke-linecap="round" stroke-linejoin="round" stroke-opacity="0" stroke-width="2"/>
 <line atv:refpx="470.25" atv:refpy="28" id="id_130" stroke="#000000" stroke-linecap="round" stroke-linejoin="round" stroke-width="2" x1="471.75" x2="471.75" y1="37" y2="25"/>
 <line atv:refpx="460.5" atv:refpy="147.192" id="id_132" stroke="#000000" stroke-linecap="round" stroke-linejoin="round" stroke-width="2" x1="442" x2="442" y1="172" y2="127"/>
 <polygon atv:refpx="589" atv:refpy="103.001" fill="#000018" fill-opacity="0.964706" id="id_134" points="471,134.5 491,134.5 481,121.5 481,121.5" stroke="#000000" stroke-linecap="round" stroke-linejoin="round" stroke-opacity="0" stroke-width="2"/>
 <line atv:refpx="480.5" atv:refpy="266.611" id="id_135" stroke="#000000" stroke-linecap="round" stroke-linejoin="round" stroke-width="2" x1="481" x2="482" y1="126" y2="413"/>
 <svg atv:refpx="50" atv:refpy="203.5" height="23" id="id_0" width="100" x="1" xlink:href="ObjectTypes.PROJECT.Caudalimetro.line_mini_AR" y="194">
  <atv:argument name="base" value="AGENT.OBJECTS.SCADA.Solidaridad.Zona_Urbana.Carcamos_AR.AR_SOL_CAR_MAYAKOBA.L1"/>
 </svg>
 <svg atv:refpx="50" atv:refpy="102.5" height="23" id="id_2" width="100" x="1" xlink:href="ObjectTypes.PROJECT.Caudalimetro.line_mini_AR" y="94">
  <atv:argument name="base" value="AGENT.OBJECTS.SCADA.Solidaridad.Zona_Urbana.Carcamos_AR.AR_SOL_CAR_CADUII.L1"/>
 </svg>
 <svg atv:refpx="340.5" atv:refpy="103.5" height="23" id="id_3" width="100" x="289.5" xlink:href="ObjectTypes.PROJECT.Caudalimetro.line_mini_AR" y="94">
  <atv:argument name="base" value="AGENT.OBJECTS.SCADA.Solidaridad.Zona_Urbana.Carcamos_AR.AR_SOL_CAR_VSOL.L1"/>
 </svg>
 <svg atv:refpx="340.5" atv:refpy="451.5" height="23" id="id_5" width="100" x="289.5" xlink:href="ObjectTypes.PROJECT.Caudalimetro.line_mini_AR" y="443">
  <atv:argument name="base" value="AGENT.OBJECTS.SCADA.Solidaridad.Zona_Urbana.Carcamos_AR.AR_SOL_CAR_FINAL.L1"/>
 </svg>
 <svg atv:refpx="340.5" atv:refpy="203.5" height="23" id="id_6" width="100" x="289.5" xlink:href="ObjectTypes.PROJECT.Caudalimetro.line_mini_AR" y="195">
  <atv:argument name="base" value="AGENT.OBJECTS.SCADA.Solidaridad.Zona_Urbana.Carcamos_AR.AR_SOL_CAR_MISION.L1"/>
 </svg>
 <text atv:refpx="472.797" atv:refpy="80.901" fill="#000018" font-family="Arial" font-size="40" id="id_4" transform="matrix(0.2979,0,0,0.4492,306.6399,38.0051)" x="441.747" y="109.5">Saas Tun Ha</text>
 <svg atv:refpx="566.606" atv:refpy="174.99" height="63.11" id="id_7" transform="matrix(0.7612,0,0,0.7288,0,0)" width="133" x="677.947" xlink:href="ObjectTypes.PROJECT.ElementoLineaAR.Principal" y="208.549">
  <atv:argument name="base" value="AGENT.OBJECTS.SCADA.Solidaridad.Cuencas.Cuenca_PTAR_GONZ.Carcamo_Gonzalo"/>
 </svg>
 <rect atv:refpx="573.4" atv:refpy="71.75" fill="#000088" fill-opacity="0" height="58.5" id="id_8" rx="0" ry="0" stroke="#000072" stroke-width="1" width="78" x="527.639" y="42.5"/>
 <polygon atv:refpx="303.139" atv:refpy="199.499" fill="#000018" id="id_13" points="556.638,114.5 576.638,114.5 566.638,101.5 566.638,101.5" stroke="#000000" stroke-linecap="round" stroke-linejoin="round" stroke-opacity="0" stroke-width="2"/>
 <text atv:refpx="555.725" atv:refpy="58.55" fill="#000018" font-family="Arial" font-size="40" font-weight="bold" id="id_15" transform="matrix(0.3673,0,0,0.3444,345.4983,30.4854)" x="550.57" y="88">PTAR</text>
 <text atv:refpx="567.324" atv:refpy="72.494" fill="#000018" font-family="Arial" font-size="40" id="id_16" transform="matrix(0.2979,0,0,0.4492,381.732,33.3746)" x="548.7" y="101.093">Gonzalo</text>
 <text atv:refpx="567.374" atv:refpy="91.901" fill="#000018" font-family="Arial" font-size="40" id="id_34" transform="matrix(0.2979,0,0,0.4492,380.5816,44.064)" x="547.062" y="120.5">Guerrero</text>
 <svg atv:refpx="566.624" atv:refpy="208.466" height="23" id="id_39" transform="matrix(0.9999,0,0,0.9999,0,0)" width="100" x="516.684" xlink:href="ObjectTypes.PROJECT.Caudalimetro.line_mini_AR" y="196.988">
  <atv:argument name="base" value="AGENT.OBJECTS.SCADA.Solidaridad.Zona_Urbana.Carcamos_AR.AR_SOL_CAR_GONZALO_GUERRERO.L1"/>
 </svg>
 <svg atv:refpx="566.624" atv:refpy="232.464" height="23" id="id_40" transform="matrix(0.9999,0,0,0.9999,0,0)" width="100" x="516.684" xlink:href="ObjectTypes.PROJECT.Caudalimetro.line_mini_AR" y="220.044">
  <atv:argument name="base" value="AGENT.OBJECTS.SCADA.Solidaridad.Zona_Urbana.Carcamos_AR.AR_SOL_CAR_GONZALO_GUERRERO.L2"/>
 </svg>
 <svg atv:refpx="472" atv:refpy="110.5" height="23" id="id_36" width="100" x="422" xlink:href="ObjectTypes.PROJECT.Caudalimetro.line_mini_AR" y="99">
  <atv:argument name="base" value="AGENT.OBJECTS.SCADA.Solidaridad.PTAR.AR_SOL_PLA_SAASTUN_HA.Caudalimetros.Flujo_Total_SaastunHa"/>
 </svg>
</svg>
