<?xml version='1.0' encoding='UTF-8' standalone='no'?>
<svg height="660" version="1.2" width="430" xmlns="http://www.w3.org/2000/svg" xmlns:atv="http://webmi.atvise.com/2007/svgext" xmlns:xlink="http://www.w3.org/1999/xlink">
 <desc>Display for changing user information and password.</desc>
 <title>User Editor</title>
 <defs/>
 <rect atv:refpx="215" atv:refpy="330" fill="$FILLCOLOR$" height="660" id="background" stroke="none" stroke-width="0" width="430" x="0" y="0"/>
 <metadata>
  <atv:parameter behavior="optional" defaultvalue="T{Add user}" desc="headline" name="headline" substitute="$HEADLINE$" valuetype="trstring"/>
  <atv:parameter behavior="optional" defaultvalue="SYSTEM.LIBRARY.ATVISE.OBJECTDISPLAYS.Symbols.20x20.user" desc="symbol" name="symbol" substitute="$SYMBOL$" valuetype="display"/>
  <atv:parameter behavior="optional" defaultvalue="SYSTEM.LIBRARY.ATVISE.OBJECTDISPLAYS.Advanced.keyboard.keyboard" desc="keyboard display" name="keyboard" valuetype="display"/>
  <atv:parameter behavior="optional" defaultvalue="SYSTEM.GLOBALS.atvFontColor" desc="font color" name="fontColor" substitute="$FONTCOLOR$" valuetype="global"/>
  <atv:parameter behavior="optional" defaultvalue="SYSTEM.GLOBALS.atvFillColor" desc="fill color" name="fillColor" substitute="$FILLCOLOR$" valuetype="global"/>
  <atv:parameter behavior="optional" defaultvalue="SYSTEM.GLOBALS.atvSymbolColor" desc="symbol color" name="symbolColor" substitute="$SYMBOLCOLOR$" valuetype="global"/>
  <atv:gridconfig enabled="true" gridstyle="lines" height="20" width="20"/>
  <atv:snapconfig enabled="true" height="10" width="10"/>
 </metadata>
 <rect atv:refpx="-186.142" atv:refpy="55" fill="#ffffff" height="50" id="password_background" rx="10" ry="10" stroke="none" stroke-width="0" width="390" x="20" y="150"/>
 <rect atv:refpx="215" atv:refpy="235" fill="#ffffff" height="50" id="fullname_background" rx="10" ry="10" stroke="none" stroke-width="0" width="390" x="20" y="210"/>
 <rect atv:refpx="4.286" atv:refpy="165" fill="none" height="50" id="id_1" rx="5.961" ry="5.961" stroke="none" stroke-width="0" width="200" x="110" y="210"/>
 <svg atv:dynamic="true" atv:refpx="103.5" atv:refpy="562.5" height="30" id="save_button" transform="matrix(2.0625,0,0,1.5,0,0)" width="80" x="10.182" xlink:href="SYSTEM.LIBRARY.ATVISE.OBJECTDISPLAYS.Advanced.button" y="400">
  <atv:argument name="label" value="T{Save}"/>
  <atv:argument name="tabIndex" value="11"/>
  <atv:argument name="borderVisible" value="true"/>
  <atv:argument name="extraBorderColor" value="#ffffff"/>
  <atv:overwrite height="43" id="id_6" transform="matrix(0.4848,0,0,0.6667,0,0)" width="163"/>
  <atv:overwrite id="button_label_2" transform="matrix(0.4848,0,0,0.6667,0,0)" x="82.5" y="34"/>
  <atv:overwrite id="button_label_1" transform="matrix(0.4848,0,0,0.6667,0,0)" x="82.5" y="19"/>
  <atv:overwrite id="button_label" transform="matrix(0.4848,0,0,0.6667,0,0)" x="82.5" y="27"/>
  <atv:overwrite id="button_symbol_bottom" transform="matrix(0.2909,0,0,0.4,0,0)" x="127.333" y="38.792"/>
  <atv:overwrite id="button_symbol_top" transform="matrix(0.2909,0,0,0.4,0,0)" x="127.333" y="17.459"/>
  <atv:overwrite id="button_symbol" transform="matrix(0.4848,0,0,0.6667,0,0)" x="72.5" y="12.5"/>
  <atv:overwrite height="41" id="button_stroke" transform="matrix(0.4848,0,0,0.6667,0,0)" width="161"/>
  <atv:overwrite height="43" id="button_bg" transform="matrix(0.4848,0,0,0.6667,0,0)" width="163"/>
  <atv:overwrite height="45" id="outer_frame" transform="matrix(0.4848,0,0,0.6667,0,0)" width="165"/>
 </svg>
 <svg atv:dynamic="true" atv:refpx="324.499" atv:refpy="562.5" height="30" id="cancel_button" transform="matrix(2.0625,0,0,1.5,0,0)" width="80" x="117.333" xlink:href="SYSTEM.LIBRARY.ATVISE.OBJECTDISPLAYS.Advanced.button" y="400">
  <atv:argument name="label" value="T{Cancel}"/>
  <atv:argument name="tabIndex" value="12"/>
  <atv:argument name="borderVisible" value="true"/>
  <atv:argument name="extraBorderColor" value="#ffffff"/>
  <atv:overwrite height="43" id="id_6" transform="matrix(0.4848,0,0,0.6667,0,0)" width="163"/>
  <atv:overwrite id="button_label_2" transform="matrix(0.4848,0,0,0.6667,0,0)" x="82.5" y="34"/>
  <atv:overwrite id="button_label_1" transform="matrix(0.4848,0,0,0.6667,0,0)" x="82.5" y="19"/>
  <atv:overwrite id="button_label" transform="matrix(0.4848,0,0,0.6667,0,0)" x="82.5" y="27"/>
  <atv:overwrite id="button_symbol_bottom" transform="matrix(0.2909,0,0,0.4,0,0)" x="127.333" y="38.792"/>
  <atv:overwrite id="button_symbol_top" transform="matrix(0.2909,0,0,0.4,0,0)" x="127.333" y="17.459"/>
  <atv:overwrite id="button_symbol" transform="matrix(0.4848,0,0,0.6667,0,0)" x="72.5" y="12.5"/>
  <atv:overwrite height="41" id="button_stroke" transform="matrix(0.4848,0,0,0.6667,0,0)" width="161"/>
  <atv:overwrite height="43" id="button_bg" transform="matrix(0.4848,0,0,0.6667,0,0)" width="163"/>
  <atv:overwrite height="45" id="outer_frame" transform="matrix(0.4848,0,0,0.6667,0,0)" width="165"/>
 </svg>
 <svg atv:refpx="260" atv:refpy="235" height="30" id="fullname_input" transform="matrix(1.125,0,0,1,0,0)" width="160" x="151.111" xlink:href="SYSTEM.LIBRARY.ATVISE.OBJECTDISPLAYS.Advanced.in_out_value" y="220">
  <atv:argument name="validation" value="String"/>
  <atv:argument name="allowDirectInput" value="Yes"/>
  <atv:argument name="tabIndex" value="3"/>
  <atv:overwrite id="id_2" transform="matrix(0.8889,0,0,1,0,0)" width="174.5"/>
  <atv:overwrite id="input_label" transform="matrix(0.8889,0,0,1,0,0)" x="172.055"/>
  <atv:overwrite id="blinking_frame" transform="matrix(0.8889,0,0,1,0,0)" width="172"/>
  <atv:overwrite id="focus_frame" transform="matrix(0.8889,0,0,1,0,0)" width="176"/>
  <atv:overwrite id="input_bg" transform="matrix(0.8889,0,0,1,0,0)" width="172"/>
  <atv:overwrite id="id_1" transform="matrix(0.8889,0,0,1,0,0)" width="178"/>
  <atv:overwrite id="id_0" transform="matrix(0.8889,0,0,1,0,0)" width="180"/>
 </svg>
 <svg atv:refpx="260" atv:refpy="125" height="30" id="password_input" transform="matrix(1.125,0,0,1,0,0)" width="160" x="151.111" xlink:href="SYSTEM.LIBRARY.ATVISE.OBJECTDISPLAYS.Advanced.in_out_value" y="160">
  <atv:argument name="validation" value="Password"/>
  <atv:argument name="password" value="Yes"/>
  <atv:argument name="allowDirectInput" value="Yes"/>
  <atv:argument name="tabIndex" value="1"/>
  <atv:overwrite id="id_2" transform="matrix(0.8889,0,0,1,0,0)" width="174.5"/>
  <atv:overwrite id="input_label" transform="matrix(0.8889,0,0,1,0,0)" x="172.055"/>
  <atv:overwrite id="blinking_frame" transform="matrix(0.8889,0,0,1,0,0)" width="172"/>
  <atv:overwrite id="focus_frame" transform="matrix(0.8889,0,0,1,0,0)" width="176"/>
  <atv:overwrite id="input_bg" transform="matrix(0.8889,0,0,1,0,0)" width="172"/>
  <atv:overwrite id="id_1" transform="matrix(0.8889,0,0,1,0,0)" width="178"/>
  <atv:overwrite id="id_0" transform="matrix(0.8889,0,0,1,0,0)" width="180"/>
 </svg>
 <text atv:refpx="77.763" atv:refpy="233.5" fill="$FONTCOLOR$" font-family="Arial" font-size="16" id="fullname_label" x="34" y="239.5">T{Full name}</text>
 <text atv:refpx="78.5" atv:refpy="173.5" fill="$FONTCOLOR$" font-family="Arial" font-size="16" id="password_label" x="34" y="179.5">T{Password}</text>
 <text atv:refpx="216" atv:refpy="51" fill="$FONTCOLOR$" font-family="Arial" font-size="12" id="status_message2" text-anchor="middle" x="216" y="55.5"/>
 <svg atv:dynamic="true" atv:refpx="375" atv:refpy="235" height="30" id="fullname_keyboard" transform="matrix(0.375,0,0,1,0,0)" width="80" x="960" xlink:href="SYSTEM.LIBRARY.ATVISE.OBJECTDISPLAYS.Advanced.button" y="220">
  <atv:argument name="symbol" value="SYSTEM.LIBRARY.ATVISE.OBJECTDISPLAYS.Symbols.20x20.keyboard"/>
  <atv:argument name="visibilitySymbol" value="inherit"/>
  <atv:argument name="visibilityLabel" value="hidden"/>
  <atv:argument name="tabIndex" value="4"/>
  <atv:overwrite id="id_2" transform="matrix(2.6667,0,0,1,0,0)" width="24.5"/>
  <atv:overwrite id="id_0" transform="matrix(2.6667,0,0,1,0,0)" width="29.5"/>
  <atv:overwrite id="id_1" transform="matrix(2.6667,0,0,1,0,0)" width="30"/>
  <atv:overwrite id="id_6" transform="matrix(2.6667,0,0,1,0,0)" width="28"/>
  <atv:overwrite id="button_label_2" transform="matrix(2.6667,0,0,1,0,0)" x="15"/>
  <atv:overwrite id="button_label_1" transform="matrix(2.6667,0,0,1,0,0)" x="15"/>
  <atv:overwrite id="button_label" transform="matrix(2.6667,0,0,1,0,0)" x="15"/>
  <atv:overwrite id="button_symbol_bottom" transform="matrix(1.6,0,0,0.6,0,0)" x="14.833"/>
  <atv:overwrite id="button_symbol_top" transform="matrix(1.6,0,0,0.6,0,0)" x="14.833"/>
  <atv:overwrite id="button_symbol" transform="matrix(2.6667,0,0,1,0,0)" x="5"/>
  <atv:overwrite id="button_stroke" transform="matrix(2.6667,0,0,1,0,0)" width="26"/>
  <atv:overwrite id="button_bg" transform="matrix(2.6667,0,0,1,0,0)" width="28"/>
  <atv:overwrite id="outer_frame" transform="matrix(2.6667,0,0,1,0,0)" width="30"/>
 </svg>
 <svg atv:dynamic="true" atv:refpx="375" atv:refpy="125" height="30" id="password_keyboard" transform="matrix(0.375,0,0,1,0,0)" width="80" x="960" xlink:href="SYSTEM.LIBRARY.ATVISE.OBJECTDISPLAYS.Advanced.button" y="160">
  <atv:argument name="symbol" value="SYSTEM.LIBRARY.ATVISE.OBJECTDISPLAYS.Symbols.20x20.keyboard"/>
  <atv:argument name="visibilitySymbol" value="inherit"/>
  <atv:argument name="visibilityLabel" value="hidden"/>
  <atv:argument name="tabIndex" value="2"/>
  <atv:overwrite id="id_2" transform="matrix(2.6667,0,0,1,0,0)" width="24.5"/>
  <atv:overwrite id="id_0" transform="matrix(2.6667,0,0,1,0,0)" width="29.5"/>
  <atv:overwrite id="id_1" transform="matrix(2.6667,0,0,1,0,0)" width="30"/>
  <atv:overwrite id="id_6" transform="matrix(2.6667,0,0,1,0,0)" width="28"/>
  <atv:overwrite id="button_label_2" transform="matrix(2.6667,0,0,1,0,0)" x="15"/>
  <atv:overwrite id="button_label_1" transform="matrix(2.6667,0,0,1,0,0)" x="15"/>
  <atv:overwrite id="button_label" transform="matrix(2.6667,0,0,1,0,0)" x="15"/>
  <atv:overwrite id="button_symbol_bottom" transform="matrix(1.6,0,0,0.6,0,0)" x="14.833"/>
  <atv:overwrite id="button_symbol_top" transform="matrix(1.6,0,0,0.6,0,0)" x="14.833"/>
  <atv:overwrite id="button_symbol" transform="matrix(2.6667,0,0,1,0,0)" x="5"/>
  <atv:overwrite id="button_stroke" transform="matrix(2.6667,0,0,1,0,0)" width="26"/>
  <atv:overwrite id="button_bg" transform="matrix(2.6667,0,0,1,0,0)" width="28"/>
  <atv:overwrite id="outer_frame" transform="matrix(2.6667,0,0,1,0,0)" width="30"/>
 </svg>
 <svg atv:refpx="62.317" atv:refpy="45.934" height="20" id="symbol" transform="matrix(3.1935,0,0,3.1935,0,0)" width="20" x="11.859" xlink:href="$SYMBOL$" y="4.384">
  <atv:argument name="symbolColor" prefix="symbolColor"/>
 </svg>
 <text atv:refpx="224" atv:refpy="49" fill="$FONTCOLOR$" font-family="Arial" font-size="20" id="headline" text-anchor="middle" x="236.5" y="53.5">$HEADLINE$</text>
 <rect atv:refpx="-186.142" atv:refpy="175" fill="#ffffff" height="50" id="language_background" rx="10" ry="10" stroke="none" stroke-width="0" width="390" x="20" y="270"/>
 <svg atv:refpx="260" atv:refpy="245" height="30" id="language_input" transform="matrix(1.125,0,0,1,0,0)" width="160" x="151.111" xlink:href="SYSTEM.LIBRARY.ATVISE.OBJECTDISPLAYS.Advanced.in_out_value" y="280">
  <atv:argument name="validation" value="String"/>
  <atv:argument name="allowDirectInput" value="Yes"/>
  <atv:argument name="tabIndex" value="5"/>
  <atv:overwrite id="id_2" transform="matrix(0.8889,0,0,1,0,0)" width="174.5"/>
  <atv:overwrite id="input_label" transform="matrix(0.8889,0,0,1,0,0)" x="172.055"/>
  <atv:overwrite id="blinking_frame" transform="matrix(0.8889,0,0,1,0,0)" width="172"/>
  <atv:overwrite id="focus_frame" transform="matrix(0.8889,0,0,1,0,0)" width="176"/>
  <atv:overwrite id="input_bg" transform="matrix(0.8889,0,0,1,0,0)" width="172"/>
  <atv:overwrite id="id_1" transform="matrix(0.8889,0,0,1,0,0)" width="178"/>
  <atv:overwrite id="id_0" transform="matrix(0.8889,0,0,1,0,0)" width="180"/>
 </svg>
 <text atv:refpx="78.949" atv:refpy="293.5" fill="$FONTCOLOR$" font-family="Arial" font-size="16" id="language_label" x="34" y="299.5">T{Language}</text>
 <svg atv:dynamic="true" atv:refpx="375" atv:refpy="245" height="30" id="language_keyboard" transform="matrix(0.375,0,0,1,0,0)" width="80" x="960" xlink:href="SYSTEM.LIBRARY.ATVISE.OBJECTDISPLAYS.Advanced.button" y="280">
  <atv:argument name="symbol" value="SYSTEM.LIBRARY.ATVISE.OBJECTDISPLAYS.Symbols.20x20.keyboard"/>
  <atv:argument name="visibilitySymbol" value="inherit"/>
  <atv:argument name="visibilityLabel" value="hidden"/>
  <atv:argument name="tabIndex" value="6"/>
  <atv:overwrite id="id_2" transform="matrix(2.6667,0,0,1,0,0)" width="24.5"/>
  <atv:overwrite id="id_0" transform="matrix(2.6667,0,0,1,0,0)" width="29.5"/>
  <atv:overwrite id="id_1" transform="matrix(2.6667,0,0,1,0,0)" width="30"/>
  <atv:overwrite id="id_6" transform="matrix(2.6667,0,0,1,0,0)" width="28"/>
  <atv:overwrite id="button_label_2" transform="matrix(2.6667,0,0,1,0,0)" x="15"/>
  <atv:overwrite id="button_label_1" transform="matrix(2.6667,0,0,1,0,0)" x="15"/>
  <atv:overwrite id="button_label" transform="matrix(2.6667,0,0,1,0,0)" x="15"/>
  <atv:overwrite id="button_symbol_bottom" transform="matrix(1.6,0,0,0.6,0,0)" x="14.833"/>
  <atv:overwrite id="button_symbol_top" transform="matrix(1.6,0,0,0.6,0,0)" x="14.833"/>
  <atv:overwrite id="button_symbol" transform="matrix(2.6667,0,0,1,0,0)" x="5"/>
  <atv:overwrite id="button_stroke" transform="matrix(2.6667,0,0,1,0,0)" width="26"/>
  <atv:overwrite id="button_bg" transform="matrix(2.6667,0,0,1,0,0)" width="28"/>
  <atv:overwrite id="outer_frame" transform="matrix(2.6667,0,0,1,0,0)" width="30"/>
 </svg>
 <rect atv:refpx="-186.142" atv:refpy="235" fill="#ffffff" height="50" id="default_background" rx="10" ry="10" stroke="none" stroke-width="0" width="390" x="20" y="330"/>
 <text atv:refpx="96.935" atv:refpy="353.5" fill="$FONTCOLOR$" font-family="Arial" font-size="16" id="default_label" x="33.688" y="359.5">T{Default Display}</text>
 <rect atv:refpx="-186.142" atv:refpy="295" fill="#ffffff" height="50" id="content_background" rx="10" ry="10" stroke="none" stroke-width="0" width="390" x="20" y="390"/>
 <text atv:refpx="99.578" atv:refpy="413.5" fill="$FONTCOLOR$" font-family="Arial" font-size="16" id="content_label" x="34" y="419.5">T{Content Display}</text>
 <text atv:refpx="218.328" atv:refpy="584.5" fill="#ff0004" font-family="Arial" font-size="14" id="error_message" text-anchor="middle" x="218.328" y="589.5">&lt;errormessage></text>
 <svg atv:refpx="260" atv:refpy="305" height="30" id="display_default_input" transform="matrix(1.125,0,0,1,0,0)" width="160" x="151.111" xlink:href="SYSTEM.LIBRARY.ATVISE.OBJECTDISPLAYS.Advanced.in_out_value" y="340">
  <atv:argument name="validation" value="String"/>
  <atv:argument name="allowDirectInput" value="Yes"/>
  <atv:argument name="tabIndex" value="7"/>
  <atv:overwrite id="id_2" transform="matrix(0.8889,0,0,1,0,0)" width="174.5"/>
  <atv:overwrite id="input_label" transform="matrix(0.8889,0,0,1,0,0)" x="172.055"/>
  <atv:overwrite id="blinking_frame" transform="matrix(0.8889,0,0,1,0,0)" width="172"/>
  <atv:overwrite id="focus_frame" transform="matrix(0.8889,0,0,1,0,0)" width="176"/>
  <atv:overwrite id="input_bg" transform="matrix(0.8889,0,0,1,0,0)" width="172"/>
  <atv:overwrite id="id_1" transform="matrix(0.8889,0,0,1,0,0)" width="178"/>
  <atv:overwrite id="id_0" transform="matrix(0.8889,0,0,1,0,0)" width="180"/>
 </svg>
 <svg atv:refpx="260" atv:refpy="365" height="30" id="display_content_input" transform="matrix(1.125,0,0,1,0,0)" width="160" x="151.111" xlink:href="SYSTEM.LIBRARY.ATVISE.OBJECTDISPLAYS.Advanced.in_out_value" y="400">
  <atv:argument name="validation" value="String"/>
  <atv:argument name="allowDirectInput" value="Yes"/>
  <atv:argument name="tabIndex" value="9"/>
  <atv:overwrite id="id_2" transform="matrix(0.8889,0,0,1,0,0)" width="174.5"/>
  <atv:overwrite id="input_label" transform="matrix(0.8889,0,0,1,0,0)" x="172.055"/>
  <atv:overwrite id="blinking_frame" transform="matrix(0.8889,0,0,1,0,0)" width="172"/>
  <atv:overwrite id="focus_frame" transform="matrix(0.8889,0,0,1,0,0)" width="176"/>
  <atv:overwrite id="input_bg" transform="matrix(0.8889,0,0,1,0,0)" width="172"/>
  <atv:overwrite id="id_1" transform="matrix(0.8889,0,0,1,0,0)" width="178"/>
  <atv:overwrite id="id_0" transform="matrix(0.8889,0,0,1,0,0)" width="180"/>
 </svg>
 <svg atv:dynamic="true" atv:refpx="375" atv:refpy="305" height="30" id="display_default_keyboard" transform="matrix(0.375,0,0,1,0,0)" width="80" x="960" xlink:href="SYSTEM.LIBRARY.ATVISE.OBJECTDISPLAYS.Advanced.button" y="340">
  <atv:argument name="symbol" value="SYSTEM.LIBRARY.ATVISE.OBJECTDISPLAYS.Symbols.20x20.keyboard"/>
  <atv:argument name="visibilitySymbol" value="inherit"/>
  <atv:argument name="visibilityLabel" value="hidden"/>
  <atv:argument name="tabIndex" value="8"/>
  <atv:overwrite id="id_2" transform="matrix(2.6667,0,0,1,0,0)" width="24.5"/>
  <atv:overwrite id="id_0" transform="matrix(2.6667,0,0,1,0,0)" width="29.5"/>
  <atv:overwrite id="id_1" transform="matrix(2.6667,0,0,1,0,0)" width="30"/>
  <atv:overwrite id="id_6" transform="matrix(2.6667,0,0,1,0,0)" width="28"/>
  <atv:overwrite id="button_label_2" transform="matrix(2.6667,0,0,1,0,0)" x="15"/>
  <atv:overwrite id="button_label_1" transform="matrix(2.6667,0,0,1,0,0)" x="15"/>
  <atv:overwrite id="button_label" transform="matrix(2.6667,0,0,1,0,0)" x="15"/>
  <atv:overwrite id="button_symbol_bottom" transform="matrix(1.6,0,0,0.6,0,0)" x="14.833"/>
  <atv:overwrite id="button_symbol_top" transform="matrix(1.6,0,0,0.6,0,0)" x="14.833"/>
  <atv:overwrite id="button_symbol" transform="matrix(2.6667,0,0,1,0,0)" x="5"/>
  <atv:overwrite id="button_stroke" transform="matrix(2.6667,0,0,1,0,0)" width="26"/>
  <atv:overwrite id="button_bg" transform="matrix(2.6667,0,0,1,0,0)" width="28"/>
  <atv:overwrite id="outer_frame" transform="matrix(2.6667,0,0,1,0,0)" width="30"/>
 </svg>
 <svg atv:dynamic="true" atv:refpx="375" atv:refpy="365" height="30" id="display_content_keyboard" transform="matrix(0.375,0,0,1,0,0)" width="80" x="960" xlink:href="SYSTEM.LIBRARY.ATVISE.OBJECTDISPLAYS.Advanced.button" y="400">
  <atv:argument name="symbol" value="SYSTEM.LIBRARY.ATVISE.OBJECTDISPLAYS.Symbols.20x20.keyboard"/>
  <atv:argument name="visibilitySymbol" value="inherit"/>
  <atv:argument name="visibilityLabel" value="hidden"/>
  <atv:argument name="tabIndex" value="10"/>
  <atv:overwrite id="id_2" transform="matrix(2.6667,0,0,1,0,0)" width="24.5"/>
  <atv:overwrite id="id_0" transform="matrix(2.6667,0,0,1,0,0)" width="29.5"/>
  <atv:overwrite id="id_1" transform="matrix(2.6667,0,0,1,0,0)" width="30"/>
  <atv:overwrite id="id_6" transform="matrix(2.6667,0,0,1,0,0)" width="28"/>
  <atv:overwrite id="button_label_2" transform="matrix(2.6667,0,0,1,0,0)" x="15"/>
  <atv:overwrite id="button_label_1" transform="matrix(2.6667,0,0,1,0,0)" x="15"/>
  <atv:overwrite id="button_label" transform="matrix(2.6667,0,0,1,0,0)" x="15"/>
  <atv:overwrite id="button_symbol_bottom" transform="matrix(1.6,0,0,0.6,0,0)" x="14.833"/>
  <atv:overwrite id="button_symbol_top" transform="matrix(1.6,0,0,0.6,0,0)" x="14.833"/>
  <atv:overwrite id="button_symbol" transform="matrix(2.6667,0,0,1,0,0)" x="5"/>
  <atv:overwrite id="button_stroke" transform="matrix(2.6667,0,0,1,0,0)" width="26"/>
  <atv:overwrite id="button_bg" transform="matrix(2.6667,0,0,1,0,0)" width="28"/>
  <atv:overwrite id="outer_frame" transform="matrix(2.6667,0,0,1,0,0)" width="30"/>
 </svg>
 <rect atv:refpx="215" atv:refpy="475" fill="#ffffff" height="50" id="id_9" rx="10" ry="10" stroke="none" stroke-width="0" width="390" x="20" y="450"/>
 <rect atv:refpx="215" atv:refpy="115" fill="#ffffff" height="50" id="id_3" rx="10" ry="10" stroke="none" stroke-width="0" width="390" x="20" y="90"/>
 <rect atv:refpx="4.286" atv:refpy="45" fill="none" height="50" id="id_5" rx="5.961" ry="5.961" stroke="none" stroke-width="0" width="200" x="110" y="90"/>
 <svg atv:refpx="260" atv:refpy="115" height="30" id="username_input" transform="matrix(1.125,0,0,1,0,0)" width="160" x="151.111" xlink:href="SYSTEM.LIBRARY.ATVISE.OBJECTDISPLAYS.Advanced.in_out_value" y="100">
  <atv:argument name="validation" value="String"/>
  <atv:argument name="allowDirectInput" value="Yes"/>
  <atv:argument name="tabIndex" value="3"/>
  <atv:overwrite id="id_2" transform="matrix(0.8889,0,0,1,0,0)" width="174.5"/>
  <atv:overwrite id="input_label" transform="matrix(0.8889,0,0,1,0,0)" x="172.055"/>
  <atv:overwrite id="blinking_frame" transform="matrix(0.8889,0,0,1,0,0)" width="172"/>
  <atv:overwrite id="focus_frame" transform="matrix(0.8889,0,0,1,0,0)" width="176"/>
  <atv:overwrite id="input_bg" transform="matrix(0.8889,0,0,1,0,0)" width="172"/>
  <atv:overwrite id="id_1" transform="matrix(0.8889,0,0,1,0,0)" width="178"/>
  <atv:overwrite id="id_0" transform="matrix(0.8889,0,0,1,0,0)" width="180"/>
 </svg>
 <text atv:refpx="80.304" atv:refpy="113.5" fill="$FONTCOLOR$" font-family="Arial" font-size="16" id="username_label" x="34" y="119.5">T{Username}</text>
 <svg atv:dynamic="true" atv:refpx="375" atv:refpy="115" height="30" id="username_keyboard" transform="matrix(0.375,0,0,1,0,0)" width="80" x="960" xlink:href="SYSTEM.LIBRARY.ATVISE.OBJECTDISPLAYS.Advanced.button" y="100">
  <atv:argument name="symbol" value="SYSTEM.LIBRARY.ATVISE.OBJECTDISPLAYS.Symbols.20x20.keyboard"/>
  <atv:argument name="visibilitySymbol" value="inherit"/>
  <atv:argument name="visibilityLabel" value="hidden"/>
  <atv:argument name="tabIndex" value="4"/>
  <atv:overwrite id="id_2" transform="matrix(2.6667,0,0,1,0,0)" width="24.5"/>
  <atv:overwrite id="id_0" transform="matrix(2.6667,0,0,1,0,0)" width="29.5"/>
  <atv:overwrite id="id_1" transform="matrix(2.6667,0,0,1,0,0)" width="30"/>
  <atv:overwrite id="id_6" transform="matrix(2.6667,0,0,1,0,0)" width="28"/>
  <atv:overwrite id="button_label_2" transform="matrix(2.6667,0,0,1,0,0)" x="15"/>
  <atv:overwrite id="button_label_1" transform="matrix(2.6667,0,0,1,0,0)" x="15"/>
  <atv:overwrite id="button_label" transform="matrix(2.6667,0,0,1,0,0)" x="15"/>
  <atv:overwrite id="button_symbol_bottom" transform="matrix(1.6,0,0,0.6,0,0)" x="14.833"/>
  <atv:overwrite id="button_symbol_top" transform="matrix(1.6,0,0,0.6,0,0)" x="14.833"/>
  <atv:overwrite id="button_symbol" transform="matrix(2.6667,0,0,1,0,0)" x="5"/>
  <atv:overwrite id="button_stroke" transform="matrix(2.6667,0,0,1,0,0)" width="26"/>
  <atv:overwrite id="button_bg" transform="matrix(2.6667,0,0,1,0,0)" width="28"/>
  <atv:overwrite id="outer_frame" transform="matrix(2.6667,0,0,1,0,0)" width="30"/>
 </svg>
 <svg atv:refpx="122" atv:refpy="475" height="30" id="super_user" transform="matrix(1.1,0,0,1,0,0)" width="160" x="30.909" xlink:href="SYSTEM.LIBRARY.ATVISE.OBJECTDISPLAYS.Advanced.checkbox" y="460">
  <atv:argument name="label" value="T{Super User}"/>
  <atv:argument name="fontSize" value="16"/>
  <atv:overwrite id="checkbox_item" transform="matrix(0.9091,0,0,1,0,0)"/>
  <atv:overwrite id="checkbox_symbol" transform="matrix(0.9091,0,0,1,0,0)"/>
  <atv:overwrite id="blinking_frame" transform="matrix(0.9091,0,0,1,0,0)"/>
  <atv:overwrite id="focus_frame" transform="matrix(0.9091,0,0,1,0,0)"/>
  <atv:overwrite id="checkbox_bg" transform="matrix(0.9091,0,0,1,0,0)"/>
  <atv:overwrite id="checkbox_frame" transform="matrix(0.9091,0,0,1,0,0)"/>
  <atv:overwrite id="checkbox_stroke" transform="matrix(0.9091,0,0,1,0,0)"/>
 </svg>
 <script atv:desc="" atv:href="SYSTEM.LIBRARY.PROJECT.DISPLAYSCRIPTS.usermanagement.user_add" atv:name="user_add" atv:type="text/ecmascript"/>
 <script atv:desc="" atv:name="" type="text/ecmascript"><![CDATA[

]]></script>
 <svg atv:refpx="315" atv:refpy="475" height="30" id="webmi" transform="matrix(1.1875,0,0,1,0,0)" width="160" x="185.263" xlink:href="SYSTEM.LIBRARY.ATVISE.OBJECTDISPLAYS.Advanced.checkbox" y="460">
  <atv:argument name="label" value="T{Visualization}"/>
  <atv:argument name="fontSize" value="16"/>
  <atv:overwrite id="checkbox_item" transform="matrix(0.8421,0,0,1,0,0)"/>
  <atv:overwrite id="checkbox_symbol" transform="matrix(0.8421,0,0,1,0,0)"/>
  <atv:overwrite id="blinking_frame" transform="matrix(0.8421,0,0,1,0,0)"/>
  <atv:overwrite id="focus_frame" transform="matrix(0.8421,0,0,1,0,0)"/>
  <atv:overwrite id="checkbox_bg" transform="matrix(0.8421,0,0,1,0,0)"/>
  <atv:overwrite id="checkbox_frame" transform="matrix(0.8421,0,0,1,0,0)"/>
  <atv:overwrite id="checkbox_stroke" transform="matrix(0.8421,0,0,1,0,0)"/>
 </svg>
 <rect atv:refpx="215" atv:refpy="535" fill="#ffffff" height="50" id="id_7" rx="10" ry="10" stroke="none" stroke-width="0" width="390" x="20" y="510"/>
 <svg atv:refpx="217" atv:refpy="535" height="30" id="opcua" transform="matrix(2.2875,0,0,1,0,0)" width="160" x="14.863" xlink:href="SYSTEM.LIBRARY.ATVISE.OBJECTDISPLAYS.Advanced.checkbox" y="520">
  <atv:argument name="label" value="T{OPC UA Server (Engineering)}"/>
  <atv:argument name="fontSize" value="16"/>
  <atv:overwrite id="checkbox_item" transform="matrix(0.4372,0,0,1,0,0)"/>
  <atv:overwrite id="checkbox_symbol" transform="matrix(0.4372,0,0,1,0,0)"/>
  <atv:overwrite id="blinking_frame" transform="matrix(0.4372,0,0,1,0,0)"/>
  <atv:overwrite id="focus_frame" transform="matrix(0.4372,0,0,1,0,0)"/>
  <atv:overwrite id="checkbox_bg" transform="matrix(0.4372,0,0,1,0,0)"/>
  <atv:overwrite id="checkbox_frame" transform="matrix(0.4372,0,0,1,0,0)"/>
  <atv:overwrite id="checkbox_stroke" transform="matrix(0.4372,0,0,1,0,0)"/>
 </svg>
</svg>
