<?xml version='1.0' encoding='UTF-8' standalone='no'?>
<svg height="50" version="1.2" width="133" xmlns="http://www.w3.org/2000/svg" xmlns:atv="http://webmi.atvise.com/2007/svgext" xmlns:xlink="http://www.w3.org/1999/xlink">
 <defs/>
 <desc>Steps back on the x-axis.</desc>
 <title>Button Back</title>
 <metadata>
  <atv:parameter behavior="mandatory" defaultvalue="trend1" desc="chart name" name="chartname" valuetype="string"/>
  <atv:parameter behavior="optional" defaultvalue="0" desc="x-axis index" name="xAxisIndex" valuetype="string"/>
  <atv:parameter behavior="optional" defaultvalue="100" desc="step in percent" name="stepPercent" valuetype="string"/>
  <atv:gridconfig enabled="false" gridstyle="lines" height="20" width="20"/>
  <atv:snapconfig enabled="false" height="10" width="10"/>
 </metadata>
 <svg atv:bindbr="0,1" atv:bindtl="0,1" atv:refpx="66.5" atv:refpy="25" height="30" id="btn_back" transform="matrix(1.6625,0,0,1.6667,0,0)" visibility="$BUTTONSVISIBLE$" width="80" x="0" xlink:href="SYSTEM.LIBRARY.ATVISE.OBJECTDISPLAYS.Advanced.button" y="0">
  <atv:argument name="label" value=""/>
  <atv:argument name="visibilityLabel" value="hidden"/>
  <atv:argument name="visibilitySymbol" value="inherit"/>
  <atv:argument name="symbol" value="SYSTEM.LIBRARY.ATVISE.OBJECTDISPLAYS.Symbols.20x20.rewind"/>
  <atv:argument name="tooltip" value="T{Back}"/>
  <atv:overwrite height="48" id="id_6" transform="matrix(0.6015,0,0,0.6,0,0)" width="131"/>
  <atv:overwrite id="button_label_2" transform="matrix(0.6015,0,0,0.6,0,0)" x="66.5" y="36.5"/>
  <atv:overwrite id="button_label_1" transform="matrix(0.6015,0,0,0.6,0,0)" x="66.5" y="21.5"/>
  <atv:overwrite id="button_label" transform="matrix(0.6015,0,0,0.6,0,0)" x="66.5" y="29.5"/>
  <atv:overwrite id="button_symbol_bottom" transform="matrix(0.3609,0,0,0.36,0,0)" x="100.667" y="42.959"/>
  <atv:overwrite id="button_symbol_top" transform="matrix(0.3609,0,0,0.36,0,0)" x="100.667" y="21.626"/>
  <atv:overwrite id="button_symbol" transform="matrix(0.6015,0,0,0.6,0,0)" x="56.5" y="15"/>
  <atv:overwrite height="46" id="button_stroke" transform="matrix(0.6015,0,0,0.6,0,0)" width="129"/>
  <atv:overwrite height="48" id="button_bg" transform="matrix(0.6015,0,0,0.6,0,0)" width="131"/>
  <atv:overwrite height="50" id="outer_frame" transform="matrix(0.6015,0,0,0.6,0,0)" width="133"/>
 </svg>
 <script atv:desc="" atv:href="SYSTEM.LIBRARY.ATVISE.DISPLAYSCRIPTS.highcharts.button_back" atv:name="button_back" atv:type="text/ecmascript"/>
 <script atv:desc="" atv:name="" type="text/ecmascript"/>
</svg>
