<?xml version='1.0' encoding='UTF-8' standalone='no'?>
<svg height="278.38" version="1.2" width="682" xmlns="http://www.w3.org/2000/svg" xmlns:atv="http://webmi.atvise.com/2007/svgext" xmlns:xlink="http://www.w3.org/1999/xlink">
 <defs/>
 <metadata>
  <atv:gridconfig enabled="true" gridstyle="lines" height="20" width="20"/>
  <atv:snapconfig enabled="true" height="1" width="1"/>
 </metadata>
 <g atv:insensitive="true" atv:refpx="0" atv:refpy="0" id="id_11" transform="matrix(0.5328,0,0,0.3625,0,0)">
  <rect atv:refpx="640" atv:refpy="384" fill="#ffffff" height="768.00" id="id_12" width="1280.00" x="0" y="0"/>
 </g>
 <script atv:desc="" atv:name="" type="text/ecmascript"/>
 <line atv:refpx="342" atv:refpy="60.5" id="id_0" stroke="#000000" stroke-linecap="round" stroke-linejoin="round" stroke-opacity="0.956863" stroke-width="2" x1="326.5" x2="326.5" y1="80.5" y2="40.5"/>
 <line atv:refpx="346.751" atv:refpy="147" fill="#000000" id="id_27" stroke="#000000" stroke-linecap="round" stroke-linejoin="round" stroke-width="2.015" x1="330.751" x2="330.751" y1="159" y2="131"/>
 <rect atv:refpx="632.935" atv:refpy="35.5" fill="#000088" fill-opacity="0" height="70" id="id_10" stroke="#000072" stroke-width="1" width="117.5" x="564" y="0.5"/>
 <line atv:refpx="251.75" atv:refpy="100" fill="#000000" fill-opacity="0.964706" id="id_46" stroke="#000000" stroke-linecap="round" stroke-linejoin="round" stroke-width="2" x1="227.5" x2="276" y1="99.5" y2="99.5"/>
 <polygon atv:refpx="32.362" atv:refpy="219.001" fill="#000018" id="id_55" points="268.499,90.001 268.499,110.001 281.69,100.001 281.69,100.001" stroke="#000000" stroke-linecap="round" stroke-linejoin="round" stroke-opacity="0" stroke-width="2.015"/>
 <g atv:refpx="50.001" atv:refpy="216.125" id="id_61" transform="matrix(1,0,0,1,-373.9986,-114.875)">
  <line atv:refpx="423.5" atv:refpy="532.011" fill="#000000" id="id_59" stroke="#000000" stroke-linecap="round" stroke-linejoin="round" stroke-width="2.015" x1="424" x2="424" y1="346" y2="318"/>
  <polygon atv:refpx="423" atv:refpy="489.501" fill="#000018" id="id_60" points="414,328.191 434,328.191 424,315 424,315" stroke="#000000" stroke-linecap="round" stroke-linejoin="round" stroke-opacity="0" stroke-width="2.015"/>
 </g>
 <polyline atv:refpx="203.001" atv:refpy="0.5" fill="#000018" fill-opacity="0" id="id_63" points="251,95 251,32 171,32 171,32" stroke="#000000" stroke-linecap="round" stroke-linejoin="round" stroke-opacity="0.956863" stroke-width="2"/>
 <line atv:refpx="250" atv:refpy="177.717" fill="#000000" id="id_70" stroke="#000000" stroke-linecap="round" stroke-linejoin="round" stroke-width="2.015" x1="230" x2="270" y1="177.217" y2="177.217"/>
 <polygon atv:refpx="425.31" atv:refpy="486.969" fill="#000018" id="id_71" points="269,187.217 269,167.217 282.191,177.217 282.191,177.217" stroke="#000000" stroke-linecap="round" stroke-linejoin="round" stroke-opacity="0" stroke-width="2.015"/>
 <svg atv:refpx="223" atv:refpy="101.999" height="63.11" id="id_1" transform="matrix(0.7519,0,0,0.7289,0,0)" width="133" x="168.905" xlink:href="ObjectTypes.PROJECT.ElementoLineaAR.Principal" y="105.64">
  <atv:argument name="base" value="AGENT.OBJECTS.SCADA.Benito_Juarez.Cuencas.Cuenca_CAR_CBE.Carcamo_18_Poniente"/>
 </svg>
 <svg atv:refpx="345.736" atv:refpy="177.213" height="63.11" id="id_2" transform="matrix(0.7519,0,0,0.7289,0,0)" width="133" x="373.387" xlink:href="ObjectTypes.PROJECT.ElementoLineaAR.Principal" y="211.575">
  <atv:argument name="base" value="AGENT.OBJECTS.SCADA.Benito_Juarez.Cuencas.Cuenca_CAR_CBE.Carcamo_2000_Oriente"/>
 </svg>
 <svg atv:refpx="221" atv:refpy="37.996" height="63.11" id="id_3" transform="matrix(0.7519,0,0,0.7289,0,0)" width="133" x="166.246" xlink:href="ObjectTypes.PROJECT.ElementoLineaAR.Principal" y="17.835">
  <atv:argument name="base" value="AGENT.OBJECTS.SCADA.Benito_Juarez.Cuencas.Cuenca_CAR_CBE.Carcamo_514"/>
 </svg>
 <svg atv:refpx="179.983" atv:refpy="177.213" height="63.11" id="id_4" transform="matrix(0.7519,0,0,0.7289,0,0)" width="133" x="172.895" xlink:href="ObjectTypes.PROJECT.ElementoLineaAR.Principal" y="211.575">
  <atv:argument name="base" value="AGENT.OBJECTS.SCADA.Benito_Juarez.Cuencas.Cuenca_CAR_CBE.Carcamo_Balam"/>
 </svg>
 <svg atv:refpx="345.742" atv:refpy="99.999" height="63.11" id="id_5" transform="matrix(0.7519,0,0,0.7289,0,0)" width="133" x="373.387" xlink:href="ObjectTypes.PROJECT.ElementoLineaAR.Principal" y="105.64">
  <atv:argument name="base" value="AGENT.OBJECTS.SCADA.Benito_Juarez.Cuencas.Cuenca_CAR_CBE.Carcamo_Final_95"/>
 </svg>
 <svg atv:refpx="471.001" atv:refpy="38.493" height="63.11" id="id_6" transform="matrix(0.7519,0,0,0.7289,0,0)" width="133" x="559.925" xlink:href="ObjectTypes.PROJECT.ElementoLineaAR.Principal" y="21.265">
  <atv:argument name="base" value="AGENT.OBJECTS.SCADA.Benito_Juarez.Cuencas.Cuenca_CAR_CBE.Carcamo_Final_Sur"/>
 </svg>
 <svg atv:refpx="338.736" atv:refpy="255.372" height="63.11" id="id_7" transform="matrix(0.7519,0,0,0.7289,0,0)" width="133" x="373.387" xlink:href="ObjectTypes.PROJECT.ElementoLineaAR.Principal" y="318.806">
  <atv:argument name="base" value="AGENT.OBJECTS.SCADA.Benito_Juarez.Cuencas.Cuenca_CAR_CBE.Carcamo_Poder_Judicial"/>
 </svg>
 <svg atv:refpx="49.983" atv:refpy="177.211" height="63.11" id="id_8" transform="matrix(0.7519,0,0,0.7289,0,0)" width="133" x="0" xlink:href="ObjectTypes.PROJECT.ElementoLineaAR.Principal" y="211.575">
  <atv:argument name="base" value="AGENT.OBJECTS.SCADA.Benito_Juarez.Cuencas.Cuenca_CAR_CBE.Carcamo_ST_Johns"/>
 </svg>
 <svg atv:refpx="49.983" atv:refpy="255.37" height="63.11" id="id_9" transform="matrix(0.7519,0,0,0.7289,0,0)" width="133" x="0" xlink:href="ObjectTypes.PROJECT.ElementoLineaAR.Principal" y="318.806">
  <atv:argument name="base" value="AGENT.OBJECTS.SCADA.Benito_Juarez.Cuencas.Cuenca_CAR_CBE.Carcamo_Villa_Magna"/>
 </svg>
 <text atv:refpx="622.756" atv:refpy="35.497" fill="#000018" font-family="Arial" font-size="18" font-weight="bold" id="id_13" transform="matrix(0.612,0,0,0.6329,220.8496,9.547)" x="573.7" y="47.506">PTAR CARIBE 2000</text>
 <g atv:refpx="115.007" atv:refpy="177.217" id="id_15" transform="matrix(0,1,-1,0,446.0075,-246.7828)">
  <line atv:refpx="423.5" atv:refpy="532.011" fill="#000000" id="id_16" stroke="#000000" stroke-linecap="round" stroke-linejoin="round" stroke-width="2.015" x1="424" x2="424" y1="346" y2="318"/>
  <polygon atv:refpx="423" atv:refpy="489.501" fill="#000018" id="id_17" points="414,328.191 434,328.191 424,315 424,315" stroke="#000000" stroke-linecap="round" stroke-linejoin="round" stroke-opacity="0" stroke-width="2.015"/>
 </g>
 <line atv:refpx="371.75" atv:refpy="39" id="id_21" stroke="#000000" stroke-linecap="round" stroke-linejoin="round" stroke-opacity="0.956863" stroke-width="2" x1="327" x2="416.5" y1="38.5" y2="38.5"/>
 <polygon atv:refpx="158.362" atv:refpy="157.5" fill="#000018" id="id_23" points="409.499,28.5 409.499,48.5 422.689,38.5 422.689,38.5" stroke="#000000" stroke-linecap="round" stroke-linejoin="round" stroke-opacity="0" stroke-width="2.015"/>
 <line atv:refpx="536.5" atv:refpy="39" id="id_24" stroke="#000000" stroke-linecap="round" stroke-linejoin="round" stroke-opacity="0.956863" stroke-width="2" x1="521.5" x2="551.5" y1="38.5" y2="38.5"/>
 <polygon atv:refpx="298.362" atv:refpy="157.5" fill="#000018" id="id_25" points="549.499,28.5 549.499,48.5 562.688,38.5 562.688,38.5" stroke="#000000" stroke-linecap="round" stroke-linejoin="round" stroke-opacity="0" stroke-width="2.015"/>
 <polygon atv:refpx="242.5" atv:refpy="79.5" fill="#000018" id="id_26" points="240.499,85.596 260.499,85.596 250.499,98.786 250.499,98.786" stroke="#000000" stroke-linecap="round" stroke-linejoin="round" stroke-opacity="0" stroke-width="2.015"/>
 <polygon atv:refpx="344.752" atv:refpy="297.001" fill="#000018" id="id_28" points="320.751,135.69 340.751,135.69 330.751,122.5 330.751,122.5" stroke="#000000" stroke-linecap="round" stroke-linejoin="round" stroke-opacity="0" stroke-width="2.015"/>
 <g atv:refpx="345.751" atv:refpy="216.125" id="id_29" transform="matrix(1,0,0,1,-93.2488,-114.875)">
  <line atv:refpx="423.5" atv:refpy="532.011" fill="#000000" id="id_30" stroke="#000000" stroke-linecap="round" stroke-linejoin="round" stroke-width="2.015" x1="424" x2="424" y1="346" y2="318"/>
  <polygon atv:refpx="423" atv:refpy="489.501" fill="#000018" id="id_31" points="414,328.191 434,328.191 424,315 424,315" stroke="#000000" stroke-linecap="round" stroke-linejoin="round" stroke-opacity="0" stroke-width="2.015"/>
 </g>
</svg>
