<?xml version='1.0' encoding='UTF-8' standalone='no'?>
<svg height="201.5" version="1.2" width="655.5" xmlns="http://www.w3.org/2000/svg" xmlns:atv="http://webmi.atvise.com/2007/svgext" xmlns:xlink="http://www.w3.org/1999/xlink">
 <defs/>
 <metadata>
  <atv:gridconfig enabled="true" gridstyle="lines" height="20" width="20"/>
  <atv:snapconfig enabled="true" height="1" width="1"/>
 </metadata>
 <g atv:insensitive="true" atv:refpx="0" atv:refpy="0" id="id_11" transform="matrix(0.5122,0,0,0.2624,0,0)">
  <rect atv:refpx="640" atv:refpy="384" fill="#ffffff" height="768.00" id="id_12" width="1280.00" x="0" y="0"/>
 </g>
 <script atv:desc="" atv:name="" type="text/ecmascript"/>
 <line atv:refpx="-517.542" atv:refpy="273.5" fill="#000000" fill-opacity="0.964706" id="id_51" stroke="#000000" stroke-linecap="round" stroke-linejoin="round" stroke-width="2" x1="497.75" x2="601" y1="23" y2="23"/>
 <line atv:refpx="545.75" atv:refpy="179.5" fill="#000000" fill-opacity="0.964706" id="id_45" stroke="#000000" stroke-linecap="round" stroke-linejoin="round" stroke-width="2" x1="499" x2="601" y1="178.5" y2="178.5"/>
 <line atv:refpx="150.656" atv:refpy="262" fill="#000000" fill-opacity="0.964706" id="id_48" stroke="#000000" stroke-linecap="round" stroke-linejoin="round" stroke-width="2" x1="498.75" x2="534" y1="103.5" y2="103.5"/>
 <polygon atv:refpx="291.25" atv:refpy="261.5" fill="#000018" fill-opacity="0.964706" id="id_49" points="533.749,93.5 533.749,113.5 546.749,103.5 546.749,103.5" stroke="#000000" stroke-linecap="round" stroke-linejoin="round" stroke-opacity="0" stroke-width="2"/>
 <g atv:refpx="246.75" atv:refpy="103.5" id="id_0" transform="matrix(1,0,0,1,121.25,-188.5)">
  <line atv:refpx="123" atv:refpy="292.5" fill="#000000" fill-opacity="0.964706" id="id_14" stroke="#000000" stroke-linecap="round" stroke-linejoin="round" stroke-width="2" x1="111" x2="135" y1="292" y2="292"/>
  <polygon atv:refpx="134.5" atv:refpy="292" fill="#000018" fill-opacity="0.964706" id="id_32" points="128,282 128,302 141,292 141,292" stroke="#000000" stroke-linecap="round" stroke-linejoin="round" stroke-opacity="0" stroke-width="2"/>
 </g>
 <g atv:refpx="246.75" atv:refpy="23" id="id_15" transform="matrix(1,0,0,1,121.25,-268.9996)">
  <line atv:refpx="123" atv:refpy="292.5" fill="#000000" fill-opacity="0.964706" id="id_16" stroke="#000000" stroke-linecap="round" stroke-linejoin="round" stroke-width="2" x1="111" x2="135" y1="292" y2="292"/>
  <polygon atv:refpx="134.5" atv:refpy="292" fill="#000018" fill-opacity="0.964706" id="id_17" points="128,282 128,302 141,292 141,292" stroke="#000000" stroke-linecap="round" stroke-linejoin="round" stroke-opacity="0" stroke-width="2"/>
 </g>
 <g atv:refpx="247.75" atv:refpy="178.5" id="id_36" transform="matrix(1,0,0,1,122.25,-113.4996)">
  <line atv:refpx="123" atv:refpy="292.5" fill="#000000" fill-opacity="0.964706" id="id_37" stroke="#000000" stroke-linecap="round" stroke-linejoin="round" stroke-width="2" x1="111" x2="135" y1="292" y2="292"/>
  <polygon atv:refpx="134.5" atv:refpy="292" fill="#000018" fill-opacity="0.964706" id="id_38" points="128,282 128,302 141,292 141,292" stroke="#000000" stroke-linecap="round" stroke-linejoin="round" stroke-opacity="0" stroke-width="2"/>
 </g>
 <g atv:refpx="380" atv:refpy="103.5" id="id_33" transform="matrix(1,0,0,1,254.5,-188.5)">
  <line atv:refpx="123" atv:refpy="292.5" fill="#000000" fill-opacity="0.964706" id="id_34" stroke="#000000" stroke-linecap="round" stroke-linejoin="round" stroke-width="2" x1="111" x2="135" y1="292" y2="292"/>
  <polygon atv:refpx="134.5" atv:refpy="292" fill="#000018" fill-opacity="0.964706" id="id_35" points="128,282 128,302 141,292 141,292" stroke="#000000" stroke-linecap="round" stroke-linejoin="round" stroke-opacity="0" stroke-width="2"/>
 </g>
 <g atv:refpx="380" atv:refpy="23" id="id_18" transform="matrix(1,0,0,1,254.5,-268.9996)">
  <line atv:refpx="123" atv:refpy="292.5" fill="#000000" fill-opacity="0.964706" id="id_19" stroke="#000000" stroke-linecap="round" stroke-linejoin="round" stroke-width="2" x1="111" x2="135" y1="292" y2="292"/>
  <polygon atv:refpx="134.5" atv:refpy="292" fill="#000018" fill-opacity="0.964706" id="id_20" points="128,282 128,302 141,292 141,292" stroke="#000000" stroke-linecap="round" stroke-linejoin="round" stroke-opacity="0" stroke-width="2"/>
 </g>
 <rect atv:refpx="609.948" atv:refpy="101.5" fill="#000088" fill-opacity="0" height="97" id="id_58" stroke="#000072" stroke-width="1" width="109" x="546" y="53"/>
 <text atv:refpx="600.505" atv:refpy="103.498" fill="#000018" font-family="Arial" font-size="18" font-weight="bold" id="id_106" transform="matrix(0.612,0,0,0.6329,214.3537,34.5099)" x="556.458" y="115.507">PTAR Pok Ta Pok</text>
 <svg atv:refpx="313.994" atv:refpy="103.495" height="63.11" id="id_1" transform="matrix(0.7519,0,0,0.7289,0,0)" width="133" x="351.11" xlink:href="ObjectTypes.PROJECT.ElementoLineaAR.Principal" y="110.44">
  <atv:argument name="base" value="AGENT.OBJECTS.SCADA.Benito_Juarez.Cuencas.Cuenca_CAR_PTP.Carcamo_10_ZH_PokTaPok"/>
 </svg>
 <svg atv:refpx="447.996" atv:refpy="103.496" height="63.11" id="id_2" transform="matrix(0.7519,0,0,0.7289,0,0)" width="133" x="529.328" xlink:href="ObjectTypes.PROJECT.ElementoLineaAR.Principal" y="110.44">
  <atv:argument name="base" value="AGENT.OBJECTS.SCADA.Benito_Juarez.Cuencas.Cuenca_CAR_PTP.Carcamo_11_ZH_PokTaPok"/>
 </svg>
 <svg atv:refpx="186" atv:refpy="50" height="63.11" id="id_3" transform="matrix(0.7519,0,0,0.7289,0,0)" width="133" x="174.225" xlink:href="ObjectTypes.PROJECT.ElementoLineaAR.Principal" y="0">
  <atv:argument name="base" value="AGENT.OBJECTS.SCADA.Benito_Juarez.Cuencas.Cuenca_CAR_PTP.Carcamo_1_ZH_CREA"/>
 </svg>
 <svg atv:refpx="318.997" atv:refpy="50" height="63.11" id="id_4" transform="matrix(0.7519,0,0,0.7289,0,0)" width="133" x="351.11" xlink:href="ObjectTypes.PROJECT.ElementoLineaAR.Principal" y="0">
  <atv:argument name="base" value="AGENT.OBJECTS.SCADA.Benito_Juarez.Cuencas.Cuenca_CAR_PTP.Carcamo_2_ZH_Calinda"/>
 </svg>
 <svg atv:refpx="447.995" atv:refpy="23" height="63.11" id="id_5" transform="matrix(0.7519,0,0,0.7289,0,0)" width="133" x="529.328" xlink:href="ObjectTypes.PROJECT.ElementoLineaAR.Principal" y="0">
  <atv:argument name="base" value="AGENT.OBJECTS.SCADA.Benito_Juarez.Cuencas.Cuenca_CAR_PTP.Carcamo_3_ZH_Tortugas"/>
 </svg>
 <svg atv:refpx="448.99" atv:refpy="178.5" height="63.11" id="id_6" transform="matrix(0.7519,0,0,0.7289,0,0)" width="133" x="530.658" xlink:href="ObjectTypes.PROJECT.ElementoLineaAR.Principal" y="213.335">
  <atv:argument name="base" value="AGENT.OBJECTS.SCADA.Benito_Juarez.Cuencas.Cuenca_CAR_PTP.Carcamo_4_ZH_Presidente"/>
 </svg>
 <svg atv:refpx="315.234" atv:refpy="178.5" height="63.11" id="id_7" transform="matrix(0.7519,0,0,0.7289,0,0)" width="133" x="352.774" xlink:href="ObjectTypes.PROJECT.ElementoLineaAR.Principal" y="213.335">
  <atv:argument name="base" value="AGENT.OBJECTS.SCADA.Benito_Juarez.Cuencas.Cuenca_CAR_PTP.Carcamo_5_ZH_Convenciones"/>
 </svg>
 <svg atv:refpx="181.984" atv:refpy="175.499" height="63.11" id="id_8" transform="matrix(0.7519,0,0,0.7289,0,0)" width="133" x="175.555" xlink:href="ObjectTypes.PROJECT.ElementoLineaAR.Principal" y="213.335">
  <atv:argument name="base" value="AGENT.OBJECTS.SCADA.Benito_Juarez.Cuencas.Cuenca_CAR_PTP.Carcamo_6_ZH_Caribe_Cancun"/>
 </svg>
 <svg atv:refpx="180.994" atv:refpy="68.493" height="63.11" id="id_9" transform="matrix(0.7519,0,0,0.7289,0,0)" width="133" x="174.225" xlink:href="ObjectTypes.PROJECT.ElementoLineaAR.Principal" y="110.44">
  <atv:argument name="base" value="AGENT.OBJECTS.SCADA.Benito_Juarez.Cuencas.Cuenca_CAR_PTP.Carcamo_9_ZH_PokTaPok"/>
 </svg>
 <svg atv:refpx="49.984" atv:refpy="178.497" height="63.11" id="id_10" transform="matrix(0.7519,0,0,0.7289,0,0)" width="133" x="0" xlink:href="ObjectTypes.PROJECT.ElementoLineaAR.Principal" y="213.335">
  <atv:argument name="base" value="AGENT.OBJECTS.SCADA.Benito_Juarez.Cuencas.Cuenca_CAR_PTP.Carcamo_7_ZH_Piramides"/>
 </svg>
 <g atv:refpx="381" atv:refpy="178.5" id="id_39" transform="matrix(1,0,0,1,255.5,-113.4996)">
  <line atv:refpx="123" atv:refpy="292.5" fill="#000000" fill-opacity="0.964706" id="id_42" stroke="#000000" stroke-linecap="round" stroke-linejoin="round" stroke-width="2" x1="111" x2="135" y1="292" y2="292"/>
  <polygon atv:refpx="134.5" atv:refpy="292" fill="#000018" fill-opacity="0.964706" id="id_43" points="128,282 128,302 141,292 141,292" stroke="#000000" stroke-linecap="round" stroke-linejoin="round" stroke-opacity="0" stroke-width="2"/>
 </g>
 <polygon atv:refpx="599.5" atv:refpy="42" fill="#000018" fill-opacity="0.964706" id="id_46" points="610.5,40 590.5,40 600.5,53 600.5,53" stroke="#000000" stroke-linecap="round" stroke-linejoin="round" stroke-opacity="0" stroke-width="2"/>
 <polygon atv:refpx="850.5" atv:refpy="404.5" fill="#000018" fill-opacity="0.964706" id="id_52" points="590.5,163 610.5,163 600.5,150 600.5,150" stroke="#000000" stroke-linecap="round" stroke-linejoin="round" stroke-opacity="0" stroke-width="2"/>
 <line atv:refpx="601" atv:refpy="170.5" id="id_53" stroke="#000000" stroke-linecap="round" stroke-linejoin="round" stroke-width="2" x1="600.5" x2="600.5" y1="179" y2="162"/>
 <line atv:refpx="601" atv:refpy="33" id="id_54" stroke="#000000" stroke-linecap="round" stroke-linejoin="round" stroke-width="2" x1="600.5" x2="600.5" y1="42" y2="24"/>
 <g atv:refpx="116.5" atv:refpy="178.5" id="id_13" transform="matrix(1,0,0,1,-9,-113.4996)">
  <line atv:refpx="123" atv:refpy="292.5" fill="#000000" fill-opacity="0.964706" id="id_21" stroke="#000000" stroke-linecap="round" stroke-linejoin="round" stroke-width="2" x1="111" x2="135" y1="292" y2="292"/>
  <polygon atv:refpx="134.5" atv:refpy="292" fill="#000018" fill-opacity="0.964706" id="id_22" points="128,282 128,302 141,292 141,292" stroke="#000000" stroke-linecap="round" stroke-linejoin="round" stroke-opacity="0" stroke-width="2"/>
 </g>
</svg>
